<svg viewBox="0 0 330 200" xmlns="http://www.w3.org/2000/svg"><g><g><g><g><g><line x1="51.53200149536133" y1="176.55199909210205" x2="46.53200149536133" y2="176.55199909210205" style="visibility: inherit;" fill="rgb(0, 0, 0)" stroke="rgb(204, 204, 204)" stroke-width="1px"></line><line x1="51.53200149536133" y1="161.83933250109354" x2="46.53200149536133" y2="161.83933250109354" style="visibility: inherit;" fill="rgb(0, 0, 0)" stroke="rgb(204, 204, 204)" stroke-width="1px"></line><line x1="51.53200149536133" y1="147.12666591008502" x2="46.53200149536133" y2="147.12666591008502" style="visibility: inherit;" fill="rgb(0, 0, 0)" stroke="rgb(204, 204, 204)" stroke-width="1px"></line><line x1="51.53200149536133" y1="132.41399931907654" x2="46.53200149536133" y2="132.41399931907654" style="visibility: inherit;" fill="rgb(0, 0, 0)" stroke="rgb(204, 204, 204)" stroke-width="1px"></line><line x1="51.53200149536133" y1="117.70133272806802" x2="46.53200149536133" y2="117.70133272806802" style="visibility: inherit;" fill="rgb(0, 0, 0)" stroke="rgb(204, 204, 204)" stroke-width="1px"></line><line x1="51.53200149536133" y1="102.98866613705951" x2="46.53200149536133" y2="102.98866613705951" style="visibility: inherit;" fill="rgb(0, 0, 0)" stroke="rgb(204, 204, 204)" stroke-width="1px"></line><line x1="51.53200149536133" y1="88.27599954605101" x2="46.53200149536133" y2="88.27599954605101" style="visibility: inherit;" fill="rgb(0, 0, 0)" stroke="rgb(204, 204, 204)" stroke-width="1px"></line><line x1="51.53200149536133" y1="73.56333295504251" x2="46.53200149536133" y2="73.56333295504251" style="visibility: inherit;" fill="rgb(0, 0, 0)" stroke="rgb(204, 204, 204)" stroke-width="1px"></line><line x1="51.53200149536133" y1="58.850666364034005" x2="46.53200149536133" y2="58.850666364034005" style="visibility: inherit;" fill="rgb(0, 0, 0)" stroke="rgb(204, 204, 204)" stroke-width="1px"></line><line x1="51.53200149536133" y1="44.13799977302551" x2="46.53200149536133" y2="44.13799977302551" style="visibility: inherit;" fill="rgb(0, 0, 0)" stroke="rgb(204, 204, 204)" stroke-width="1px"></line><line x1="51.53200149536133" y1="29.425333182017003" x2="46.53200149536133" y2="29.425333182017003" style="visibility: inherit;" fill="rgb(0, 0, 0)" stroke="rgb(204, 204, 204)" stroke-width="1px"></line><line x1="51.53200149536133" y1="14.71266659100849" x2="46.53200149536133" y2="14.71266659100849" style="visibility: inherit;" fill="rgb(0, 0, 0)" stroke="rgb(204, 204, 204)" stroke-width="1px"></line><line x1="51.53200149536133" y1="0" x2="46.53200149536133" y2="0" style="visibility: inherit;" fill="rgb(0, 0, 0)" stroke="rgb(204, 204, 204)" stroke-width="1px"></line></g><g transform="translate(41.53200149536133, 0)"><text style="text-anchor: end; visibility: hidden; font-family: Roboto, sans-serif; font-size: 12px; font-weight: 200;" x="0" y="176.55199909210205" dx="0em" dy="0.3em" fill="rgb(33, 33, 33)" stroke="none" stroke-width="1px">-0.4</text><text style="text-anchor: end; visibility: inherit; font-family: Roboto, sans-serif; font-size: 12px; font-weight: 200;" x="0" y="161.83933250109354" dx="0em" dy="0.3em" fill="rgb(33, 33, 33)" stroke="none" stroke-width="1px">-0.2</text><text style="text-anchor: end; visibility: hidden; font-family: Roboto, sans-serif; font-size: 12px; font-weight: 200;" x="0" y="147.12666591008502" dx="0em" dy="0.3em" fill="rgb(33, 33, 33)" stroke="none" stroke-width="1px">0</text><text style="text-anchor: end; visibility: inherit; font-family: Roboto, sans-serif; font-size: 12px; font-weight: 200;" x="0" y="132.41399931907654" dx="0em" dy="0.3em" fill="rgb(33, 33, 33)" stroke="none" stroke-width="1px">0.2</text><text style="text-anchor: end; visibility: hidden; font-family: Roboto, sans-serif; font-size: 12px; font-weight: 200;" x="0" y="117.70133272806802" dx="0em" dy="0.3em" fill="rgb(33, 33, 33)" stroke="none" stroke-width="1px">0.4</text><text style="text-anchor: end; visibility: inherit; font-family: Roboto, sans-serif; font-size: 12px; font-weight: 200;" x="0" y="102.98866613705951" dx="0em" dy="0.3em" fill="rgb(33, 33, 33)" stroke="none" stroke-width="1px">0.6</text><text style="text-anchor: end; visibility: hidden; font-family: Roboto, sans-serif; font-size: 12px; font-weight: 200;" x="0" y="88.27599954605101" dx="0em" dy="0.3em" fill="rgb(33, 33, 33)" stroke="none" stroke-width="1px">0.8</text><text style="text-anchor: end; visibility: inherit; font-family: Roboto, sans-serif; font-size: 12px; font-weight: 200;" x="0" y="73.56333295504251" dx="0em" dy="0.3em" fill="rgb(33, 33, 33)" stroke="none" stroke-width="1px">1</text><text style="text-anchor: end; visibility: hidden; font-family: Roboto, sans-serif; font-size: 12px; font-weight: 200;" x="0" y="58.850666364034005" dx="0em" dy="0.3em" fill="rgb(33, 33, 33)" stroke="none" stroke-width="1px">1.2</text><text style="text-anchor: end; visibility: inherit; font-family: Roboto, sans-serif; font-size: 12px; font-weight: 200;" x="0" y="44.13799977302551" dx="0em" dy="0.3em" fill="rgb(33, 33, 33)" stroke="none" stroke-width="1px">1.4</text><text style="text-anchor: end; visibility: hidden; font-family: Roboto, sans-serif; font-size: 12px; font-weight: 200;" x="0" y="29.425333182017003" dx="0em" dy="0.3em" fill="rgb(33, 33, 33)" stroke="none" stroke-width="1px">1.6</text><text style="text-anchor: end; visibility: inherit; font-family: Roboto, sans-serif; font-size: 12px; font-weight: 200;" x="0" y="14.71266659100849" dx="0em" dy="0.3em" fill="rgb(33, 33, 33)" stroke="none" stroke-width="1px">1.8</text><text style="text-anchor: end; visibility: hidden; font-family: Roboto, sans-serif; font-size: 12px; font-weight: 200;" x="0" y="0" dx="0em" dy="0.3em" fill="rgb(33, 33, 33)" stroke="none" stroke-width="1px">2</text></g><line x1="51.53200149536133" y1="0" x2="51.53200149536133" y2="176.55199909210205" fill="rgb(0, 0, 0)" stroke="rgb(204, 204, 204)" stroke-width="1px"></line></g></g><g transform="translate(51, 0)" clip-path="url(#clip_0)"><clipPath id="clip_0"><rect width="278" height="176"></rect></clipPath><g><g><g><line x1="0" y1="0" x2="0" y2="176.55199909210205" fill="rgb(0, 0, 0)" stroke="rgb(66, 66, 66)" stroke-width="1px" opacity="0.25"></line><line x1="21.420615269587593" y1="0" x2="21.420615269587593" y2="176.55199909210205" fill="rgb(0, 0, 0)" stroke="rgb(66, 66, 66)" stroke-width="1px" opacity="0.25"></line><line x1="42.841230539175186" y1="0" x2="42.841230539175186" y2="176.55199909210205" fill="rgb(0, 0, 0)" stroke="rgb(66, 66, 66)" stroke-width="1px" opacity="0.25"></line><line x1="64.26184580876277" y1="0" x2="64.26184580876277" y2="176.55199909210205" fill="rgb(0, 0, 0)" stroke="rgb(66, 66, 66)" stroke-width="1px" opacity="0.25"></line><line x1="85.68246107835037" y1="0" x2="85.68246107835037" y2="176.55199909210205" fill="rgb(0, 0, 0)" stroke="rgb(66, 66, 66)" stroke-width="1px" opacity="0.25"></line><line x1="107.10307634793796" y1="0" x2="107.10307634793796" y2="176.55199909210205" fill="rgb(0, 0, 0)" stroke="rgb(66, 66, 66)" stroke-width="1px" opacity="0.25"></line><line x1="128.52369161752554" y1="0" x2="128.52369161752554" y2="176.55199909210205" fill="rgb(0, 0, 0)" stroke="rgb(66, 66, 66)" stroke-width="1px" opacity="0.25"></line><line x1="149.94430688711313" y1="0" x2="149.94430688711313" y2="176.55199909210205" fill="rgb(0, 0, 0)" stroke="rgb(66, 66, 66)" stroke-width="1px" opacity="0.25"></line><line x1="171.36492215670074" y1="0" x2="171.36492215670074" y2="176.55199909210205" fill="rgb(0, 0, 0)" stroke="rgb(66, 66, 66)" stroke-width="1px" opacity="0.25"></line><line x1="192.7855374262883" y1="0" x2="192.7855374262883" y2="176.55199909210205" fill="rgb(0, 0, 0)" stroke="rgb(66, 66, 66)" stroke-width="1px" opacity="0.25"></line><line x1="214.20615269587591" y1="0" x2="214.20615269587591" y2="176.55199909210205" fill="rgb(0, 0, 0)" stroke="rgb(66, 66, 66)" stroke-width="1px" opacity="0.25"></line><line x1="235.6267679654635" y1="0" x2="235.6267679654635" y2="176.55199909210205" fill="rgb(0, 0, 0)" stroke="rgb(66, 66, 66)" stroke-width="1px" opacity="0.25"></line><line x1="257.0473832350511" y1="0" x2="257.0473832350511" y2="176.55199909210205" fill="rgb(0, 0, 0)" stroke="rgb(66, 66, 66)" stroke-width="1px" opacity="0.25"></line><line x1="278.4679985046387" y1="0" x2="278.4679985046387" y2="176.55199909210205" fill="rgb(0, 0, 0)" stroke="rgb(66, 66, 66)" stroke-width="1px" opacity="0.25"></line></g><g><line x1="0" y1="176.55199909210205" x2="278.4679985046387" y2="176.55199909210205" fill="rgb(0, 0, 0)" stroke="rgb(66, 66, 66)" stroke-width="1px" opacity="0.25"></line><line x1="0" y1="161.83933250109354" x2="278.4679985046387" y2="161.83933250109354" fill="rgb(0, 0, 0)" stroke="rgb(66, 66, 66)" stroke-width="1px" opacity="0.25"></line><line x1="0" y1="147.12666591008502" x2="278.4679985046387" y2="147.12666591008502" fill="rgb(0, 0, 0)" stroke="rgb(66, 66, 66)" stroke-width="1px" opacity="0.25"></line><line x1="0" y1="132.41399931907654" x2="278.4679985046387" y2="132.41399931907654" fill="rgb(0, 0, 0)" stroke="rgb(66, 66, 66)" stroke-width="1px" opacity="0.25"></line><line x1="0" y1="117.70133272806802" x2="278.4679985046387" y2="117.70133272806802" fill="rgb(0, 0, 0)" stroke="rgb(66, 66, 66)" stroke-width="1px" opacity="0.25"></line><line x1="0" y1="102.98866613705951" x2="278.4679985046387" y2="102.98866613705951" fill="rgb(0, 0, 0)" stroke="rgb(66, 66, 66)" stroke-width="1px" opacity="0.25"></line><line x1="0" y1="88.27599954605101" x2="278.4679985046387" y2="88.27599954605101" fill="rgb(0, 0, 0)" stroke="rgb(66, 66, 66)" stroke-width="1px" opacity="0.25"></line><line x1="0" y1="73.56333295504251" x2="278.4679985046387" y2="73.56333295504251" fill="rgb(0, 0, 0)" stroke="rgb(66, 66, 66)" stroke-width="1px" opacity="0.25"></line><line x1="0" y1="58.850666364034005" x2="278.4679985046387" y2="58.850666364034005" fill="rgb(0, 0, 0)" stroke="rgb(66, 66, 66)" stroke-width="1px" opacity="0.25"></line><line x1="0" y1="44.13799977302551" x2="278.4679985046387" y2="44.13799977302551" fill="rgb(0, 0, 0)" stroke="rgb(66, 66, 66)" stroke-width="1px" opacity="0.25"></line><line x1="0" y1="29.425333182017003" x2="278.4679985046387" y2="29.425333182017003" fill="rgb(0, 0, 0)" stroke="rgb(66, 66, 66)" stroke-width="1px" opacity="0.25"></line><line x1="0" y1="14.71266659100849" x2="278.4679985046387" y2="14.71266659100849" fill="rgb(0, 0, 0)" stroke="rgb(66, 66, 66)" stroke-width="1px" opacity="0.25"></line><line x1="0" y1="0" x2="278.4679985046387" y2="0" fill="rgb(0, 0, 0)" stroke="rgb(66, 66, 66)" stroke-width="1px" opacity="0.25"></line></g></g></g><g><g><line x1="0" y1="147.12666591008502" x2="278.4679985046387" y2="147.12666591008502" fill="rgb(0, 0, 0)" stroke="rgb(153, 153, 153)" stroke-width="1.5px"></line></g></g><g><g><line x1="21.420615269587593" y1="0" x2="21.420615269587593" y2="176.55199909210205" fill="rgb(0, 0, 0)" stroke="rgb(153, 153, 153)" stroke-width="1.5px"></line></g></g><g><g><g><g><g><path style="fill: none;" stroke="rgb(255, 112, 67)" stroke-width="2px" d="M21.420615269587593,183.90833238760632L21.465512284175553,165.4250829014147L21.518450954745973,171.64818969451645L21.565808365004493,174.75958594984235L21.76226515788115,169.12135942984486L22.20766222613041,165.3628581188153L22.236041566277162,181.62843644419004L22.517648279935884,179.6267290239815L22.5261599994201,176.22777813512994L22.5495114451494,173.44728636911444L22.57309197245867,171.13063885424594L22.58181194792466,169.17079451753509L22.59156725312869,167.49129544230559L22.60528537215759,168.6644299229828L22.8560791257681,168.4525756376841L22.884767874802076,167.0947287422146L22.932116359804226,165.88809893377243L22.93549308179464,164.80880971466493L22.937891000670657,163.83775988051642L22.940869061210215,164.89259499060125L22.971887302154762,163.99699677113617L23.257084943956595,163.1795792114867L23.326740619693663,162.43056959754145L23.57472886772095,161.74175884390334L23.60044253130081,161.1062007960691L23.604753430123818,161.29181674891723L23.63529863248116,161.46409618955292L23.689230981593255,161.62441879905984L23.734029818361236,161.06745476965688L23.748771366786343,160.54668658361084L23.756929051101512,160.05872072414164L24.054235290701573,159.60057500497848L24.177680511448933,160.44037560643466L24.198247277193193,161.2317353896991L24.21859091152839,163.7960465304556L24.251281150498144,163.25927848818404L24.282159562426347,163.90975424164776L24.296133538804302,164.52647856086304L24.304811863073937,164.55641620556975L24.535886750294612,173.8424266065545L24.572019163134772,174.13475055952443L24.586698234765347,173.88917301727582L24.613006915436035,173.14033765319286L24.65794855630581,172.42531198086155L24.66626987032096,172.23870328797094L24.680315248749807,172.0601732079093L24.707004740358624,171.4086742536045L24.7130025126341,170.7842699134802L24.716774920989916,170.18533403028945L24.722647739676333,169.6103679793827L24.72821709964642,169.05798840599064L24.73078757347877,168.5269163507408L24.76758640546065,168.01596758344948L24.797140904361775,167.95713097961445L24.81327479277941,167.4731504204349L24.828566732013527,167.42830578507642L24.882225373263847,167.80138170342136L24.968339221733046,167.75032428796777L24.976038742888278,167.29489840987245L24.989789587857175,166.8548465712304L25.01613991972422,166.42942433938182L25.024714116002965,166.01793453941926L25.02791233286613,165.61972356221125L25.030896343576604,165.23417801322498L25.038750569175452,164.86072166600098L25.163031788935417,164.4988126884522L25.199226678570113,164.14794111390125L25.206905374127164,163.80762653202834L25.220766297257864,163.84147458175173L25.223161241048423,163.51380373394989L25.238039643404424,163.19561221485654L25.25010361492084,162.88650993101615L25.278334200794877,162.58612786867658L25.30365812818026,162.6414980483968L25.3291010589838,163.0396644754894L25.463967632789494,163.0856543734346L25.553839014187226,163.13040756444812L25.56114582406252,162.838345219297L25.61073157332616,162.88683873063167L25.62532139239311,163.26427687545342L25.650672095547577,163.3044138993303L25.653587679292606,163.01847109699185L25.659936511651676,162.73972177337095L25.705270863801392,162.78808057583203L25.73563756103149,162.5174335933188L25.7393385673364,162.2533862608038L25.76216044785487,161.99571294717265L25.770196153666426,161.74419815600797L25.772549446260623,161.4986359625925L25.78165023266474,161.258829488033L25.822703436846002,161.32941647631463L25.83035535663397,161.09554510322147L25.864872298072545,160.86700270052282L25.93505456393499,161.24159517012754L25.98403637085144,162.2020625244914L26.036582330141922,162.84592030616386L26.068031958477313,162.5950287144207L26.07889697055572,162.93319000116927L26.153645992590217,162.68386302252134L26.17634589460507,163.3051548057163L26.179576837408234,163.05285935235304L26.192940921268097,162.80588004641984L26.21285316821245,162.56406269961417L26.24848576669632,162.327258991405L26.28154491626238,162.65654606156187L26.40703104563126,162.42082839062394L26.453927317644386,162.18988442510272L26.48258334073837,161.963581919384L26.491719828167938,161.7417934310407L26.50409320857158,161.52439610452618L26.527539857035418,161.3112714664562L26.599376270410342,161.6441691784946L26.62464069608664,161.70096196237637L26.63068011955848,162.02506686215042L26.660320895937776,161.80862695804868L26.700695780635492,162.12823833565733L26.735697661003087,161.91224571627842L26.738684646799015,161.7002951167878L26.746467470346964,161.49228453549676L26.758495740837926,161.2881153373527L26.830579086305544,161.0876921160196L26.833271538641515,160.89092256268648L26.974623798737156,161.21401184203987L27.014451267711323,161.0170665180788L27.019071575421556,161.07973447961245L27.024753988638903,160.88619934602684L27.037582557117023,161.4584005440412L27.16086712324986,161.26113253828296L27.20287830494734,161.57168902962658L27.23123681949591,161.87685390659652L27.260267703357112,161.67607102680853L27.29283001365234,161.9776123386001L27.30197542633827,161.77690069349353L27.333314976511858,161.5795952245852L27.344554849357483,161.38561966897993L27.35753812227922,161.44088534690613L27.370217936484632,161.25007054380157L27.393245097899438,161.55111247885455L27.42513801396749,161.84718177457333L27.449248106487595,162.13838604269577L27.534094568553336,162.66681212408105L27.547637157540446,162.70420272201747L27.645594821202447,162.74098825546906L27.655564332559166,163.01691529977572L27.703745841488473,163.04941302882668L27.705819476049985,162.84309823799504L27.71926686230256,162.640057156958L27.75772579196783,162.67712272453943L27.771616465953063,162.94982529215267L27.79304600647902,162.74716245027716L27.809224521178464,163.01743554572548L27.820904706671296,162.81503773063446L27.82374888836543,162.61576319715996L27.827542122319414,162.4195500378059L27.831260979137053,162.69104185956286L27.850563333563315,162.7266578390672L27.863632883963216,162.99287414635762L27.891952722400884,162.79397470075324L27.900669722781426,162.8280305493353L27.953501290275497,162.63218596322477L27.978968021762675,162.43926128563731L28.022820781356252,162.24920122697918L28.072677263396212,162.9728235009569L28.14497779010198,162.77708041025397L28.180411057860425,162.58420905004888L28.189955131997205,162.39415621289413L28.22409126249766,162.20686995456128L28.24422664085107,162.02229955675006L28.247112473741556,161.8403954911134L28.25238730025169,161.66110938454474L28.255436762842155,161.48439398567572L28.258417798467168,161.3102031325361L28.261288755930387,161.13849172132808L28.26703959611318,160.96921567627157L28.275182405001075,160.80233192047683L28.287157123953868,160.63779834780442L28.301761818448092,160.47557379567357L28.309833225285086,160.31561801878155L28.321251603257963,160.1578916636991L28.329662169836727,160.00235624430738L28.33242899930905,159.848974118045L28.338468422780892,159.697708462933L28.341514910285902,159.5485232553493L28.347622760723187,159.40138324852325L28.350466942417317,159.25625395172403L28.35317724526601,159.11310161011627L28.36179011765566,158.9718931852586L28.36473247716977,158.83259633622072L28.378673727607726,158.6951794012965L28.381196600072812,158.55961138029178L28.401079096162622,158.42586191736467L28.40978419620135,158.29390128439957L28.42225872951043,158.16370036489477L28.430841851045535,158.03523063834584L28.43667301853559,157.90846416510658L28.442730292520157,157.78337357171065L28.454154620663935,157.65993203663814L28.465781254618598,157.53811327651047L28.475242026362665,157.41789153269957L28.47808620805679,157.2992415583362L28.48114757098907,157.18213860570393L28.48410778101591,157.06655841400553L28.501791688955134,156.95247719748866L28.52019556757426,156.83987163391905L28.526190364764286,156.72871885338864L28.52904049662932,156.61899642744845L28.53981923122956,156.51068235855402L28.548119719646532,156.40375506981385L28.550812171982496,156.2981933950304L28.55924951433035,156.19397656902373L28.562072870426302,156.0910842182291L28.763515906524045,155.98949635155859L28.76972193478132,155.88919335151903L28.7760439913713,155.79015596557733L28.793055529997897,155.6923652977651L28.801311392133055,155.59580280051557L28.80404549566538,155.50045026672433L28.813024303565882,155.40628982202767L28.815719730987308,155.3133039172907L28.818816794945036,155.2214753212998L28.825016873031394,155.13078711365137L28.82789378066552,155.04122267783225L28.965783041292582,155.1583107019039L29.056576699181097,155.47925750851658L29.070559600815404,155.79625269165706L29.098909190107612,155.69969452432287L29.115522067283365,155.60432027605424L29.13481549645326,155.7144796669121L29.143315315595654,155.94577760503643L29.148441387833078,156.0519076378215L29.158416849360712,155.9530532321664L29.17624058631628,156.05887350687453L29.196474142489677,156.36667025035476L29.20995127959679,156.26465555744693L29.223618822172973,156.1638720323416L29.254244351837574,156.26692778657446L29.264312041014282,156.36874447807722L29.26771256368833,156.26712354728832L29.325015684619927,156.57074918192677L29.330132831600995,156.46711241735343L29.34324403319726,156.36471264317717L29.38378849776586,156.66638417579077L29.400945815579707,156.56199982478097L29.428462380944765,156.65989937685814L29.660667800638006,156.9574959683879L29.665308933946417,157.45224376189358L29.670551034516556,157.33967833488617L29.67629294944299,157.22844034563892L29.689436876979244,157.51877321787515L29.763088092481173,157.40578508054926L29.778388956971657,157.2941228309917L29.784514657921665,157.1837688078179L29.943875110271037,156.99493065918165L29.95512093328757,156.8880056037246L29.957932389041705,156.7823273744195L29.971549355165166,156.6778795338573L29.97639576936991,156.5746459023216L29.986234376966646,156.47261055286836L29.99100046386413,156.3717578065184L29.996278265459722,156.27207222755987L30.14417868863986,156.5698283192305L30.148909074511895,156.86414851813453L30.15721551309977,156.75939718188494L30.330954553448848,157.05123180012342L30.36230005379334,157.0631539895604L30.39092930111824,157.46973125478652L30.458740423873756,157.75329905307967L30.480815557943245,157.83651377796193L30.498118654944342,158.90361212413794L30.508977716851845,158.77756983345816L30.52333250416792,158.57428844142632L30.55137565965836,159.0415989208076L30.5867375253659,158.8357783900281L30.775009858158302,158.90709184272075L30.875130408945452,159.36990042329646L30.87754617833419,159.16099560248134L30.88632863059472,158.95445346160395L30.93827957279438,159.22007982137148L30.94957597226363,159.4827093550998L30.965019640855914,159.35135159989375L31.000188126008936,159.22147227673403L31.046215673069465,159.40548295410613L31.0869267424235,159.2751904030476L31.09159167641554,159.3413881120994L31.11084940455999,159.52379090442065L31.122273732703768,159.78207045803387L31.126557855757692,159.84278382506184L32.11507164908189,159.7082539617946L32.11954022743396,159.57522444137985L36.03888805382313,159.83235945387634L36.04749795112732,160.08663299919823L36.44026278260794,160.648675330953L36.75816851389225,160.42841893584637L36.78948723846766,160.4820767791342L36.796794048342946,160.7289424625527L36.81294578727331,160.77937709899447L36.82936528389454,160.82925399071368L36.8562719567415,160.60768928997874L48.686776617229285,160.4659269019239L49.69002898389316,160.7123131275651L49.73528300873561,160.7241523767724L49.756248435930715,160.9675773933141L69.09783531407577,160.82232569050328L69.92435867950917,160.67866933337893L76.10168331232009,160.53658931877408L76.3382026059218,155.2119713580516L76.39414611280088,145.93265061581508L76.46998401611157,146.1312667625837L76.61707819113366,145.5066190756726L76.63521728714736,145.11961961842937L76.65884839090934,142.51937625036027L76.67639842000314,142.56111507480668L76.81821776851507,139.99634765845613L76.83660082153601,139.3475650873916L76.90726802632747,137.5223178342752L76.92668045891556,136.2092911077325L76.94577158227457,136.4509608200484L76.95990918835248,136.12776434316672L76.98071396093307,135.01615226710436L77.03007062861674,134.7081685546754L77.1011989716536,134.41628027753117L77.11182002672476,132.88373572673305L77.14184458912764,132.33689475509556L77.15532767640566,131.744970988215L77.22038387003067,132.07046706537102L77.2278959608023,131.5645665829631L77.24054304906772,131.94897505828743L77.26013696186848,132.03016354009213L77.33319613536506,131.75426116468446L77.34936572480812,132.15533961868024L77.36981646221969,132.27879063018472L77.41061678413733,132.29925381882708L77.4263341605914,130.99201171248023L77.44252755071811,130.05434245513908L77.5325447113031,129.81219743700237L77.53925947917303,129.2554040720379L77.62950869642343,128.58405714001404L77.6815756669558,127.52678216823378L77.69195276501974,127.38716561976739L77.7108207569697,126.45703115272478L77.80170664250728,126.12587562176141L77.818646779083,125.38034929759077L77.85681712545922,124.87063706825994L77.9132782972073,125.19528009475337L77.9160005003978,125.06102125775354L77.96495850663062,125.45305255536076L78.01310431453449,126.04321031538765L78.03854129516712,125.81186171539093L78.18619776134003,125.27971797443172L78.2009214592524,125.16374597965105L78.22344583122548,124.53757899482513L78.22678685219043,124.42931817440736L78.23804457554878,124.95952613091379L78.26706355906816,123.81873894869312L78.27811897661564,123.77472628076461L78.29175379325183,122.82961697515331L78.44301606299511,123.31893448745362L78.44850509565794,123.20448389516145L78.45618379121498,123.16683292636566L78.5053887295405,119.44550011017212L78.51597705867168,118.51468867331405L78.58731960786122,117.55592063379294L78.59241295415866,117.16098756304277L78.61703773646232,116.29840127454072L78.64555095545451,115.45746853616323L78.67819656814244,115.12209356589915L78.6949135733091,115.68912968653052L78.73867113016813,114.87394254453936L78.763768951059,113.92909441310394L78.77525873108277,113.98658891518333L78.78816762686814,113.98696360743844L78.80737775364533,113.5353107966561L78.83561131460483,113.12605071529214L78.93999813793317,113.05993265531464L78.96467349668956,113.05096937475976L78.99450765362337,112.13891093768642L79.01038568469195,111.87600383887396L79.03093757500893,109.9168765951967L79.05623472662522,109.05002449037528L79.07439762332255,109.01313040566343L79.11043780851365,108.61951431296718L79.14129241975822,107.14639278976237L79.19211877965621,104.93716414017779L79.26834641916139,104.94230762538118L79.29292955026871,103.73929129799781L79.31168746405687,103.55013768961106L79.31586150894898,104.28898882150735L79.34227134252511,103.44371174377045L79.3514078299547,103.60793842666816L79.36767857230322,102.44478851382873L79.41573215255798,100.5685136877154L79.49749047592236,100.96822997180854L79.54668946407698,100.78884523455578L79.57679435378711,98.95554621112608L79.60442099731395,99.16531483298058L79.63171740635542,99.9475222630671L79.64237118736658,100.6654124252415L79.65824624334972,99.5028120221103L79.66813542739916,98.43965751507125L79.73577697028381,97.46865659572485L79.77879968103568,97.0318804041834L79.85991538594197,96.10675105531372L79.86894179520974,96.86293989324082L79.8870511403689,96.87536706075404L79.89569673869855,97.23686268965587L79.9175338659317,96.5721470482956L79.95867037250568,96.8056982281798L79.99189315177172,95.82150226264949L80.02563954607767,95.86319944299456L80.08653359515239,95.18173817005265L80.10030824080492,94.00273208600252L80.1094506784054,93.757696668366L80.12380249063601,92.7865848257391L80.13740160624675,92.23643292501085L80.21960024225834,91.34333019359252L80.30707370478007,90.53412786492433L80.37416188177023,89.839064512347L80.42179002480508,90.08454607349103L80.46101355143206,91.10520212312078L80.49868110836653,91.59903126474082L80.58394408239585,90.56393145329608L80.59458893815065,90.7459442379335L80.6299894799691,90.87012277364698L80.64274962148178,90.8065116989354L80.65444765748732,90.54463619047756L80.69772027541735,89.17912357985345L80.70584523379253,89.9467769353682L80.72424018715527,90.08518244134429L80.73055034340345,89.76863410690848L80.76435028924759,90.55484858128199L80.9323563399266,91.36404806474043L80.94251923183784,90.38880065266169L80.94588107840097,90.60956934378726L81.02203136568436,90.91499507134564L81.04223517100323,91.07450750505497L81.05793767203001,91.23238463526987L81.0663541887797,90.99764550524733L81.0737829771586,90.67222846432617L81.11900725114651,90.96441908591714L81.13188044590645,90.24235969156474L81.14051711897973,89.85026471990682L81.15650820329556,89.85914668125056L81.19737100200776,89.47102146508963L81.21854468518465,89.10547088763941L81.33171693585896,87.76400019344666L81.38357862549499,86.93842261731169L81.39219447297012,86.58001029766861L81.52992307898263,86.29344293820847L81.54684536504561,85.54498564336687L81.65257692699922,85.6159709255421L81.71495256863008,86.52891842203417L81.72164353581637,87.37678091384225L81.74092506464444,87.2929443201692L81.76740332518602,86.64009250078706L81.7756770378339,86.05584084554137L81.84097421338069,85.94821717136294L81.860630602976,85.27818940290265L81.87503596674479,84.65214715516672L81.88636211706859,85.51835053976757L81.92124499401801,84.63000810754303L81.93659345987578,84.6173034955613L81.9539858094405,84.61710689847007L82.0376481874955,84.91396831160776L82.08722203641733,84.743699040098L82.08978953516423,85.03922646022126L82.11863893881272,85.70295867577397L82.19653560125766,84.84427714649307L82.218360828149,84.45208633226109L82.33214594642688,84.1752219989994L82.38370715243207,84.06816164102929L82.39705338577919,83.05930985395177L82.44538067389573,81.85048143445788L82.46274029752047,80.85799064761004L82.54650085339546,81.1491903117394L82.60588653414494,80.81304896650789L82.61446668059459,80.05998653697907L82.69815880950415,80.40242510383032L82.72374751949494,81.30998237657953L82.73690929754392,81.163909356946L82.75719343017005,81.92151630368511L82.81693612117401,82.21418571809464L82.83109455285012,82.22585256806663L82.86285359007273,82.8428401708547L82.87930878771941,82.59489392104815L82.88691608122556,83.4798553168275L82.93137575825178,83.29964715307523L82.946563569495,83.81298672964888L82.9797833736756,84.09879511293275L82.98905969012151,84.89424008098979L83.0286580775157,85.42845250191256L83.03368002176224,85.27190496482795L83.0405613944176,86.18501248066111L83.07250488693836,86.31101641972025L83.11277266855973,85.78758539668934L83.14421337163876,85.64598349865673L83.16945994680233,84.51211340253839L83.20794565223669,82.47015961728744L83.23306727381119,82.28792773854283L83.44307855601677,82.55184168187245L83.51702132989321,82.57860598812113L83.52760073376803,82.47552892549359L83.53280713331272,82.42902241846117L83.58598976089037,83.3145384096494L83.60522666343665,83.23491967601268L83.61806118208567,84.03819339586612L83.64663390278695,82.69918896048684L83.65378005804772,82.70595586544789L83.69470235846899,82.94701150196597L83.70012296416637,83.88248993564063L83.77616912345886,83.43952719722805L83.80506315338918,82.96404914500086L83.8117065192082,83.02364251182196L83.82441310918271,83.08263306808743L83.84202859015649,81.72305018615647L83.86326475012791,81.94923228902547L83.8810022096053,82.3272377263858L83.93463407508655,81.94940391360197L83.93870399198777,82.27189211543012L83.97690706430399,82.64659100297769L83.99512053745403,82.67237087688552L84.00326334634194,82.96905064211504L84.01776986301617,82.65881607718485L84.11445419010381,82.36404038175425L84.15394547442168,82.9225669111827L84.16806225490141,82.82849862792783L84.17347691042791,83.13585455088369L84.1830775111883,83.0026873446243L84.21672870275975,82.8092597722173L84.22650185847648,83.74510528373692L84.24316531210496,84.0493497993896L84.24759818943159,84.2766071542948L84.25435163341241,84.1381702068212L84.27185406113892,84.98657581018138L84.28926128613092,84.95187662469563L84.30792697227001,84.35094956467181L84.38228328302456,83.36812168826202L84.40772621382811,82.64768477208696L84.50500853309205,82.66727320583628L84.55713203024803,82.92064301544436L84.56372481961434,82.90670287653964L84.6017166608633,82.89290335139472L84.6126411746508,82.68223390576634L84.62068283063326,82.07968769041021L84.69296253174085,81.16310529076667L84.74132552088285,80.97598824926288L84.75129205715412,80.858468330008L84.82144159707657,81.75774824160371L84.82582389795047,82.06323823594352L84.84533153327305,81.94712625737533L84.86437208017935,81.24135272606674L84.89333156198967,81.55199029833926L84.91100059450162,81.49641047858455L84.95458262131886,80.46294024257698L85.02066224434009,79.89524561806091L85.0641817943628,79.78861551911658L85.07050385095279,80.1876118575453L85.08980323029358,80.21957073427295L85.10859982019267,81.18025337077836L85.13401895031258,81.01152340211097L85.1595213828252,80.51227540825766L85.17650019551179,80.44254026908398L85.19312199794389,81.24090228688374L85.25225479642978,81.37301228909479L85.26907295450187,81.75599570434817L85.27949765393306,81.46465355117078L85.3402280733078,80.65341895994062L85.34367917243456,80.6376382407617L85.35029873756996,80.95414214315505L85.36096441892293,81.34126354127956L85.37630693460979,81.06028065519568L85.48033377259816,81.93830214905859L85.57962129945815,82.24171716145558L85.63193222699776,82.09931603545188L85.66606835749822,82.41954468574801L85.6723576881482,82.73655128523392L85.72120561621924,82.25715884610487L85.72947932886711,82.24989240921215L85.7432182734942,81.63399359624232L85.78405727152273,81.11036728086776L85.79667460893363,81.13304739841564L85.834413567919,81.58585911276799L85.86251325003305,81.89271685234259L85.87016516982102,82.76207161748648L85.8818364300575,82.05507944167334L85.90128753875646,81.74247634027132L85.9094928244389,81.62357741042625L85.94669626804254,81.5673435190936L85.9671142795141,80.86626213071281L85.97697073762357,80.89138408347105L85.99720726888242,80.65195571441488L86.02931736618861,80.71610279084395L86.04594809387707,81.67079487943765L86.05722069266271,81.97670922020716L86.10690164466088,82.27954882713495L86.11605598260319,82.78215167833983L86.12544535229634,82.76962606718283L86.20727805279705,83.06449419788676L86.21460568827054,82.40389224263676L86.21897311371718,82.7024120951785L86.35743359075143,82.14993504749954L86.39913833864713,82.25435376139289L86.44219080025354,81.19639087716345L86.4524369945575,80.56073651326118L86.47888252915908,79.96218960760251L86.4824407313622,80.22984206764126L86.51202498111785,78.97108150541033L86.52745377428289,78.74485418548704L86.53872339798303,78.99396991481993L86.57437979715053,78.87810873498256L86.59147166308439,78.73269368923373L86.60439245921158,79.190789684391L86.62400719761054,79.21425826867623L86.64481792036204,79.04091158127476L86.66330807645932,78.76487486353611L86.69092281964438,78.29503840266162L86.73219915523468,76.3372359197357L86.75177819260819,76.08830732328511L86.76041486568147,75.95244264230274L86.78508724935239,76.11891761827867L86.81169641365393,76.0503162738795L86.94136848825676,75.91484027067989L86.97179766228138,75.91584825285544L87.01682558062933,76.27921721089754L87.05325252692943,76.44240223756816L87.05819116878325,76.80048219723326L87.06619117356935,76.95843891346784L87.08266124664331,77.00426465489684L87.08958129540956,77.21544591653182L87.10425144178377,77.3139661664296L87.12576428470246,76.47191040058115L87.1569164044924,76.19099341265401L87.16152183677539,76.3550385786991L87.197008656072,76.60954922290404L87.24358361885609,76.86150609089326L87.26417716036944,76.13458542821556L87.32100426762838,75.88777369339486L87.33053644142335,75.99957893325953L87.34406415498317,75.81553012459494L87.3505260405895,75.54122541765715L87.37076257184835,75.60123569946941L87.39727950850083,74.55545123759102L87.44018321583454,74.0174863293397L87.47196010356988,73.8164652439604L87.48534203794247,73.9490028211469L87.49538592643555,74.40560858867848L87.5048139722396,74.03494359603809L87.51246589202758,74.37402642142774L87.53705794839124,74.39046477836503L87.56495234960899,74.68300274612977L87.57228891033881,74.86210264497238L87.58188356092832,74.89820865753668L87.62590887547825,74.82959048860275L87.64114428808873,73.78558195992717L87.65886687213884,73.63602582305087L87.66779510358664,73.10737078228469L87.68874565535448,72.52876934969382L87.6971264710787,71.6797361008404L87.70347530343777,72.08531867574844L87.72701715463614,71.92824433318613L87.74128268938861,70.97476923529798L87.75766946006983,71.38739455016798L87.80986138419128,70.9610993393555L87.82242517006397,71.12219141962268L87.8777171332286,71.14049546920003L87.88817455859979,70.41593230247861L87.89933707922363,70.63771693668295L87.94784882263832,70.96775748035904L87.97233972609655,70.27563871649869L87.99379604239158,69.84823617975741L88.03978788842664,69.77495582738995L88.12128737935652,69.64717303501143L88.13445808266187,70.0730338971687L88.15202298718292,69.94226988200144L88.17384226390338,68.8431351086756L88.224109307736,67.61386196809455L88.24163256106071,67.39111682897021L88.24977834503404,67.17674107476805L88.2550918476551,67.13021142607711L88.27414131981776,67.38485531823561L88.31611977557525,66.75324566647073L88.32832952627892,65.98682019775781L88.34902422069769,66.19767163723435L88.37511572013024,66.35118058372146L88.4811150397747,65.72994481643198L88.49144453647136,65.5751712685318L88.51700647069306,65.40353929672392L88.52690755508435,65.50976386144646L88.55502508771113,64.81106726193998L88.5941504365181,64.34027638943269L88.62166997696863,63.628754889027704L88.63222558015984,62.92436226124884L88.64650004016863,63.374472618897265L88.65660640545624,63.8630255357711L88.6687715298781,63.19312371941298L88.68109433382902,63.32146455756585L88.7089917101322,63.25217258728344L88.73220927701608,63.58240107679268L88.74262207610548,63.854099779522556L88.77300364876284,64.35009678919005L88.77690696087862,64.82885389392754L88.7977504095701,65.25373052654682L88.82840569008926,64.61290639549938L88.89438416020504,63.83125018756953L89.00342699226906,63.81207971255821L89.03849432451666,63.87286098883167L89.090463117229,64.38704648539681L89.14416638476115,64.13530928616859L89.16837763018668,63.45049348752216L89.20689011139015,63.32470149877129L89.25140929012542,63.39649303822244L89.25602364766475,63.88474992395863L89.27060751656079,64.35584660916201L89.29028473175428,64.39277718109666L89.33300398378985,63.484559825900774L89.34757000217316,62.08851340697419L89.35196122830341,62.22788615577329L89.44901149090191,61.60514981229743L89.45308735797404,62.1113072670898L89.46216731877999,62.47129781694373L89.46946222831349,62.07925598173662L89.4869378802709,61.635928633225575L89.57756195828853,61.89024646322136L89.61121017477453,62.142017576768616L89.68242479528953,61.02941329504893L89.7040536665409,60.79290577562595L89.71492760387567,60.03120865864309L89.72176435024922,60.22182903841393L89.73196889335681,60.183571125081535L89.80335309374271,60.25611317363975L89.95135169474284,60.57943240505026L89.99832829406321,60.95472201872957L90.0654105208825,62.03168162276259L90.07397579190487,62.171606791838244L90.09755334412867,62.36533764425082L90.14169468701131,62.30563320634791L90.20109524318806,62.363072530675L90.3201581630615,61.86174610384339L90.3519439760532,62.027903030155244L90.36158325292452,61.64034636172687L90.36521880734945,61.949795245067406L90.37475693131532,61.95558898432788L90.45017237249155,62.26188004680366L90.47058443379218,62.39335976942557L90.48738771643701,62.750470593289414L90.52143756945928,62.13488512546639L90.68648341011145,62.328969758507995L90.76870882189213,62.827791956552424L90.77701228539455,63.18054823524496L90.7833432672409,63.032956064815124L90.81379029177825,62.99111106921627L91.00713217018446,63.796105153480816L91.09733676115306,64.10236516286065L91.14470904683884,63.4732802105826L91.15377115713206,63.292096199434994L91.36467198988841,63.41939352866788L91.37575715829043,63.15288395959632L91.38816326463407,63.22637320618863L91.41195204792513,62.86366523124767L91.45185686912107,62.79898296451276L91.5393571074119,62.23815878364933L91.73778638194463,61.49281972058731L91.79423565335091,61.44185324454561L91.8222222822177,61.949510431173735L91.8406529366059,62.27422686036776L91.8849787347867,62.522096438790754L91.89639711275957,61.68193850914906L91.9197336830616,60.88698783011404L92.47590805819462,61.400184596562504L92.81605255324843,60.9392389300186L92.83646758963451,60.78955281867099L92.8688246190334,60.63523196329403L92.88753790653975,60.04702183829753L92.89678447213112,60.47048518888026L93.27741690512987,60.42974900247235L93.28874008036821,59.64121978841481L93.51592355581492,59.11202580638986L93.52627387810976,58.943827138983124L93.53633561711555,59.16980574525628L93.54975622759903,59.00103039668907L93.60262944628947,58.90140342667098L93.87264820210443,59.43443603884768L93.9111279573679,59.42859607464474L93.92603611057844,59.76010750363038L93.94691526029538,59.861396074684556L94.22365175906572,59.96167100458397L94.34178942736294,59.29437618784006L94.58398815909655,59.57203280375561L94.6186687302351,58.85344825167516L94.64700939427095,59.08032155380994L94.66189969696876,59.37851377736511L94.67973533426616,59.765708272658635L94.69781492857076,60.03864498920486L94.99005459764248,60.081952524709465L94.99680506653785,60.40691503980407L95.04903269168476,60.14605396333175L95.30036493576245,60.813782655897384L95.33461114442471,61.18661182722451L95.65084785276927,61.28589026376386L95.66537221995623,60.82000794441225L122.69460073711811,59.00356371468654L122.79330217214364,57.29727867730121L122.86771500952183,56.46044229714829L122.89572841415772,54.86545745414401L122.91925538992881,54.91145387476034L122.93853691875688,55.01217932794296L123.01056671268634,52.92273026792937L123.09654965739554,51.700418197897875L123.19836303180608,51.99882880672268L123.22149432121178,51.26406662046057L123.29793319178422,51.25410581485215L123.39815489547681,50.56358956347304L123.4771374641125,50.67101184608645L218.8692540352797,51.56225453764343L219.0466018542846,52.44457983615768L219.34306614470117,51.57660032285957L219.3645462616798,51.422478850779854L219.38282816179535,51.82790474282544L219.44063704725409,51.842963885754656L219.4711286980733,50.502723893303546L219.5247694888109,49.316926470330586L219.59225930233737,49.24672827277022L219.6233281197346,46.91458128891078L219.6749845284743,46.567953248297435L219.7914710243445,46.79505206016656L219.8614866854215,47.14251470572047L219.9369051016832,45.8309193337551L219.95609737794766,46.04086144665734L220.0855344207996,45.35346701477924L220.2126598222537,45.347441195558574L220.59015354009836,44.67924933444805L220.7360398304261,44.28753787018918L220.78100824706493,44.549705092644224L220.9079789440754,43.70554665449098L220.99062086781964,43.55658046467089L221.0358838179185,43.88124197503617L221.18435248242037,43.09896018958579L221.3102908247783,41.34957606411428L221.3921622013899,41.996759265093154L221.4949365284021,41.39275314190763L221.57067030372193,40.653763234721104L221.8020545998298,39.149588183492604L221.92840052889497,38.899036326475965L222.19801467308812,39.12312016672598L222.21625492200727,37.85499933798008L222.23890127248396,38.230549705265915L222.3108209882516,38.485844391902155L222.33845060686394,37.40191865192163L222.52571141060193,37.395714908563484L222.58626034976396,38.11921852639035L222.71891048490633,37.339407727997106L222.74656092911687,35.59249774046738L222.76705331772473,35.279425446741L222.78569222809472,35.37415921974518L222.89365807922437,35.00808921723676L222.92402477645444,33.339692336520926L222.95322226510112,32.71805941829344L223.13580028433432,33.70293542558944L223.8693790050959,33.298400950418255L223.95921171038273,34.03221463582629L223.98045084543958,34.11489612051534L224.14873060398043,34.47879200970246L224.31754290281748,35.05977541206404L224.38179284828442,34.807219323405185L224.43070622823544,34.502007860083225L224.45227857286318,34.82524168560109L224.4680971022227,35.08392931053204L224.4896396959959,35.48717976568868L224.7372501081705,35.77603365381112L225.10774344994167,34.541446793822L225.134757225865,33.85262801618373L225.21164235925553,33.61214859317812L225.4048116827054,31.95776137926377L225.43115606440156,31.73623427332328L225.47283998669906,32.12391268569054L226.09959826423085,31.62482066374133L226.13656370099812,32.3446964017586L226.20226846325215,32.77533694307899L226.24644550716025,33.704425848702336L226.52989677380052,34.054023069485694L226.84792448358843,33.5908110972768L226.9378047902425,32.91151140209427L227.57907850970486,32.68044839605219L227.60727934472436,33.30392334103487L227.94620107965653,34.00699748303341L228.2310655118875,33.4890792211129L228.25080222879006,34.08607087370608L228.97315297704782,33.4018235407359L229.37121346063677,32.74894481138344L229.66956693031665,31.710207655770965L230.03535963707031,31.491161736385724L230.08779849328445,31.329486426820544L230.14962671919176,30.366260152683303L230.4247953479278,30.577567388406568L230.4501043998859,30.369850391113072L230.85493915305383,29.83313548073668L231.12939376128088,29.467326581769804L231.1808270386115,29.270714093985607L231.20595758544238,28.1564170649438L231.23211453675492,28.028094732357843L231.4526843972371,27.294087607781663L231.6278425533478,27.174389867924983L231.872239873232,26.77999522103588L231.94493013613226,26.555081690243323L231.96995953005768,26.63283517160997L232.01856052603597,27.15123993306416L232.3141382409872,26.977792904563948L232.5157597822122,26.916437718096844L232.89035279173913,26.101590908736426L233.00977272186705,25.717928462421344L233.05156374724098,25.669173449274655L233.07273148024694,25.755786346781846L233.25644003195274,25.400107145379742L233.28007113571473,24.32453873160798L233.63832497592765,24.179363055974797L233.75714691387935,24.50158732548267L233.96423071199808,24.409819301545234L234.08242490691893,24.153435329950554L234.13284665519518,23.954793524000852L234.32429935433802,23.86849423661031L234.36728933914992,24.451322179547955L234.42446155632155,23.587569216431095L234.5009539784321,22.10097768117738L234.52779222431366,21.646975326255056L234.5507212079085,21.638934255298437L234.71970011153098,21.630973609732614L234.74536617374358,21.70279337359026L234.77299281727048,21.19759742772611L234.80091101917182,21.022387644605583L234.87229224447228,20.96541577064569L234.89440010448175,20.9641909271362L235.02295354695383,20.85262391620486L235.09116928133108,20.8525270888337L235.11000454734102,20.852431229899338L235.15128683310226,20.797159304725813L235.177949548942,20.435901153598394L235.412472560204,20.384794959186156L235.4639236880474,20.279022932713456L235.4879475030893,20.78125470033235L235.5124324563766,20.72669482138368L235.5841677168461,20.67268062689739L235.765341495745,20.508853054987384L235.8119670349818,20.346664010927746L235.8794032969701,20.351627166973746L236.23898402529557,20.816346016038484L236.44742148729594,20.816611995623564L236.49661155019416,20.816875315019544L236.52120063147242,21.69382958763199L236.5665498590494,21.403307088822697L236.61616535916755,21.311873019192966L236.85134883940034,21.14165416750473L236.9720331808463,21.028314137293595L237.22813746199242,21.375910331623583L237.27676523373984,20.48775973949313L237.53404764872573,20.491311803127036L237.62515071550152,20.4396521874423L237.88121632053668,20.44368535379772L237.9740717126449,20.392502103035884L238.2287182019185,20.397006795634027L238.3678034468981,20.34629042764873L238.5933149243196,20.351257260682726L238.6764893883601,20.13547049586767L238.7213060756408,20.142545653921772L239.02056694638424,20.1495500515786L239.0427015821628,20.15648439661758L239.40164266711562,19.991691171670936L239.71760566759843,20.000204191996982L239.73834201321358,20.00863207192926L240.1143541385021,20.016975663074493L240.3741445505258,19.780010445006244L240.3956395429318,19.790640374735904L240.44215797909223,19.801163992945174L240.7515668663196,19.811582362992507L241.10495346672963,19.546018572355976L241.17933060308238,19.338286313114704L241.2046575055532,19.187807084788037L241.47449478115547,19.41893078623987L243.2308007779635,18.568755985659408L244.68573954352658,18.591499058354234L246.84236411378325,18.614014676190813L247.51794354361692,18.63630511419798L247.54266352865514,18.65837262464473L248.30804591292113,18.680219437268L248.60310298791788,18.701847759498094L248.62562140972,18.723259776682216L248.64756266494408,18.744457652305044L248.67057792601707,19.0106667314923L249.29622649667445,19.02899037661534L249.36330277332283,18.82643016203986L250.3932029803991,18.846596243047514L250.41778908659188,18.86656064408761L251.5072505044595,18.88632538234112L251.8066214533647,18.905892454809585L251.83290038318083,18.92526383851707L262.89174522909445,18.944441490710155L262.93817143760583,19.036994005793215L263.06931915459387,19.055054289274L263.1569235208756,19.072933953928587L263.18611208426586,19.090634806263513L263.21474133159074,19.35338036032323" fill="none"></path></g></g></g></g><g opacity="0.2"><g><g><g><path style="fill: none;" stroke="rgb(255, 112, 67)" stroke-width="2px" d="M21.420615269587593,183.90833238760632L21.465512284175553,147.12666591008502L21.518450954745973,183.90833238760632L21.565808365004493,183.90833238760632L21.76226515788115,147.12666591008502L22.20766222613041,147.12666591008502L22.236041566277162,275.86249858140945L22.488795901201932,161.83933272032937L22.517648279935884,183.90833238760632L22.5261599994201,147.12666591008502L22.5495114451494,147.12666591008502L22.57309197245867,147.12666591008502L22.58181194792466,147.12666591008502L22.59156725312869,147.12666591008502L22.60528537215759,183.90833238760632L22.8560791257681,165.51749914884567L22.884767874802076,147.12666591008502L22.932116359804226,147.12666591008502L22.93549308179464,147.12666591008502L22.937891000670657,147.12666591008502L22.940869061210215,183.90833238760632L22.971887302154762,147.12666591008502L23.257084943956595,147.12666591008502L23.326740619693663,147.12666591008502L23.57472886772095,147.12666591008502L23.60044253130081,147.12666591008502L23.604753430123818,165.51749914884567L23.63529863248116,165.51749914884567L23.689230981593255,165.51749914884567L23.734029818361236,147.12666591008502L23.748771366786343,147.12666591008502L23.756929051101512,147.12666591008502L24.054235290701573,147.12666591008502L24.177680511448933,183.90833238760632L24.21859091152839,239.0808321038882L24.251281150498144,147.12666591008502L24.282159562426347,183.90833238760632L24.296133538804302,183.90833238760632L24.304811863073937,165.51749914884567L24.535886750294612,478.1616642077763L24.572019163134772,183.90833238760632L24.586698234765347,165.51749914884567L24.613006915436035,147.12666591008502L24.65794855630581,147.12666591008502L24.66626987032096,165.51749914884567L24.680315248749807,165.51749914884567L24.707004740358624,147.12666591008502L24.7130025126341,147.12666591008502L24.716774920989916,147.12666591008502L24.722647739676333,147.12666591008502L24.72821709964642,147.12666591008502L24.73078757347877,147.12666591008502L24.76758640546065,147.12666591008502L24.797140904361775,165.51749914884567L24.81327479277941,147.12666591008502L24.828566732013527,165.51749914884567L24.882225373263847,183.90833238760632L24.968339221733046,165.51749914884567L24.976038742888278,147.12666591008502L24.989789587857175,147.12666591008502L25.01613991972422,147.12666591008502L25.024714116002965,147.12666591008502L25.02791233286613,147.12666591008502L25.030896343576604,147.12666591008502L25.038750569175452,147.12666591008502L25.163031788935417,147.12666591008502L25.199226678570113,147.12666591008502L25.206905374127164,147.12666591008502L25.220766297257864,165.51749914884567L25.223161241048423,147.12666591008502L25.238039643404424,147.12666591008502L25.25010361492084,147.12666591008502L25.278334200794877,147.12666591008502L25.30365812818026,165.51749914884567L25.3291010589838,183.90833238760632L25.463967632789494,165.51749914884567L25.553839014187226,165.51749914884567L25.56114582406252,147.12666591008502L25.61073157332616,165.51749914884567L25.62532139239311,183.90833238760632L25.650672095547577,165.51749914884567L25.653587679292606,147.12666591008502L25.659936511651676,147.12666591008502L25.705270863801392,165.51749914884567L25.73563756103149,147.12666591008502L25.7393385673364,147.12666591008502L25.76216044785487,147.12666591008502L25.770196153666426,147.12666591008502L25.772549446260623,147.12666591008502L25.78165023266474,147.12666591008502L25.822703436846002,165.51749914884567L25.83035535663397,147.12666591008502L25.864872298072545,147.12666591008502L25.93505456393499,183.90833238760632L26.036582330141922,202.29916562636691L26.068031958477313,147.12666591008502L26.07889697055572,183.90833238760632L26.153645992590217,147.12666591008502L26.17634589460507,202.29916562636691L26.179576837408234,147.12666591008502L26.192940921268097,147.12666591008502L26.21285316821245,147.12666591008502L26.24848576669632,147.12666591008502L26.28154491626238,183.90833238760632L26.40703104563126,147.12666591008502L26.453927317644386,147.12666591008502L26.48258334073837,147.12666591008502L26.491719828167938,147.12666591008502L26.50409320857158,147.12666591008502L26.527539857035418,147.12666591008502L26.599376270410342,183.90833238760632L26.62464069608664,165.51749914884567L26.63068011955848,183.90833238760632L26.660320895937776,147.12666591008502L26.700695780635492,183.90833238760632L26.735697661003087,147.12666591008502L26.738684646799015,147.12666591008502L26.746467470346964,147.12666591008502L26.758495740837926,147.12666591008502L26.830579086305544,147.12666591008502L26.833271538641515,147.12666591008502L26.974623798737156,183.90833238760632L27.014451267711323,147.12666591008502L27.019071575421556,165.51749914884567L27.024753988638903,147.12666591008502L27.037582557117023,202.29916562636691L27.16086712324986,147.12666591008502L27.20287830494734,183.90833238760632L27.23123681949591,183.90833238760632L27.260267703357112,147.12666591008502L27.29283001365234,183.90833238760632L27.30197542633827,147.12666591008502L27.333314976511858,147.12666591008502L27.344554849357483,147.12666591008502L27.35753812227922,165.51749914884567L27.370217936484632,147.12666591008502L27.393245097899438,183.90833238760632L27.534094568553336,202.29916562636691L27.547637157540446,165.51749914884567L27.645594821202447,165.51749914884567L27.655564332559166,183.90833238760632L27.703745841488473,165.51749914884567L27.705819476049985,147.12666591008502L27.71926686230256,147.12666591008502L27.75772579196783,165.51749914884567L27.771616465953063,183.90833238760632L27.79304600647902,147.12666591008502L27.809224521178464,183.90833238760632L27.820904706671296,147.12666591008502L27.82374888836543,147.12666591008502L27.827542122319414,147.12666591008502L27.831260979137053,183.90833238760632L27.850563333563315,165.51749914884567L27.863632883963216,183.90833238760632L27.891952722400884,147.12666591008502L27.900669722781426,165.51749914884567L27.953501290275497,147.12666591008502L27.978968021762675,147.12666591008502L28.022820781356252,147.12666591008502L28.072677263396212,220.68999886512756L28.14497779010198,147.12666591008502L28.180411057860425,147.12666591008502L28.189955131997205,147.12666591008502L28.22409126249766,147.12666591008502L28.24422664085107,147.12666591008502L28.247112473741556,147.12666591008502L28.25238730025169,147.12666591008502L28.255436762842155,147.12666591008502L28.258417798467168,147.12666591008502L28.261288755930387,147.12666591008502L28.26703959611318,147.12666591008502L28.275182405001075,147.12666591008502L28.287157123953868,147.12666591008502L28.301761818448092,147.12666591008502L28.309833225285086,147.12666591008502L28.321251603257963,147.12666591008502L28.329662169836727,147.12666591008502L28.33242899930905,147.12666591008502L28.338468422780892,147.12666591008502L28.341514910285902,147.12666591008502L28.347622760723187,147.12666591008502L28.350466942417317,147.12666591008502L28.35317724526601,147.12666591008502L28.36179011765566,147.12666591008502L28.36473247716977,147.12666591008502L28.378673727607726,147.12666591008502L28.381196600072812,147.12666591008502L28.401079096162622,147.12666591008502L28.40978419620135,147.12666591008502L28.42225872951043,147.12666591008502L28.430841851045535,147.12666591008502L28.43667301853559,147.12666591008502L28.442730292520157,147.12666591008502L28.454154620663935,147.12666591008502L28.465781254618598,147.12666591008502L28.475242026362665,147.12666591008502L28.47808620805679,147.12666591008502L28.48114757098907,147.12666591008502L28.48410778101591,147.12666591008502L28.501791688955134,147.12666591008502L28.52019556757426,147.12666591008502L28.526190364764286,147.12666591008502L28.52904049662932,147.12666591008502L28.53981923122956,147.12666591008502L28.548119719646532,147.12666591008502L28.550812171982496,147.12666591008502L28.55924951433035,147.12666591008502L28.562072870426302,147.12666591008502L28.763515906524045,147.12666591008502L28.76972193478132,147.12666591008502L28.7760439913713,147.12666591008502L28.793055529997897,147.12666591008502L28.801311392133055,147.12666591008502L28.80404549566538,147.12666591008502L28.813024303565882,147.12666591008502L28.815719730987308,147.12666591008502L28.818816794945036,147.12666591008502L28.825016873031394,147.12666591008502L28.82789378066552,147.12666591008502L28.965783041292582,165.51749914884567L29.056576699181097,183.90833238760632L29.070559600815404,183.90833238760632L29.098909190107612,147.12666591008502L29.115522067283365,147.12666591008502L29.13481549645326,165.51749914884567L29.143315315595654,176.5519995305737L29.148441387833078,165.51749914884567L29.158416849360712,147.12666591008502L29.17624058631628,165.51749914884567L29.196474142489677,183.90833238760632L29.20995127959679,147.12666591008502L29.223618822172973,147.12666591008502L29.254244351837574,165.51749914884567L29.264312041014282,165.51749914884567L29.26771256368833,147.12666591008502L29.325015684619927,183.90833238760632L29.330132831600995,147.12666591008502L29.34324403319726,147.12666591008502L29.38378849776586,183.90833238760632L29.400945815579707,147.12666591008502L29.428462380944765,165.51749914884567L29.660667800638006,183.90833238760632L29.665308933946417,202.29916562636691L29.670551034516556,147.12666591008502L29.67629294944299,147.12666591008502L29.689436876979244,183.90833238760632L29.763088092481173,147.12666591008502L29.778388956971657,147.12666591008502L29.784514657921665,147.12666591008502L29.943875110271037,139.77033250496288L29.95512093328757,147.12666591008502L29.957932389041705,147.12666591008502L29.971549355165166,147.12666591008502L29.97639576936991,147.12666591008502L29.986234376966646,147.12666591008502L29.99100046386413,147.12666591008502L29.996278265459722,147.12666591008502L30.14417868863986,183.90833238760632L30.148909074511895,183.90833238760632L30.15721551309977,147.12666591008502L30.330954553448848,183.90833238760632L30.36230005379334,158.16116629181306L30.39092930111824,194.94283057697615L30.458740423873756,183.90833238760632L30.480815557943245,165.51749914884567L30.498118654944342,257.47166534264886L30.508977716851845,147.12666591008502L30.52333250416792,139.77033250496288L30.55137565965836,202.29916562636691L30.5867375253659,139.77033250496288L30.775009858158302,165.51749914884567L30.875130408945452,202.29916562636691L30.87754617833419,139.77033250496288L30.88632863059472,139.77033250496288L30.93827957279438,183.90833238760632L30.94957597226363,183.90833238760632L30.965019640855914,147.12666591008502L31.000188126008936,147.12666591008502L31.046215673069465,176.5519995305737L31.0869267424235,147.12666591008502L31.09159167641554,165.51749914884567L31.11084940455999,176.5519995305737L31.122273732703768,183.90833238760632L31.126557855757692,165.51749914884567L32.11507164908189,147.12666591008502L32.11954022743396,147.12666591008502L36.03888805382313,183.90833238760632L36.44026278260794,213.3336638157368L36.75816851389225,139.77033250496288L36.78948723846766,165.51749914884567L36.796794048342946,183.90833238760632L36.81294578727331,165.51749914884567L36.82936528389454,165.51749914884567L36.8562719567415,139.77033250496288L48.686776617229285,147.12666591008502L49.69002898389316,183.90833238760632L49.73528300873561,161.83933272032937L49.756248435930715,183.90833238760632L69.09783531407577,147.12666591008502L69.92435867950917,147.12666591008502L76.10168331232009,147.12666591008502L76.3382026059218,-347.5867411970298L76.39414611280088,-730.7291120304533L76.46998401611157,164.90447086267008L76.61707819113366,86.43691709911822L76.63521728714736,108.50591786257425L76.65884839090934,-103.60169157316949L76.67639842000314,146.51363810348778L76.81821776851507,-102.98867315260566L76.83660082153601,77.85452766973442L76.90726802632747,-35.55561209752824L76.92668045891556,11.647525379366357L76.94577158227457,159.38722176798515L76.95990918835248,105.44077752787537L76.98071396093307,29.425331428130477L77.03007062861674,105.44077752787537L77.1011989716536,106.66683190786837L77.11182002672476,-12.873579759359364L77.14184458912764,80.30663642972046L77.15532767640566,75.40241452503204L77.22038387003067,163.06538819650146L77.2278959608023,83.37177676441934L77.24054304906772,168.5826372911864L77.26013696186848,139.77033250496288L77.33319613536506,105.44077752787537L77.34936572480812,170.4217210535341L77.36981646221969,144.06152694561L77.41061678413733,134.25308286218842L77.4263341605914,6.130280669397763L77.44252755071811,40.45982961750033L77.5325447113031,106.66683190786837L77.53925947917303,76.01544609974489L77.62950869642343,64.36791633566222L77.6815756669558,26.36019547814792L77.69195276501974,114.02316695725916L77.7108207569697,37.39469366751777L77.80170664250728,94.40627933850554L77.818646779083,53.94644533628886L77.85681712545922,76.01544609974489L77.9132782972073,156.32208252946535L77.9160005003978,112.18408319491147L77.96495850663062,163.06538819650146L78.01310431453449,182.6822758152551L78.03854129516712,103.60169595788584L78.18619776134003,74.17636014503904L78.2009214592524,114.02316695725916L78.22344583122548,64.36791633566222L78.22678685219043,114.02316695725916L78.23804457554878,175.93897234057718L78.26706355906816,14.099642908785057L78.27811897661564,119.54041605194408L78.29175379325183,31.877440188116513L78.44301606299511,170.4217210535341L78.44850509565794,112.18408319491147L78.45618379121498,119.54041605194408L78.5053887295405,-239.08083210388824L78.51597705867168,28.812304238133972L78.58731960786122,25.13414109815491L78.59241295415866,79.08058204972745L78.61703773646232,33.10350333754221L78.64555095545451,34.32955771753521L78.67819656814244,82.75874957442284L78.6949135733091,170.4217210535341L78.73867113016813,36.16863928752474L78.763768951059,22.68202356873621L78.77525873108277,119.54041605194408L78.78816762686814,114.02316695725916L78.80737775364533,69.88516981506345L78.83561131460483,73.56333295504251L78.93999813793317,106.66683190786837L78.96467349668956,112.18408319491147L78.99450765362337,23.908086718161883L79.01038568469195,86.43691709911822L79.03093757500893,-79.6936048550076L79.05623472662522,25.13414109815491L79.07439762332255,105.44077752787537L79.11043780851365,70.49819700505998L79.14129241975822,-35.55561209752824L79.19211877965621,-109.11894505257078L79.26834641916139,105.44077752787537L79.29292955026871,-12.873579759359364L79.31168746405687,85.21086271912522L79.31586150894898,175.93897234057718L79.34227134252511,21.455969188743182L79.3514078299547,119.54041605194408L79.36767857230322,-10.42147099937335L79.41573215255798,-81.53269519442983L79.49749047592236,139.77033250496288L79.54668946407698,83.37177676441934L79.57679435378711,-79.08058643444377L79.60442099731395,119.54041605194408L79.63171740635542,175.93897234057718L79.64237118736658,170.4217210535341L79.65824624334972,-13.486615718788533L79.66813542739916,-4.904217519972071L79.73577697028381,3.0651359499825586L79.77879968103568,54.55947252628539L79.85991538594197,6.130280669397763L79.86894179520974,170.4217210535341L79.8870511403689,98.0844424784846L79.89569673869855,132.4139990998407L79.9175338659317,31.877440188116513L79.95867037250568,119.54041605194408L79.99189315177172,0L80.02563954607767,99.92352843319046L80.08653359515239,28.812304238133972L80.10030824080492,-20.84294199874666L80.1094506784054,69.88516981506345L80.12380249063601,-1.8390903394221767L80.13740160624675,38.6207480475108L80.21960024225834,4.291190329975566L80.30707370478007,11.647525379366357L80.37416188177023,22.068996378739687L80.42179002480508,114.02316695725916L80.46101355143206,190.65163586228425L80.49868110836653,139.77033250496288L80.58394408239585,-10.42147099937335L80.59458893815065,108.50591786257425L80.6299894799691,102.98866438317302L80.64274962148178,84.59783114441237L80.65444765748732,64.98094352565872L80.69772027541735,-44.137992757479374L80.70584523379253,164.90447086267008L80.72424018715527,103.60169595788584L80.73055034340345,58.85066285626095L80.76435028924759,167.35658291119339L80.9323563399266,170.4217210535341L80.94251923183784,-4.904217519972071L80.94588107840097,112.18408319491147L81.02203136568436,120.76647262429529L81.04223517100323,106.66683190786837L81.05793767203001,106.66683190786837L81.0663541887797,68.04607947564128L81.0737829771586,58.85066285626095L81.11900725114651,119.54041605194408L81.13188044590645,19.61688761875365L81.14051711897973,51.49433657630283L81.15650820329556,90.72811181381013L81.19737100200776,51.49433657630283L81.21854468518465,53.33341814629236L81.33171693585896,-43.524974336915534L81.38357862549499,6.130280669397763L81.39219447297012,51.49433657630283L81.52992307898263,58.23763566626445L81.54684536504561,12.260552569362861L81.65257692699922,92.56719338379966L81.71495256863008,175.93897234057718L81.72164353581637,170.4217210535341L81.74092506464444,79.08058204972745L81.76740332518602,22.68202356873621L81.7756770378339,28.812304238133972L81.84097421338069,75.40241452503204L81.860630602976,19.61688761875365L81.87503596674479,23.29505952816538L81.88636211706859,170.4217210535341L81.92124499401801,-2.452108759986055L81.93659345987578,83.37177676441934L81.9539858094405,84.59783114441237L82.0376481874955,114.02316695725916L82.08722203641733,68.04607947564128L82.08978953516423,114.02316695725916L82.11863893881272,150.80483261264612L82.19653560125766,0.6130271899965039L82.218360828149,45.977083096901566L82.33214594642688,57.01158128627142L82.38370715243207,73.56333295504251L82.39705338577919,-15.938724478774589L82.46274029752047,-16.55174289933843L82.54650085339546,109.73197224256725L82.60588653414494,47.8161646668911L82.61446668059459,6.130280669397763L82.69815880950415,114.02316695725916L82.72374751949494,170.4217210535341L82.73690929754392,66.82002509564825L82.75719343017005,156.32208252946535L82.81693612117401,110.95802662256028L82.83109455285012,83.37177676441934L82.86285359007273,143.44849920752395L82.87930878771941,58.23763566626445L82.88691608122556,170.4217210535341L82.93137575825178,65.59397071565522L82.946563569495,134.25308286218842L82.9797833736756,112.18408319491147L82.98905969012151,163.06538819650146L83.0286580775157,137.93124929070473L83.03368002176224,69.88516981506345L83.0405613944176,175.93897234057718L83.07250488693836,98.6974696684811L83.11277266855973,34.32955771753521L83.14421337163876,71.72425138505298L83.16945994680233,-26.973213898711776L83.20794565223669,-118.31436167195112L83.23306727381119,64.36791633566222L83.44307855601677,108.50591786257425L83.51702132989321,85.21086271912522L83.52760073376803,72.33727857504951L83.53280713331272,77.85452766973442L83.58598976089037,170.4217210535341L83.60522666343665,75.40241452503204L83.61806118208567,163.06538819650146L83.64663390278695,-49.042227816316775L83.65378005804772,83.37177676441934L83.69470235846899,106.66683190786837L83.70012296416637,175.93897234057718L83.77616912345886,39.8468024275038L83.80506315338918,36.16863928752474L83.8117065192082,88.88902585910428L83.82441310918271,88.88902585910428L83.84202859015649,-52.10735499686667L83.86326475012791,104.21472314788234L83.8810022096053,119.54041605194408L83.93463407508655,44.751028716908564L83.93870399198777,114.02316695725916L83.97690706430399,119.54041605194408L83.99512053745403,85.21086271912522L84.00326334634194,112.18408319491147L84.01776986301617,52.10736376629933L84.11445419010381,53.33341814629236L84.15394547442168,137.93124929070473L84.16806225490141,73.56333295504251L84.17347691042791,113.4101375749045L84.1830775111883,69.88516981506345L84.21672870275975,63.754889145665686L84.22650185847648,175.93897234057718L84.24316531210496,114.02316695725916L84.24759818943159,106.66683190786837L84.25435163341241,70.49819700505998L84.27185406113892,168.5826372911864L84.28926128613092,81.5326951944298L84.30792697227001,25.13414109815491L84.38228328302456,-13.486615718788533L84.40772621382811,11.647525379366357L84.50500853309205,84.59783114441237L84.55713203024803,107.8928862878614L84.56372481961434,81.5326951944298L84.6017166608633,81.5326951944298L84.6126411746508,61.915807575676155L84.62068283063326,22.68202356873621L84.69296253174085,-9.195416619380302L84.74132552088285,62.528834765672684L84.75129205715412,69.27214262506695L84.82144159707657,170.4217210535341L84.82582389795047,112.18408319491147L84.84533153327305,70.49819700505998L84.86437208017935,11.647525379366357L84.89333156198967,112.18408319491147L84.91100059450162,76.01544609974489L84.95458262131886,-21.45597795817583L85.02066224434009,23.908086718161883L85.0641817943628,69.27214262506695L85.07050385095279,119.54041605194408L85.08980323029358,83.37177676441934L85.10859982019267,175.93897234057718L85.13401895031258,64.36791633566222L85.1595213828252,31.264412998120008L85.17650019551179,73.56333295504251L85.19312199794389,160.00024895798165L85.25225479642978,94.40627933850554L85.26907295450187,119.54041605194408L85.27949765393306,52.72039095629586L85.3402280733078,0.6130271899965039L85.34367917243456,79.08058204972745L85.35029873756996,112.18408319491147L85.36096441892293,119.54041605194408L85.37630693460979,53.33341814629236L85.48033377259816,168.5826372911864L85.57962129945815,112.18408319491147L85.63193222699776,68.04607947564128L85.66606835749822,114.02316695725916L85.6723576881482,114.02316695725916L85.72120561621924,34.94258490753174L85.72947932886711,81.5326951944298L85.7432182734942,20.842941998746678L85.78405727152273,29.425331428130477L85.79667460893363,83.37177676441934L85.834413567919,126.2837217189802L85.86251325003305,112.18408319491147L85.87016516982102,168.5826372911864L85.8818364300575,12.260552569362861L85.90128753875646,50.88130938630633L85.9094928244389,69.88516981506345L85.94669626804254,76.01544609974489L85.9671142795141,11.647525379366357L85.97697073762357,83.37177676441934L85.99720726888242,57.01158128627142L86.02931736618861,87.04994428911475L86.04594809387707,175.93897234057718L86.05722069266271,112.18408319491147L86.10690164466088,112.18408319491147L86.11605598260319,132.4139990998407L86.12544535229634,81.5326951944298L86.20727805279705,112.18408319491147L86.21460568827054,17.164778858767615L86.21897311371718,112.18408319491147L86.35743359075143,27.586249858140945L86.39913833864713,92.56719338379966L86.44219080025354,-23.295050758732714L86.4524369945575,17.77780604876412L86.47888252915908,20.842941998746678L86.4824407313622,106.66683190786837L86.51202498111785,-45.36404713747242L86.52745377428289,56.39855409627492L86.53872339798303,103.60169595788584L86.57437979715053,67.43305228564475L86.59147166308439,64.36791633566222L86.60439245921158,124.44463795663249L86.62400719761054,81.5326951944298L86.64481792036204,61.915807575676155L86.66330807645932,51.49433657630283L86.69092281964438,31.877440188116513L86.73219915523468,-117.08830729195807L86.75177819260819,51.49433657630283L86.76041486568147,62.528834765672684L86.78508724935239,92.56719338379966L86.81169641365393,69.27214262506695L86.94136848825676,62.528834765672684L86.97179766228138,76.01544609974489L87.01682558062933,112.18408319491147L87.05325252692943,92.56719338379966L87.05819116878325,112.18408319491147L87.06619117356935,92.56719338379966L87.08266124664331,81.5326951944298L87.08958129540956,98.0844424784846L87.10425144178377,87.04994428911475L87.12576428470246,-6.743307859394286L87.1569164044924,48.42919185688763L87.16152183677539,92.56719338379966L87.197008656072,101.76261000317999L87.24358361885609,101.76261000317999L87.26417716036944,4.291190329975566L87.32100426762838,51.49433657630283L87.33053644142335,87.04994428911475L87.34406415498317,57.62460847626792L87.3505260405895,48.42919185688763L87.37076257184835,81.5326951944298L87.39727950850083,-28.812304238133954L87.44018321583454,20.842941998746678L87.47196010356988,53.94644533628886L87.48534203794247,87.04994428911475L87.49538592643555,119.54041605194408L87.5048139722396,37.39469366751777L87.51246589202758,107.8928862878614L87.53705794839124,76.01544609974489L87.56495234960899,103.60169595788584L87.57228891033881,92.56719338379966L87.58188356092832,78.46755485973092L87.62590887547825,68.04607947564128L87.64114428808873,-29.425340197563123L87.65886687213884,58.85066285626095L87.66779510358664,20.842941998746678L87.68874565535448,15.325697288778084L87.6971264710787,-12.260561338795526L87.70347530343777,112.18408319491147L87.72701715463614,56.39855409627492L87.74128268938861,-23.295050758732714L87.75766946006983,112.18408319491147L87.80986138419128,28.812304238133972L87.82242517006397,87.04994428911475L87.8777171332286,72.95030576504601L87.88817455859979,-1.2260543799930077L87.89933707922363,92.56719338379966L87.94784882263832,103.60169595788584L87.97233972609655,1.8390815699895313L87.99379604239158,27.586249858140945L88.03978788842664,62.528834765672684L88.12128737935652,57.01158128627142L88.13445808266187,112.18408319491147L88.15202298718292,57.01158128627142L88.17384226390338,-39.84681119693647L88.224109307736,-53.94644533628888L88.24163256106071,45.364055906905065L88.24977834503404,45.977083096901566L88.2550918476551,62.528834765672684L88.27414131981776,92.56719338379966L88.31611977557525,4.291190329975566L88.32832952627892,-9.80845257880947L88.34902422069769,87.04994428911475L88.37511572013024,81.5326951944298L88.4811150397747,4.291190329975566L88.49144453647136,50.26827342687716L88.51700647069306,48.42919185688763L88.52690755508435,76.01544609974489L88.55502508771113,-4.291199099408232L88.5941504365181,17.77780604876412L88.62166997696863,-6.743307859394286L88.63222558015984,-6.743307859394286L88.64650004016863,107.8928862878614L88.65660640545624,112.18408319491147L88.6687715298781,-3.065144719415224L88.68109433382902,76.01544609974489L88.7089917101322,56.39855409627492L88.73220927701608,96.24536090849507L88.74262207610548,90.72811181381013L88.77300364876284,113.4101375749045L88.77690696087862,112.18408319491147L88.7977504095701,107.2798590978649L88.82840569008926,1.2260543799930275L88.89438416020504,-13.486615718788533L89.00342699226906,61.915807575676155L89.03849432451666,69.88516981506345L89.090463117229,115.2492213372522L89.14416638476115,39.2337752375073L89.16837763018668,-4.291199099408232L89.20689011139015,50.88130938630633L89.25140929012542,70.49819700505998L89.25602364766475,112.18408319491147L89.27060751656079,110.95802662256028L89.29028473175428,68.04607947564128L89.33300398378985,-26.360195478147936L89.34757000217316,-76.01544171502854L89.35196122830341,76.01544609974489L89.44901149090191,0L89.45308735797404,112.18408319491147L89.46216731877999,98.0844424784846L89.46946222831349,23.29505952816538L89.4869378802709,17.77780604876412L89.57756195828853,87.04994428911475L89.61121017477453,87.04994428911475L89.68242479528953,-49.042227816316775L89.7040536665409,37.39469366751777L89.71492760387567,-15.32568851934542L89.72176435024922,79.08058204972745L89.73196889335681,56.39855409627492L89.80335309374271,67.43305228564475L89.95135169474284,92.56719338379966L89.99832829406321,98.0844424784846L90.0654105208825,168.5826372911864L90.07397579190487,76.01544609974489L90.09755334412867,81.5326951944298L90.14169468701131,56.39855409627492L90.20109524318806,68.04607947564128L90.3201581630615,12.260552569362861L90.3519439760532,78.46755485973092L90.36158325292452,23.29505952816538L90.36521880734945,92.56719338379966L90.37475693131532,62.528834765672684L90.45017237249155,92.56719338379966L90.47058443379218,75.40241452503204L90.48738771643701,98.0844424784846L90.52143756945928,1.2260543799930275L90.68648341011145,81.5326951944298L90.76870882189213,112.18408319491147L90.77701228539455,98.0844424784846L90.7833432672409,48.42919185688763L90.81379029177825,58.85066285626095L91.00713217018446,143.44849920752395L91.09733676115306,94.40627933850554L91.14470904683884,1.2260543799930275L91.15377115713206,45.364055906905065L91.36467198988841,76.01544609974489L91.37575715829043,36.78166647752127L91.38816326463407,70.49819700505998L91.41195204792513,26.97322266814444L91.45185686912107,56.39855409627492L91.5393571074119,6.743307859394267L91.73778638194463,-12.260561338795526L91.79423565335091,56.39855409627492L91.8222222822177,112.18408319491147L91.8406529366059,94.40627933850554L91.8849787347867,87.04994428911475L91.89639711275957,-21.45597795817583L91.9197336830616,-17.777797279331473L92.47590805819462,112.18408319491147L92.81605255324843,15.325697288778084L92.83646758963451,45.977083096901566L92.8688246190334,45.364055906905065L92.88753790653975,1.8390815699895313L92.89678447213112,102.37563719317649L93.27741690512987,56.39855409627492L93.28874008036821,-18.390833238760642L93.51592355581492,6.743307859394267L93.52627387810976,42.298919956922504L93.53633561711555,81.5326951944298L93.54975622759903,42.298919956922504L93.60262944628947,49.04221904688413L93.87264820210443,112.18408319491147L93.9111279573679,58.85066285626095L93.92603611057844,92.56719338379966L93.94691526029538,69.88516981506345L94.22365175906572,69.88516981506345L94.34178942736294,-6.743307859394286L94.58398815909655,87.04994428911475L94.6186687302351,-12.260561338795526L94.64700939427095,81.5326951944298L94.66189969696876,88.88902585910428L94.67973533426616,98.0844424784846L94.69781492857076,87.04994428911475L94.99005459764248,64.36791633566222L94.99680506653785,92.56719338379966L95.04903269168476,34.32955771753521L95.30036493576245,126.8967489089767L95.33461114442471,98.0844424784846L95.65084785276927,71.11122419505648L95.66537221995623,14.712670098781562L122.69460073711811,-120.76647043193717L122.89572841415772,-102.98867315260566L122.91925538992881,59.463690046257454L122.93853691875688,64.98094352565872L123.01056671268634,-153.86997376947934L123.09654965739554,-69.27213385563431L123.19836303180608,81.5326951944298L123.22149432121178,-21.45597795817583L123.29793319178422,50.26827342687716L123.39815489547681,-17.777797279331473L123.4771374641125,61.302780385679654L218.8692540352797,139.77033250496288L219.0466018542846,139.77033250496288L219.34306614470117,-34.32955771753523L219.3645462616798,36.16863928752474L219.38282816179535,91.95416619380316L219.44063704725409,53.33341814629236L219.4711286980733,-82.14571361499367L219.5247694888109,-68.04607947564125L219.59225930233737,42.298919956922504L219.6233281197346,-183.90833238760635L219.6749845284743,12.260552569362861L219.7914710243445,69.27214262506695L219.8614866854215,81.5326951944298L219.9369051016832,-83.98480395441584L219.95609737794766,66.82002509564825L220.0855344207996,-22.682032338168874L220.2126598222537,44.751028716908564L220.59015354009836,-21.45597795817583L220.7360398304261,5.517253479401259L220.78100824706493,70.49819700505998L220.9079789440754,-39.84681119693647L220.99062086781964,28.812304238133972L221.0358838179185,76.01544609974489L221.18435248242037,-34.32955771753523L221.3102908247783,-131.80097739073966L221.3921622013899,106.05380471787187L221.4949365284021,-18.390833238760642L221.8020545998298,-109.73196347313461L221.92840052889497,14.099642908785057L222.19801467308812,61.302780385679654L222.21625492200727,-87.6629670943949L222.23890127248396,75.40241452503204L222.3108209882516,63.754889145665686L222.33845060686394,-69.88516981506348L222.52571141060193,36.78166647752127L222.58626034976396,109.73197224256725L222.71891048490633,-39.84681119693647L222.74656092911687,-137.3182133312756L222.76705331772473,4.291190329975566L222.78569222809472,44.751028716908564L222.89365807922437,-1.2260543799930077L222.95322226510112,-28.812304238133954L223.13580028433432,131.18794362366862L223.8693790050959,-6.743307859394286L223.95921171038273,106.66683190786837L223.98045084543958,42.298919956922504L224.14873060398043,70.49819700505998L224.31754290281748,92.56719338379966L224.38179284828442,9.808443809376826L224.43070622823544,4.291190329975566L224.45227857286318,66.82002509564825L224.4680971022227,60.68975319568315L224.4896396959959,75.40241452503204L224.7372501081705,64.36791633566222L225.10774344994167,-87.6629670943949L225.134757225865,-34.32955771753523L225.21164235925553,9.808443809376826L225.4048116827054,-131.80097739073966L225.43115606440156,9.808443809376826L225.47283998669906,70.49819700505998L226.09959826423085,-17.777797279331473L226.13656370099812,103.60169595788584L226.20226846325215,75.40241452503204L226.24644550716025,125.67069452898369L226.52989677380052,68.65910666563778L226.84792448358843,-12.260561338795526L226.9378047902425,-34.32955771753523L227.57907850970486,9.808443809376826L227.60727934472436,95.01930652850204L227.94620107965653,103.60169595788584L228.2310655118875,-17.777797279331473L228.25080222879006,93.18022057379619L228.97315297704782,-34.32955771753523L229.66956693031665,-71.11122419505648L230.03535963707031,9.808443809376826L230.08779849328445,15.325697288778084L230.14962671919176,-64.98095229509136L230.4247953479278,51.49433657630283L230.4501043998859,9.808443809376826L230.85493915305383,-23.295050758732714L231.12939376128088,-6.743307859394286L231.1808270386115,9.808443809376826L231.20595758544238,-82.14571361499367L231.23211453675492,15.325697288778084L231.4526843972371,-45.36404713747242L231.6278425533478,15.325697288778084L231.872239873232,-12.260561338795526L231.94493013613226,4.291190329975566L231.96995953005768,34.32955771753521L232.01856052603597,78.46755485973092L232.3141382409872,9.808443809376826L232.5157597822122,20.842941998746678L232.89035279173913,-54.55946375685272L233.00977272186705,-12.260561338795526L233.05156374724098,20.842941998746678L233.07273148024694,34.32955771753521L233.25644003195274,-9.80845257880947L233.28007113571473,-82.14571361499367L233.63832497592765,9.808443809376826L233.75714691387935,56.39855409627492L233.96423071199808,15.325697288778084L234.08242490691893,-1.2260543799930077L234.13284665519518,4.291190329975566L234.32429935433802,15.325697288778084L234.36728933914992,82.14572238442634L234.42446155632155,-61.915807575676176L234.52779222431366,-23.295050758732714L234.5507212079085,20.842941998746678L234.71970011153098,20.842941998746678L234.74536617374358,28.812304238133972L234.77299281727048,-28.812304238133954L234.80091101917182,3.6781631399790626L234.87229224447228,15.325697288778084L234.89440010448175,20.842941998746678L235.02295354695383,9.808443809376826L235.09116928133108,20.842941998746678L235.11000454734102,20.842941998746678L235.15128683310226,15.325697288778084L235.177949548942,-15.32568851934542L235.412472560204,15.325697288778084L235.4639236880474,9.808443809376826L235.4879475030893,70.49819700505998L235.5124324563766,15.325697288778084L235.5841677168461,15.325697288778084L235.765341495745,4.291190329975566L235.8119670349818,4.291190329975566L235.8794032969701,20.842941998746678L236.23898402529557,66.82002509564825L236.44742148729594,20.842941998746678L236.49661155019416,20.842941998746678L236.52120063147242,108.50591786257425L236.5665498590494,-7.356326279958125L236.61616535916755,12.260552569362861L236.85134883940034,4.291190329975566L236.9720331808463,9.808443809376826L237.22813746199242,55.78552690627839L237.27676523373984,-67.43306105507742L237.53404764872573,20.842941998746678L237.62515071550152,15.325697288778084L237.88121632053668,20.842941998746678L237.9740717126449,15.325697288778084L238.2287182019185,20.842941998746678L238.3678034468981,15.325697288778084L238.5933149243196,20.842941998746678L238.6764893883601,-1.2260543799930077L238.7213060756408,20.842941998746678L239.02056694638424,20.842941998746678L239.0427015821628,20.842941998746678L239.40164266711562,3.6781631399790626L239.71760566759843,20.842941998746678L239.73834201321358,20.842941998746678L240.1143541385021,20.842941998746678L240.3741445505258,-3.6781631399790626L240.3956395429318,20.842941998746678L240.44215797909223,20.842941998746678L240.7515668663196,20.842941998746678L241.10495346672963,-6.743307859394286L241.17933060308238,-1.2260543799930077L241.2046575055532,4.291190329975566L241.47449478115547,42.298919956922504L243.2308007779635,-65.59397071565525L244.68573954352658,20.842941998746678L246.84236411378325,20.842941998746678L247.51794354361692,20.842941998746678L247.54266352865514,20.842941998746678L248.30804591292113,20.842941998746678L248.60310298791788,20.842941998746678L248.62562140972,20.842941998746678L248.64756266494408,20.842941998746678L248.67057792601707,45.364055906905065L249.29622649667445,20.842941998746678L249.36330277332283,-1.2260543799930077L250.3932029803991,20.842941998746678L250.41778908659188,20.842941998746678L251.5072505044595,20.842941998746678L251.8066214533647,20.842941998746678L251.83290038318083,20.842941998746678L262.89174522909445,20.842941998746678L262.93817143760583,28.19927704813745L263.06931915459387,20.842941998746678L263.1569235208756,20.842941998746678L263.18611208426586,20.842941998746678L263.21474133159074,45.364055906905065" fill="none"></path></g></g></g></g></g></g><g transform="translate(51, 176)" clip-path="url(#clip_1)"><clipPath id="clip_1"><rect width="278" height="23"></rect></clipPath><g><g><line x1="0" y1="0" x2="0" y2="5" style="visibility: inherit;" fill="rgb(0, 0, 0)" stroke="rgb(204, 204, 204)" stroke-width="1px"></line><line x1="21.420615269587593" y1="0" x2="21.420615269587593" y2="5" style="visibility: inherit;" fill="rgb(0, 0, 0)" stroke="rgb(204, 204, 204)" stroke-width="1px"></line><line x1="42.841230539175186" y1="0" x2="42.841230539175186" y2="5" style="visibility: inherit;" fill="rgb(0, 0, 0)" stroke="rgb(204, 204, 204)" stroke-width="1px"></line><line x1="64.26184580876277" y1="0" x2="64.26184580876277" y2="5" style="visibility: inherit;" fill="rgb(0, 0, 0)" stroke="rgb(204, 204, 204)" stroke-width="1px"></line><line x1="85.68246107835037" y1="0" x2="85.68246107835037" y2="5" style="visibility: inherit;" fill="rgb(0, 0, 0)" stroke="rgb(204, 204, 204)" stroke-width="1px"></line><line x1="107.10307634793796" y1="0" x2="107.10307634793796" y2="5" style="visibility: inherit;" fill="rgb(0, 0, 0)" stroke="rgb(204, 204, 204)" stroke-width="1px"></line><line x1="128.52369161752554" y1="0" x2="128.52369161752554" y2="5" style="visibility: inherit;" fill="rgb(0, 0, 0)" stroke="rgb(204, 204, 204)" stroke-width="1px"></line><line x1="149.94430688711313" y1="0" x2="149.94430688711313" y2="5" style="visibility: inherit;" fill="rgb(0, 0, 0)" stroke="rgb(204, 204, 204)" stroke-width="1px"></line><line x1="171.36492215670074" y1="0" x2="171.36492215670074" y2="5" style="visibility: inherit;" fill="rgb(0, 0, 0)" stroke="rgb(204, 204, 204)" stroke-width="1px"></line><line x1="192.7855374262883" y1="0" x2="192.7855374262883" y2="5" style="visibility: inherit;" fill="rgb(0, 0, 0)" stroke="rgb(204, 204, 204)" stroke-width="1px"></line><line x1="214.20615269587591" y1="0" x2="214.20615269587591" y2="5" style="visibility: inherit;" fill="rgb(0, 0, 0)" stroke="rgb(204, 204, 204)" stroke-width="1px"></line><line x1="235.6267679654635" y1="0" x2="235.6267679654635" y2="5" style="visibility: inherit;" fill="rgb(0, 0, 0)" stroke="rgb(204, 204, 204)" stroke-width="1px"></line><line x1="257.0473832350511" y1="0" x2="257.0473832350511" y2="5" style="visibility: inherit;" fill="rgb(0, 0, 0)" stroke="rgb(204, 204, 204)" stroke-width="1px"></line><line x1="278.4679985046387" y1="0" x2="278.4679985046387" y2="5" style="visibility: inherit;" fill="rgb(0, 0, 0)" stroke="rgb(204, 204, 204)" stroke-width="1px"></line></g><g transform="translate(0, 8)"><text style="text-anchor: middle; visibility: hidden; font-family: Roboto, sans-serif; font-size: 12px; font-weight: 200;" x="0" y="0" dx="0em" dy="0.95em" fill="rgb(33, 33, 33)" stroke="none" stroke-width="1px">-2</text><text style="text-anchor: middle; visibility: inherit; font-family: Roboto, sans-serif; font-size: 12px; font-weight: 200;" x="21.420615269587593" y="0" dx="0em" dy="0.95em" fill="rgb(33, 33, 33)" stroke="none" stroke-width="1px">0</text><text style="text-anchor: middle; visibility: inherit; font-family: Roboto, sans-serif; font-size: 12px; font-weight: 200;" x="42.841230539175186" y="0" dx="0em" dy="0.95em" fill="rgb(33, 33, 33)" stroke="none" stroke-width="1px">2</text><text style="text-anchor: middle; visibility: inherit; font-family: Roboto, sans-serif; font-size: 12px; font-weight: 200;" x="64.26184580876277" y="0" dx="0em" dy="0.95em" fill="rgb(33, 33, 33)" stroke="none" stroke-width="1px">4</text><text style="text-anchor: middle; visibility: inherit; font-family: Roboto, sans-serif; font-size: 12px; font-weight: 200;" x="85.68246107835037" y="0" dx="0em" dy="0.95em" fill="rgb(33, 33, 33)" stroke="none" stroke-width="1px">6</text><text style="text-anchor: middle; visibility: inherit; font-family: Roboto, sans-serif; font-size: 12px; font-weight: 200;" x="107.10307634793796" y="0" dx="0em" dy="0.95em" fill="rgb(33, 33, 33)" stroke="none" stroke-width="1px">8</text><text style="text-anchor: middle; visibility: inherit; font-family: Roboto, sans-serif; font-size: 12px; font-weight: 200;" x="128.52369161752554" y="0" dx="0em" dy="0.95em" fill="rgb(33, 33, 33)" stroke="none" stroke-width="1px">10</text><text style="text-anchor: middle; visibility: inherit; font-family: Roboto, sans-serif; font-size: 12px; font-weight: 200;" x="149.94430688711313" y="0" dx="0em" dy="0.95em" fill="rgb(33, 33, 33)" stroke="none" stroke-width="1px">12</text><text style="text-anchor: middle; visibility: inherit; font-family: Roboto, sans-serif; font-size: 12px; font-weight: 200;" x="171.36492215670074" y="0" dx="0em" dy="0.95em" fill="rgb(33, 33, 33)" stroke="none" stroke-width="1px">14</text><text style="text-anchor: middle; visibility: inherit; font-family: Roboto, sans-serif; font-size: 12px; font-weight: 200;" x="192.7855374262883" y="0" dx="0em" dy="0.95em" fill="rgb(33, 33, 33)" stroke="none" stroke-width="1px">16</text><text style="text-anchor: middle; visibility: inherit; font-family: Roboto, sans-serif; font-size: 12px; font-weight: 200;" x="214.20615269587591" y="0" dx="0em" dy="0.95em" fill="rgb(33, 33, 33)" stroke="none" stroke-width="1px">18</text><text style="text-anchor: middle; visibility: inherit; font-family: Roboto, sans-serif; font-size: 12px; font-weight: 200;" x="235.6267679654635" y="0" dx="0em" dy="0.95em" fill="rgb(33, 33, 33)" stroke="none" stroke-width="1px">20</text><text style="text-anchor: middle; visibility: inherit; font-family: Roboto, sans-serif; font-size: 12px; font-weight: 200;" x="257.0473832350511" y="0" dx="0em" dy="0.95em" fill="rgb(33, 33, 33)" stroke="none" stroke-width="1px">22</text><text style="text-anchor: middle; visibility: hidden; font-family: Roboto, sans-serif; font-size: 12px; font-weight: 200;" x="278.4679985046387" y="0" dx="0em" dy="0.95em" fill="rgb(33, 33, 33)" stroke="none" stroke-width="1px">24</text></g><line x1="0" y1="0" x2="278.4679985046387" y2="0" fill="rgb(0, 0, 0)" stroke="rgb(204, 204, 204)" stroke-width="1px"></line></g></g></g></g></svg>