<svg viewBox="0 0 330 200" xmlns="http://www.w3.org/2000/svg"><g><g><g><g><g><line x1="30.766000747680664" y1="176.55199909210205" x2="25.766000747680664" y2="176.55199909210205" style="visibility: inherit;" fill="rgb(0, 0, 0)" stroke="rgb(204, 204, 204)" stroke-width="1px"></line><line x1="30.766000747680664" y1="162.97107608501727" x2="25.766000747680664" y2="162.97107608501727" style="visibility: inherit;" fill="rgb(0, 0, 0)" stroke="rgb(204, 204, 204)" stroke-width="1px"></line><line x1="30.766000747680664" y1="149.3901530779325" x2="25.766000747680664" y2="149.3901530779325" style="visibility: inherit;" fill="rgb(0, 0, 0)" stroke="rgb(204, 204, 204)" stroke-width="1px"></line><line x1="30.766000747680664" y1="135.80923007084772" x2="25.766000747680664" y2="135.80923007084772" style="visibility: inherit;" fill="rgb(0, 0, 0)" stroke="rgb(204, 204, 204)" stroke-width="1px"></line><line x1="30.766000747680664" y1="122.22830706376295" x2="25.766000747680664" y2="122.22830706376295" style="visibility: inherit;" fill="rgb(0, 0, 0)" stroke="rgb(204, 204, 204)" stroke-width="1px"></line><line x1="30.766000747680664" y1="108.64738405667819" x2="25.766000747680664" y2="108.64738405667819" style="visibility: inherit;" fill="rgb(0, 0, 0)" stroke="rgb(204, 204, 204)" stroke-width="1px"></line><line x1="30.766000747680664" y1="95.06646104959341" x2="25.766000747680664" y2="95.06646104959341" style="visibility: inherit;" fill="rgb(0, 0, 0)" stroke="rgb(204, 204, 204)" stroke-width="1px"></line><line x1="30.766000747680664" y1="81.48553804250864" x2="25.766000747680664" y2="81.48553804250864" style="visibility: inherit;" fill="rgb(0, 0, 0)" stroke="rgb(204, 204, 204)" stroke-width="1px"></line><line x1="30.766000747680664" y1="67.90461503542386" x2="25.766000747680664" y2="67.90461503542386" style="visibility: inherit;" fill="rgb(0, 0, 0)" stroke="rgb(204, 204, 204)" stroke-width="1px"></line><line x1="30.766000747680664" y1="54.323692028339096" x2="25.766000747680664" y2="54.323692028339096" style="visibility: inherit;" fill="rgb(0, 0, 0)" stroke="rgb(204, 204, 204)" stroke-width="1px"></line><line x1="30.766000747680664" y1="40.74276902125431" x2="25.766000747680664" y2="40.74276902125431" style="visibility: inherit;" fill="rgb(0, 0, 0)" stroke="rgb(204, 204, 204)" stroke-width="1px"></line><line x1="30.766000747680664" y1="27.161846014169548" x2="25.766000747680664" y2="27.161846014169548" style="visibility: inherit;" fill="rgb(0, 0, 0)" stroke="rgb(204, 204, 204)" stroke-width="1px"></line><line x1="30.766000747680664" y1="13.580923007084763" x2="25.766000747680664" y2="13.580923007084763" style="visibility: inherit;" fill="rgb(0, 0, 0)" stroke="rgb(204, 204, 204)" stroke-width="1px"></line><line x1="30.766000747680664" y1="0" x2="25.766000747680664" y2="0" style="visibility: inherit;" fill="rgb(0, 0, 0)" stroke="rgb(204, 204, 204)" stroke-width="1px"></line></g><g transform="translate(20.766000747680664, 0)"><text style="text-anchor: end; visibility: hidden; font-family: Roboto, sans-serif; font-size: 12px; font-weight: 200;" x="0" y="176.55199909210205" dx="0em" dy="0.3em" fill="rgb(33, 33, 33)" stroke="none" stroke-width="1px">16</text><text style="text-anchor: end; visibility: inherit; font-family: Roboto, sans-serif; font-size: 12px; font-weight: 200;" x="0" y="162.97107608501727" dx="0em" dy="0.3em" fill="rgb(33, 33, 33)" stroke="none" stroke-width="1px">18</text><text style="text-anchor: end; visibility: hidden; font-family: Roboto, sans-serif; font-size: 12px; font-weight: 200;" x="0" y="149.3901530779325" dx="0em" dy="0.3em" fill="rgb(33, 33, 33)" stroke="none" stroke-width="1px">20</text><text style="text-anchor: end; visibility: inherit; font-family: Roboto, sans-serif; font-size: 12px; font-weight: 200;" x="0" y="135.80923007084772" dx="0em" dy="0.3em" fill="rgb(33, 33, 33)" stroke="none" stroke-width="1px">22</text><text style="text-anchor: end; visibility: hidden; font-family: Roboto, sans-serif; font-size: 12px; font-weight: 200;" x="0" y="122.22830706376295" dx="0em" dy="0.3em" fill="rgb(33, 33, 33)" stroke="none" stroke-width="1px">24</text><text style="text-anchor: end; visibility: inherit; font-family: Roboto, sans-serif; font-size: 12px; font-weight: 200;" x="0" y="108.64738405667819" dx="0em" dy="0.3em" fill="rgb(33, 33, 33)" stroke="none" stroke-width="1px">26</text><text style="text-anchor: end; visibility: hidden; font-family: Roboto, sans-serif; font-size: 12px; font-weight: 200;" x="0" y="95.06646104959341" dx="0em" dy="0.3em" fill="rgb(33, 33, 33)" stroke="none" stroke-width="1px">28</text><text style="text-anchor: end; visibility: inherit; font-family: Roboto, sans-serif; font-size: 12px; font-weight: 200;" x="0" y="81.48553804250864" dx="0em" dy="0.3em" fill="rgb(33, 33, 33)" stroke="none" stroke-width="1px">30</text><text style="text-anchor: end; visibility: hidden; font-family: Roboto, sans-serif; font-size: 12px; font-weight: 200;" x="0" y="67.90461503542386" dx="0em" dy="0.3em" fill="rgb(33, 33, 33)" stroke="none" stroke-width="1px">32</text><text style="text-anchor: end; visibility: inherit; font-family: Roboto, sans-serif; font-size: 12px; font-weight: 200;" x="0" y="54.323692028339096" dx="0em" dy="0.3em" fill="rgb(33, 33, 33)" stroke="none" stroke-width="1px">34</text><text style="text-anchor: end; visibility: hidden; font-family: Roboto, sans-serif; font-size: 12px; font-weight: 200;" x="0" y="40.74276902125431" dx="0em" dy="0.3em" fill="rgb(33, 33, 33)" stroke="none" stroke-width="1px">36</text><text style="text-anchor: end; visibility: inherit; font-family: Roboto, sans-serif; font-size: 12px; font-weight: 200;" x="0" y="27.161846014169548" dx="0em" dy="0.3em" fill="rgb(33, 33, 33)" stroke="none" stroke-width="1px">38</text><text style="text-anchor: end; visibility: hidden; font-family: Roboto, sans-serif; font-size: 12px; font-weight: 200;" x="0" y="13.580923007084763" dx="0em" dy="0.3em" fill="rgb(33, 33, 33)" stroke="none" stroke-width="1px">40</text><text style="text-anchor: end; visibility: hidden; font-family: Roboto, sans-serif; font-size: 12px; font-weight: 200;" x="0" y="0" dx="0em" dy="0.3em" fill="rgb(33, 33, 33)" stroke="none" stroke-width="1px">42</text></g><line x1="30.766000747680664" y1="0" x2="30.766000747680664" y2="176.55199909210205" fill="rgb(0, 0, 0)" stroke="rgb(204, 204, 204)" stroke-width="1px"></line></g></g><g transform="translate(30, 0)" clip-path="url(#clip_0)"><clipPath id="clip_0"><rect width="299" height="176"></rect></clipPath><g><g><g><line x1="0" y1="0" x2="0" y2="176.55199909210205" fill="rgb(0, 0, 0)" stroke="rgb(66, 66, 66)" stroke-width="1px" opacity="0.25"></line><line x1="33.24822213914659" y1="0" x2="33.24822213914659" y2="176.55199909210205" fill="rgb(0, 0, 0)" stroke="rgb(66, 66, 66)" stroke-width="1px" opacity="0.25"></line><line x1="66.49644427829318" y1="0" x2="66.49644427829318" y2="176.55199909210205" fill="rgb(0, 0, 0)" stroke="rgb(66, 66, 66)" stroke-width="1px" opacity="0.25"></line><line x1="99.74466641743977" y1="0" x2="99.74466641743977" y2="176.55199909210205" fill="rgb(0, 0, 0)" stroke="rgb(66, 66, 66)" stroke-width="1px" opacity="0.25"></line><line x1="132.99288855658637" y1="0" x2="132.99288855658637" y2="176.55199909210205" fill="rgb(0, 0, 0)" stroke="rgb(66, 66, 66)" stroke-width="1px" opacity="0.25"></line><line x1="166.24111069573297" y1="0" x2="166.24111069573297" y2="176.55199909210205" fill="rgb(0, 0, 0)" stroke="rgb(66, 66, 66)" stroke-width="1px" opacity="0.25"></line><line x1="199.48933283487955" y1="0" x2="199.48933283487955" y2="176.55199909210205" fill="rgb(0, 0, 0)" stroke="rgb(66, 66, 66)" stroke-width="1px" opacity="0.25"></line><line x1="232.73755497402615" y1="0" x2="232.73755497402615" y2="176.55199909210205" fill="rgb(0, 0, 0)" stroke="rgb(66, 66, 66)" stroke-width="1px" opacity="0.25"></line><line x1="265.98577711317273" y1="0" x2="265.98577711317273" y2="176.55199909210205" fill="rgb(0, 0, 0)" stroke="rgb(66, 66, 66)" stroke-width="1px" opacity="0.25"></line><line x1="299.23399925231934" y1="0" x2="299.23399925231934" y2="176.55199909210205" fill="rgb(0, 0, 0)" stroke="rgb(66, 66, 66)" stroke-width="1px" opacity="0.25"></line></g><g><line x1="0" y1="176.55199909210205" x2="299.23399925231934" y2="176.55199909210205" fill="rgb(0, 0, 0)" stroke="rgb(66, 66, 66)" stroke-width="1px" opacity="0.25"></line><line x1="0" y1="162.97107608501727" x2="299.23399925231934" y2="162.97107608501727" fill="rgb(0, 0, 0)" stroke="rgb(66, 66, 66)" stroke-width="1px" opacity="0.25"></line><line x1="0" y1="149.3901530779325" x2="299.23399925231934" y2="149.3901530779325" fill="rgb(0, 0, 0)" stroke="rgb(66, 66, 66)" stroke-width="1px" opacity="0.25"></line><line x1="0" y1="135.80923007084772" x2="299.23399925231934" y2="135.80923007084772" fill="rgb(0, 0, 0)" stroke="rgb(66, 66, 66)" stroke-width="1px" opacity="0.25"></line><line x1="0" y1="122.22830706376295" x2="299.23399925231934" y2="122.22830706376295" fill="rgb(0, 0, 0)" stroke="rgb(66, 66, 66)" stroke-width="1px" opacity="0.25"></line><line x1="0" y1="108.64738405667819" x2="299.23399925231934" y2="108.64738405667819" fill="rgb(0, 0, 0)" stroke="rgb(66, 66, 66)" stroke-width="1px" opacity="0.25"></line><line x1="0" y1="95.06646104959341" x2="299.23399925231934" y2="95.06646104959341" fill="rgb(0, 0, 0)" stroke="rgb(66, 66, 66)" stroke-width="1px" opacity="0.25"></line><line x1="0" y1="81.48553804250864" x2="299.23399925231934" y2="81.48553804250864" fill="rgb(0, 0, 0)" stroke="rgb(66, 66, 66)" stroke-width="1px" opacity="0.25"></line><line x1="0" y1="67.90461503542386" x2="299.23399925231934" y2="67.90461503542386" fill="rgb(0, 0, 0)" stroke="rgb(66, 66, 66)" stroke-width="1px" opacity="0.25"></line><line x1="0" y1="54.323692028339096" x2="299.23399925231934" y2="54.323692028339096" fill="rgb(0, 0, 0)" stroke="rgb(66, 66, 66)" stroke-width="1px" opacity="0.25"></line><line x1="0" y1="40.74276902125431" x2="299.23399925231934" y2="40.74276902125431" fill="rgb(0, 0, 0)" stroke="rgb(66, 66, 66)" stroke-width="1px" opacity="0.25"></line><line x1="0" y1="27.161846014169548" x2="299.23399925231934" y2="27.161846014169548" fill="rgb(0, 0, 0)" stroke="rgb(66, 66, 66)" stroke-width="1px" opacity="0.25"></line><line x1="0" y1="13.580923007084763" x2="299.23399925231934" y2="13.580923007084763" fill="rgb(0, 0, 0)" stroke="rgb(66, 66, 66)" stroke-width="1px" opacity="0.25"></line><line x1="0" y1="0" x2="299.23399925231934" y2="0" fill="rgb(0, 0, 0)" stroke="rgb(66, 66, 66)" stroke-width="1px" opacity="0.25"></line></g></g></g><g><g><line x1="0" y1="285.1993831487802" x2="299.23399925231934" y2="285.1993831487802" fill="rgb(0, 0, 0)" stroke="rgb(153, 153, 153)" stroke-width="1.5px"></line></g></g><g><g><line x1="33.24822213914659" y1="0" x2="33.24822213914659" y2="176.55199909210205" fill="rgb(0, 0, 0)" stroke="rgb(153, 153, 153)" stroke-width="1.5px"></line></g></g><g><g><g><g><g><path style="fill: none;" stroke="rgb(255, 112, 67)" stroke-width="2px" d="M33.56408024946848,-107.62880446972486L33.96305891513825,22.148281858314576L34.012931248346966,66.44368417220497L34.19579647011227,88.13712873458879L34.44515813615587,103.88506074238553L34.49503046936459,66.44376028797693L34.82751269075606,79.61516002701806L33.347966805564035,89.76563082122311L33.39783913877275,66.12958054488269L33.547456138398914,77.11639883046195L34.578151024712454,85.05421109106274L34.66127158006032,91.3916776417869L35.01037791252136,96.71307954008319L35.093498467869225,101.382505016687L35.20986724535624,84.36872749576217L35.30961191177368,90.69297642231295L35.89145579920875,96.00744929970304L35.92470402134789,67.70387076468045L36.05769690990448,73.28115669663859L36.539796130922106,55.75815397069111L36.87227835231357,61.659685199741105L37.76998035007053,67.84174306387493L37.7866044611401,74.31652807942424L38.11908668253157,80.78080645013364L38.41832068178389,84.75696746507373L38.46819301499261,88.71116182346408L38.48481712606218,81.31146172197931L38.65105823675792,85.54533531549606L39.68175312307146,88.74109304753298L40.130604121949936,91.71062537931404L40.396589899063116,95.10935019867254L40.51295867655013,97.9862037871827L40.529582787619695,100.2578678768189L41.078178452915616,91.63086094303996L41.31091600788964,85.09228057084951L41.44390889644623,79.76027747446432L41.52702945179409,83.39283050929393L41.56027767393324,87.97359075002575L41.759767006768115,91.1809256376092L41.92600811746385,95.85870442713507L42.6408448934555,98.68187698813529L42.773837782012095,105.33368992905434L42.90683067056868,100.18246670224225L43.33905755837758,108.50163602357811L43.488674558003744,109.95467338456422L43.55517100228204,112.09200443339843L43.58841922442118,97.24787638289868L43.8211567793952,99.97349767722012L43.85440500153435,102.04360610733947L43.93752555688223,104.30301507264102L43.970773779021364,107.3103121922434L44.10376666757796,109.0267363151509L44.203511333995394,111.02174677686895L44.22013544506497,112.92782729528237L44.66898644394345,114.46171931377373L45.8825465520223,116.14044162753031L46.43114221731822,121.08525369182846L46.481014550526936,122.57628502577109L46.76362443870968,123.54055837114633L46.91324143833584,124.8773201063685L46.92986554940541,126.20719913831591L47.029610215822856,118.3855504632184L47.04623432689243,120.26356947967624L47.12935488224029,110.4986086366925L47.428588881492615,105.00990273168021L47.47846121470134,99.24361609592381L47.628078214327495,102.47112826092977L48.44265965673659,104.52455040633004L48.492531989945306,106.05798068145116L48.59227665636274,107.5328385015865L48.692021322780185,109.38913512389226L48.77514187812805,111.22139866471832L48.94138298882379,114.19586160071212L49.041127655241226,116.10387932006297L49.12424821058909,117.64662290496794L49.988701986206905,119.87871841980711L50.071822541554766,120.812817151393L50.08844665262434,121.78043782549152L50.387680651876664,123.78790032215512L50.60379409578111,117.80974584940596L50.819907539685566,119.267898258102L51.451623760329355,120.25258355678722L51.7342336485121,121.20252487098297L52.06671586990356,123.49915944392384L52.282829313808016,124.71338214127931L52.648559757338624,125.92930948384775L52.69843209054735,127.10312668859257L52.93116964552138,129.57055340859955L52.997666089799665,119.59103426638683L53.79562342113919,120.5030776703623L53.895368087556626,124.14384314099122L53.9119921986262,127.14056411339017L54.27772264215681,128.26105252171592L54.47721197499169,129.34379299744157L54.643453085687426,130.15296259162915L55.14217641777463,130.71978141772644L55.325041639539926,131.69751991358407L55.45803452809651,125.94856279062462L55.55777919451396,126.68806317760759L56.0897507487403,127.36035196821844L56.1562471930186,128.2026999340784L56.57184996975793,129.76376714986168L56.8378357468711,130.357975858096L56.854459857940675,131.0178338021664L57.10382152398427,131.65618439737727L57.170317968262566,132.21014581865197L57.452927856445314,133.1486615504385L58.03477174388038,134.0568082078008L58.16776463243696,134.5551972243561L58.50024685382843,135.52309987989742L58.73298440880245,135.95376011484285L58.88260140842861,138.224452890653L58.98234607484605,138.5704987929436L59.065466630193924,139.25238465443164L59.181835407680936,139.91252404141272L59.3314524073071,132.10545991046556L59.56418996228113,133.03746340975732L59.59743818442026,133.98179638562382L59.64731051762899,127.22562419995644L59.79692751725515,127.97094721177677L60.279026738272776,128.58826464973802L60.37877140469021,129.62459192303032L60.77775007035997,118.58990006824844L61.12685640282101,119.49385869395066L61.426090402073335,110.40036824924047L61.57570740169949,112.04343761222151L61.79182084560394,113.18774766624826L61.84169317881266,114.9824479256036L61.97468606736925,116.01459830234452L62.63965051015219,117.07686410164992L62.92226039833493,118.41737159563608L63.088501509030664,119.757658590537L63.138373842239375,120.64164659193627L63.47085606363085,113.29259863926194L63.73684184074402,114.78705335513473L64.03607583999634,116.23520479953038L64.23556517283122,117.3074882794068L64.51817506101396,118.67749942871546L64.6179197274314,113.31809832738611L65.01689839310116,114.37437019350345L65.23301183700562,115.50132940753257L65.28288417021433,116.92387172552361L65.2995082812839,118.30261096914471L65.43250116984049,119.32950637433213L65.49899761411879,120.22172824781218L65.6153663916058,125.37400692723259L66.4299478340149,126.98880783646736L66.49644427829318,128.12150210743695L66.61281305578021,128.66349880141442L66.76243005540636,130.65041330532316L67.12816049893696,131.17716084779332L67.19465694321526,131.7906502539522L67.32764983177185,132.36481213883903L67.46064272032844,132.88030463603448L67.52713916460672,117.83063474925594L67.8596213859982,118.78566945862218L67.94274194134607,120.12243161614464L67.95936605241565,121.41842356785253L68.04248660776351,122.70570813900649L68.24197594059838,129.03453899313394L68.2918482738071,129.64977081006543L68.37496882915497,130.6361352372339L68.69082693947686,131.59248636709856L68.95681271659004,132.3351578185297L69.12305382728577,138.12024140093234L69.32254316012065,138.41950197822246L69.75477004792955,139.30411458426047L69.90438704755572,139.75197968536793L70.48623093499077,140.43213506564342L70.50285504606035,141.09165078087236L70.5361032681995,141.46487567712242L71.26756415526071,135.96948976226855L71.4005570438173,136.37419245479825L71.55017404344346,137.7084155907884L71.58342226558261,143.8025508633229L71.66654282093047,144.25751522579222L72.08214559766982,136.53331881224682L72.09876970873938,137.20720133904297L72.26501081943512,139.4155815386079L72.29825904157427,139.87971961459058L72.38137959692213,140.57526580615917L72.61411715189615,141.24977915581937L72.7138618183136,141.88345147425207L72.86347881793975,132.274644152719L73.11284048398336,133.2806147347202L73.17933692826165,134.15398221198683L73.2125851504008,134.96008939447944L73.62818792714013,136.4163063599808L73.99391837067074,136.82719213320289L74.09366303708818,137.59348695980322L74.37627292527092,138.09146799150957L74.47601759168836,138.39054852095296L74.90824447949728,138.68060549392328L75.29059903409747,139.02319339548754L75.40696781158448,133.1053468812159L75.49008836693234,133.59514211655565L75.70620181083679,134.3560770452029L75.8225705883238,135.11449277505474L76.321293920411,135.58460141470235L76.55403147538503,130.37467077852907L77.13587536282009,131.74261962989598L77.15249947388968,126.59785488475956L77.16912358495924,118.28067880365236L78.51567658159468,124.17601113921204L78.66529358122084,124.95431817978314L78.814910580847,125.91328479606422L78.91465524726445,127.05766636921089L79.3136339129342,127.6880151707416L80.09496713320414,128.34020045727883L80.22796002176074,128.9727538146225L80.82642802026537,129.54545920121203L81.09241379737854,130.52939999429685L81.14228613058727,131.48373118897464L81.27527901914385,131.98091487378122L81.32515135235256,132.50394095850845L81.72413001802234,123.48456368278562L81.79062646230061,124.22198196848858L82.28934979438782,124.99841327204524L82.671704348988,125.69029963261553L82.9210660150316,128.7477640660494L83.22030001428392,129.36777526131078L83.32004468070136,130.30565947369004L83.58603045781453,130.87883754146046L83.88526445706685,131.4347822091228L83.90188856813643,131.97401273153434L84.46710834450192,132.49703265244628L84.63334945519765,133.3917714485507L84.68322178840637,134.0760962469285L84.69984589947595,134.59711901151852L84.7330941216151,135.1024822817078L84.74971823268466,135.55187914400267L85.16532100942399,136.35476860189485L85.71391667471991,136.78693071271258L86.0962712293201,137.12455549095222L86.37888111750286,132.07999289968734L86.89422856065961,132.98703904043896L87.3430795595381,133.56103846690112L87.42620011488597,133.9954777271315L87.79193055841657,134.84495981247275L88.10778866873848,135.24083740013327L88.14103689087763,135.62482300540432L88.35715033478206,136.4253427889617L88.62313611189525,139.54595710002258L89.10523533291286,139.80069085085816L89.1551076661216,140.47581861447355L89.57071044286093,140.70263205653023L90.00293733066982,140.96339857393525L90.28554721885257,141.3997722827302L90.61802944024404,142.0574312538043L90.91726343949637,142.76667578639524L90.95051166163552,143.93357900552874L90.98375988377465,144.48458809980846L91.08350455019209,145.01905180589003L91.54897966014015,145.10948139541992L91.78171721511417,145.17681605999854L92.71266743501027,146.28149639914238L92.77916387928856,146.8842808706611L92.91215676784515,137.59521660025524L92.96202910105387,137.92881828919423L93.47737654421064,130.47789443297813L93.61036943276724,132.2885553705673L93.82648287667168,132.80177889225376L93.90960343201955,133.66640182476237L94.17558920913272,134.13826626141983L94.25870976448059,134.59596578493893L94.29195798661974,135.0908697652223L94.45819909731547,136.1414840081148L94.52469554159376,136.64094334209238L95.00679476261139,137.02352539408668L95.20628409544626,137.35386988008563L96.07073787106407,129.88021698078285L96.18710664855108,130.48603937296187L96.25360309282938,131.460829032534L96.43646831459469,132.50824200788767L96.53621298101214,133.2593290581963L97.00168809096019,133.7026098640092L97.4339149787691,134.1733381464564L97.63340431160397,135.0170761391292L97.81626953336928,135.7743650516365L97.86614186657799,125.00700550531728L98.81371619754367,125.79976598512135L98.89683675289155,129.8083877013617L98.9134608639611,131.0479488238418L99.07970197465686,124.0290166013686L100.2932620827357,125.1974767934247L100.476127304501,126.29012181564761L100.49275141557057,127.37035156683399L100.52599963770972,128.4996623145461L100.60912019305758,129.0857222124573L100.62574430412717,129.65419510599423L101.0413470808665,130.36860327638237L101.12446763621436,132.0395337038792L101.17433996942307,132.9676034843606L101.30733285797967,126.05438959221878L101.63981507937113,126.75455016845673L101.68968741257986,127.87173863874102L101.70631152364943,128.6803572609683L101.95567318969302,121.3356007311719L102.22165896680619,122.15695688937714L102.32140363322364,123.2694576304841L102.5375170771281,124.01241306109131L102.57076529926724,124.73307524856182L102.7868787431717,125.96182132019162L103.4019708527459,127.05183126275791L103.80094951841566,121.41651690390763L103.91731829590267,122.62251877352878L104.01706296232011,123.38487111178712L104.41604162798987,124.18546850262213L104.4659139611986,125.32875872714139L105.44673651430341,126.31550664358411L105.72934640248617,120.30509793298594L105.74597051355573,121.5647997982303L106.0784527349472,122.39962081181862L106.12832506815593,123.16864783949642L106.27794206778209,124.13870143245467L106.87641006628672,125.24263158770293L106.92628239949545,126.3134395288131L107.19226817660862,127.02615668985693L107.22551639874776,128.2064323429174L107.70761561976539,128.8827264343174L108.17309072971344,122.39815424564512L108.30608361827004,123.59503628769603L108.37258006254832,124.49116599964321L108.50557295110491,125.6761816443974L108.6884381728702,126.38763651147835L109.12066506067912,127.11849053012861L109.20378561602699,128.01076786965467L109.46977139314016,128.6521788203443L109.73575717025334,119.4854596813353L109.86875005880991,112.93657721639863L110.01836705843607,114.09134678949258L110.16798405806223,115.10960936564024L110.35084927982754,116.09732162287192L110.36747339089712,117.09614469485606L110.56696272373199,114.63229573559893L110.60021094587114,116.06213903985655L110.65008327907985,117.90745613077914L111.23192716651494,119.23903826735373L111.43141649934981,115.26449467772561L111.7472746096717,116.28829698383635L112.12962916427189,117.28138329675686L112.46211138566336,103.05735306074776L113.12707582844628,104.488121507318L113.26006871700287,106.27321739394387L113.40968571662903,107.95382758216482L113.45955804983774,109.58401675258547L113.49280627197689,110.88009106317075L114.34063593652513,111.99467777566235L114.39050826973386,114.31850981774755L114.72299049112532,108.5562957285615L114.75623871326447,102.32524330606249L114.77286282433403,104.55209510907956L114.88923160182104,105.8972656353527L115.18846560107336,109.89115788200064L115.65394071102142,111.09652347092012L115.98642293241289,112.30646998940944L116.01967115455204,105.60642789653994L116.11941582096946,107.16442505325652L116.63476326412625,108.53307821408814L116.917373152309,109.75881165436655L117.21660715156132,110.94777183882877L117.34960004011789,112.0806902455249L117.86494748327468,113.58705413069157L118.31379848215316,115.00748253476932L118.69615303675333,116.4464117072374L119.17825225777096,117.43473818328286L119.36111747953628,118.78047565936785L119.62710325664945,119.69877842661535L119.85984081162347,120.58953137535458L120.2089471440845,121.82025048500849L120.87391158686744,123.03441880810315L121.23964203039806,123.886215053602L121.32276258574592,124.61059869984942L121.93785469532013,125.35399372285934L122.12071991708542,126.075086399226L122.22046458350287,127.14123448909005L122.4532021384769,127.8087089234296L122.48645036061605,128.8432188143814L123.01842191484239,129.4800044772859L123.41740058051215,130.13842912447708L123.61688991334702,130.67524281478393L123.65013813548617,131.3181812711714L123.74988280190362,131.9214596006491L123.9493721347385,132.83258421740268L124.36497491147783,121.94161909142157L124.83045002142589,122.76508156062366L124.86369824356504,123.56383977457504L124.93019468784331,124.56272184217782L125.17955635388692,125.26680688784054L125.86114490773943,126.35719959996621L125.91101724094814,127.00744965335622L126.50948523945277,127.72986393046463L126.79209512763553,128.3389335348612L126.84196746084424,129.19456068076073L127.00820857154,122.98616321142077L127.3074425707923,123.77828748251082L127.32406668186188,124.6688768246361L127.60667657004463,125.74664873597496L127.65654890325334,126.84301587356143L128.22176867961883,127.90649165545979L128.25501690175798,115.87994130474941L128.37138567924498,116.8852524945173L128.82023667812348,107.74596414142935L128.96985367774963,109.361981890504L129.31896001021067,102.97445824901611L129.71793867588042,96.951719169354L129.8010592312283,98.91193651301846L129.90080389764574,100.32443174790983L130.3496548965242,102.22420992510338L130.6821371179157,104.10773701004815L130.76525767326356,98.37694687751771L131.01461933930716,100.29440609421098L131.097739894655,102.1543411323631L131.51334267139435,92.37730768721245L131.81257667064668,94.1284416434554L131.87907311492498,85.61076029271094L131.96219367027282,87.6667481870036L132.228179447386,89.49808428345025L132.26142766952515,91.29485149777383L132.52741344663832,93.03771539127294L132.56066166877747,94.72829308156211L132.66040633519492,96.32741014062957L132.69365455733404,97.87855344067242L132.9263921123081,99.42390523380932L132.99288855658637,101.53403924290353L133.37524311118656,98.42689687102873L133.5248601108127,99.95579799210287L133.8407182211346,101.84626045463521L134.0235834428999,103.27258024835909L134.05683166503906,97.77056834256494L134.1565763314565,99.2784159591727L134.37268977536095,100.78177097308779L134.67192377461328,102.6067106171504L135.32026410632665,104.01021643866571L135.70261866092682,105.37161693496664L135.76911510520512,106.69217527470835L135.7857392162747,107.97311673096036L135.9021079937617,109.21562981810517L136.18471788194447,103.1686435148966L136.36758310370973,104.5145479124054L136.55044832547506,106.24787483759515L136.66681710296206,108.03105887224594L136.7665617693795,109.53666161936131L137.16554043504928,110.69152498457308L138.0798665438758,111.85248533481074L138.1463629881541,115.81024281825098L138.74483098665874,116.8380128438912L138.7614550977283,117.77383523546688L138.8279515420066,118.68158288975349L139.16043376339806,120.97791101030478L139.17705787446764,121.83027919422418L139.1936819855372,122.65707627814226L139.32667487409378,123.88686898606021L140.05813576115503,125.14088189721461L140.17450453864203,125.88873221092462L140.22437687185075,126.55303252947826L140.54023498217265,127.19740380201132L141.43793697992962,127.82244390205956L141.58755397955576,128.73430379350745L141.62080220169491,122.2138037950811L141.6872986459732,123.0902089706728L141.78704331239064,123.83846494833182L141.83691564559936,124.58464468995781L141.9532844230864,125.28806752919121L142.08627731164296,126.3981871074825L142.13614964485168,127.4750030521002L142.33563897768656,128.58062890205784L142.78448997656506,129.20491502963895L142.85098642084333,129.81047254961643L143.03385164260862,130.58120581567607L143.21671686437395,131.34918853033776L144.3471564171049,124.67894323376032L144.57989397207896,125.37953699234359L144.71288686063554,126.20171283879777L144.94562441560956,126.8973664081871L144.96224852667916,127.65363585057501L145.39447541448806,128.63167407642814L145.62721296946208,129.66185662624275L146.04281574620143,130.25370579261065L146.52491496721902,131.19448439758924L146.57478730042774,132.14778256167156L147.00701418823667,133.0521102856043L147.30624818748896,133.84782266174963L147.37274463176726,135.47526209669073L147.7883474085066,138.76507528587035L148.2205742963155,139.15512768840335L148.6528011841244,128.0541991136808L148.90216285016803,128.7146494262739L149.0351557387246,129.58955713960606L149.05177984979417,130.55026010029206L149.4175102933248,131.50251342217334L149.48400673760307,132.03914277832828L149.7167442925771,132.51893030725608L150.38170873536004,132.9843242017831L150.5313257349862,133.4357562714456L150.68094273461236,123.19903742237435L150.73081506782106,123.98477110136905L151.04667317814298,125.13398908563643L151.09654551135168,126.35058746090954L151.24616251097785,127.08251753182866L151.86125462055205,128.1388030753297L152.12724039766525,129.1634000378023L152.31010561943054,129.9331737204925L152.60933961868287,130.53725469346873L152.7755807293786,131.14358469604554L152.79220484044816,133.21883600610775L153.0914388397005,133.9891749750397L153.10806295077006,134.45120440617265L153.49041750537023,135.28642924870564L153.55691394964853,135.8113979802634L153.80627561569213,136.21876070404306L154.30499894777935,136.85835935271209L154.4546159474055,137.6213695173219L154.5044882806142,138.4633463083354L154.62085705810122,133.76960319600371L154.78709816879694,134.67620451713327L154.8369705020057,135.16855150656153L154.92009105735355,135.69705655052474L155.08633216804927,136.49490578309363L155.48531083371904,136.88176325308964L155.6349278333452,137.25701499596278L155.95078594366709,138.00806545984915L156.23339583184983,138.7875128717192L157.04797727425895,139.10559211513825L157.26409071816337,139.37338604998564L157.3139630513721,139.6331461649906L157.84593460559844,139.8851134748546L158.12854449378122,126.08345053277152L158.29478560447694,126.7419087508712L158.3779061598248,127.38061321851623L158.5607713815901,128.00015654845143L158.66051604800757,128.6622279672961L158.77688482549456,129.2840657759517L159.07611882474689,130.29467617245848L159.15923938009473,117.46316777557053L159.2423599354426,118.4209774124323L159.54159393469493,119.35005275559077L159.72445915646023,120.63831209169787L159.77433148966895,121.84718110299434L160.1068137110604,123.08089804116081L160.239806599617,124.0738896066257L160.40604771031272,124.8333775621457L160.60553704314762,126.21177945244733L160.98789159774782,116.78255258091063L161.07101215309567,117.76078065622104L162.08508292833963,111.68153380860937L162.1017070394092,105.53002206676787L162.63367859363555,107.21251085768463L163.3485153696272,108.84452497927046L163.4815082581838,103.66427850038511L163.6145011467404,105.03605480826349L163.63112525780994,106.36667782273584L164.19634503417544,108.04443838957233L164.37921025594076,109.44778081675939L164.57869958877563,110.54419511196288L164.86130947695838,112.19848707454915L165.85875614113277,113.39572256627285L166.25773480680252,114.47555552649555L166.75645813888974,115.52299349525956L166.82295458316804,118.18909061005428L166.32423125108082,119.22697944600726L166.6068411392636,120.51893093048552L166.70658580568102,114.7745529608006L167.40479847060308,115.81302100026066L167.67078424771628,116.88144899657495L167.85364946948158,117.85671015077877L168.00326646910773,119.04717024575093L168.13625935766433,119.95745975861125L168.46874157905577,120.96266897284481L168.50198980119492,121.83586498339552L168.55186213440365,122.72360764917053L168.58511035654283,123.52360403373638L168.68485502296025,113.81852354064047L169.0173372443517,115.31347161735248L169.06720957756042,116.72282832405654L169.1503301329083,110.43026348982897L169.2666989103953,111.80277405455304L169.29994713253447,112.93039545073596L170.14777679708268,114.37050190322053L170.46363490740458,115.66554823554614L170.79611712879606,116.63654347640116L170.8127412398656,117.61915178410466L170.84598946200478,118.63339584071176L171.0787270169788,119.96352627307822L171.1452234612571,112.35145744188618L171.29484046088325,113.52373232983997L171.31146457195283,114.76269589423109L171.3945851273007,115.88300508874283L171.47770568264855,116.94933354376529L171.72706734869215,117.92255814504965L172.24241479184892,118.82584308233143L172.44190412468382,120.18075709145572L172.5582729021708,121.4440952171196L172.6413934575187,122.66953319794511L172.8741310124927,123.4915232676335L173.02374801211886,124.53331001876533L173.27310967816246,125.56421462903849L173.45597489992778,126.66604902403637L173.57234367741478,127.32740069131515L173.58896778848438,127.98928327056647L173.7385847881105,129.07947999166956L174.37030100875432,129.74991418966155L174.5032938973109,130.39004982434128L174.51991800838047,130.9600529277835L174.58641445265874,132.05279755495863L175.1183860068851,132.5729182256571L175.89971922715503,133.4848629699574L175.96621567143333,126.15978149466932L176.26544967068565,126.93817810934115L176.34857022603353,120.44100979984033L176.64780422528585,121.69654033655814L176.69767655849458,123.52554649678233L177.0467828909556,124.68854093125813L177.22964811272092,125.42958930125194L177.62862677839067,126.43360552734164L177.74499555587767,127.08155903401864L178.02760544406044,127.71007393522333L178.0608536661996,132.78106679191092L178.1107259994083,133.62565307806807L178.45983233186934,134.09858808103758L178.4930805540085,134.53696357139668L178.57620110935633,134.98255925922885L178.75906633112166,135.69998638334496L178.95855566395653,136.57923307739978L179.24116555213928,129.8641334500483L179.5403995513916,131.16291250355883L179.64014421780905,131.73010118589278L179.7232647731569,132.21915982062131L179.80638532850477,132.7342896208029L180.1056193277571,133.23396552683357L180.12224343882664,128.48320515734778L180.57109443770514,129.49746982738134L180.70408732626174,130.50167801935987L180.87032843695746,131.06833227344296L181.05319365872276,132.9624983605314L181.4022999911838,133.41458507935687L181.70153399043613,133.89385212110955L182.23350554466248,134.46059807442685L182.25012965573205,134.90848472611071L182.34987432214947,128.57963494207698L183.21432809776732,129.5910067174981L183.24757631990644,130.29702356996953L183.41381743060217,130.93093145529707L183.5301862080892,131.5356365670831L183.97903720696766,132.45832829310893L184.3281435394287,132.97646857496326L184.49438465012443,133.95779226330774L184.76037042723763,134.44113455126296L184.79361864937675,134.84886218368027L184.90998742686378,135.67215714057488L185.4419589810901,136.08369701970213L185.525079536438,136.50326216466564L185.7079447582033,129.88211229432906L185.79106531355117,130.42661059460994L186.50590208954281,130.9955168703414L186.55577442275154,131.5473559577281L186.88825664414298,123.93408605157373L186.98800131056046,125.8487512132878L187.00462542163,119.781507907814L187.4368523094389,120.73088126279326L187.55322108692593,121.97771564748736L188.58391597323947,122.73897477362189L188.60054008430907,101.69020019938564L188.7501570839352,103.08045586358782L188.86652586142222,97.62496188657975L188.91639819463094,99.5649738533161L189.03276697211794,101.40604292492237L189.0826393053267,102.84556623161038L189.44836974885726,104.28264676347389L189.6312349706226,105.63587195476302L189.81410019238788,107.11147131108422L189.9803413030836,98.07191150089352L190.01358952522278,92.19627446814131L190.03021363629236,93.99357628894849L190.08008596950108,95.98141582483915L190.47906463517083,97.56330648201727L190.57880930158825,88.80000530471135L190.96116385618845,91.00476596826844L191.12740496688417,93.1739408108659L191.26039785544077,94.86042718058303L191.45988718827567,96.55743295727835L192.27446863068474,89.20956275684053L192.29109274175434,92.44097738519906L192.4240856303109,94.49576634992226L192.57370262993706,96.5296541815197L193.15554651737213,98.42103991766442L193.6210216273202,92.1784298057258L193.6708939605289,94.24109519762848L194.33585840331185,96.28262316359807L194.7348370689816,98.26290529049582L194.9010781796773,100.1837789534994L195.81540428850386,101.70071310273912L196.0315177324083,104.65925014230517L196.2143829541736,106.36786199727176L196.51361695342592,100.95634491138782L197.11208495193057,86.48912184150147L197.19520550727844,91.4216747270493L197.211829618348,93.71075661612171L197.24507784048717,95.38113851092282L197.4778153954612,97.00140894882392L197.6773047282961,91.76902853251453L198.05965928289623,94.12917526763813L198.1594039493137,95.8481186009201L198.40876561535728,97.85162178958427L198.50851028177473,92.35946453264125L198.67475139247045,94.09075665201419L199.07373005814023,96.13679477369193L199.35633994632298,98.1418232138957L199.72207038985357,99.6792731104594L200.23741783301037,101.55765573823645L200.35378661049737,103.05374465712627L200.4036589437061,104.44383691028072L200.5366518322627,105.75148347135156L200.80263760937584,107.0606435600189L200.86913405365414,108.35090030822685L200.952254609002,109.58207789173383L200.98550283114113,110.73557722325508L201.0187510532803,104.245759768514L201.06862338648904,105.55934864375888L201.65046727392408,107.26132900528417L201.7668360514111,108.60667918818564L202.03282182852428,109.83018340522226L202.36530404991572,104.83426760590763L202.83077915986377,106.27280109300224L202.86402738200294,107.52557872842921L202.88065149307252,108.74077303477435L202.91389971521164,112.45574903951835L203.0136443816291,116.11020422535549L203.16326138125527,117.49565891923899L203.2630060476727,110.86415301232906L203.34612660302056,111.97919009009306L203.82822582403819,113.48857520803261L204.0609633790122,114.5656225443463L204.24382860077753,104.3449822022968L204.41006971147326,106.08339355688624L204.47656615575156,107.79002403304364L204.49319026682113,109.16025628940885L204.95866537676918,110.38752465549791L205.10828237639532,111.5576035083671L205.24127526495192,112.69257999563858L205.49063693099552,113.75276426383199L205.5072610420651,114.78114300396976L205.70675037489997,115.77867038189406L206.22209781805677,109.38201690308418L206.37171481768289,112.33420013436643L206.58782826158736,113.81256348864358L206.6377005947961,115.26694740450456L206.65432470586563,116.8202996498923L206.7374452612135,117.79739525285427L206.88706226083968,119.13223421575792L207.02005514939626,120.30479962497634L207.13642392688325,121.2079172277222L207.15304803795286,122.01264137887402L207.43565792613558,122.87470965437983L207.9343812582228,123.6294300327215L208.10062236891852,113.08594700568617L208.71571447849274,114.21581611240559L208.8653314781189,115.23030329702414L208.88195558918846,116.25509879054479L208.9817002556059,117.63620664727979L209.2476860327191,118.99625273052857L209.36405481020608,120.1728975842654L209.82952992015413,121.00867232470024L209.84615403122373,121.83974528514102L209.99577103084985,123.0533137470081L210.07889158619776,123.80267600254847L210.26175680796305,119.24318295411261L210.41137380758923,120.49390575001587L210.64411136256325,121.32005024546633L210.82697658432855,122.16215333049517L211.27582758320702,123.13177870680936L211.32569991641574,123.96027286243647L211.47531691604192,125.19171095729773L211.89091969278124,125.95840714540358L211.95741613705954,126.68173098564125L212.1070331366857,120.45708398812671L212.3397706916597,124.5030120252642L212.43951535807716,118.19094121274668L212.4727635802163,119.16766049319327L213.0379833565818,120.07433527077906L213.13772802299923,105.33914326606802L213.23747268941668,106.72178755859706L213.27072091155583,107.96109559978893L213.28734502262537,109.1632243997418L213.45358613332115,110.39040372235947L213.53670668866897,111.56039620307351L213.769444243643,112.96011675259048L213.9190612432692,114.05301784239192L214.18504702038234,115.13350336171894L214.60064979712166,100.90303554339842L214.91650790744356,102.74470529748902L215.06612490706974,104.10332580650505L215.36535890632206,105.70638739424861L215.81420990520053,97.32012164828002L216.19656445980073,101.97867299807143L216.22981268193985,103.40101740050929L216.24643679300945,104.82143439531525L217.0942664575577,106.54555218383291L217.22725934611424,108.21794643869224L217.277131679323,109.53459809823568L217.42674867894914,110.73026474765692L217.7093585671319,111.91043285981553L218.05846489959293,113.03482446638587L218.3078265656365,114.51254055275773L218.5738123427497,115.55886892853647L218.90629456414115,106.54090058133805L219.02266334162817,107.82637815626303L219.13903211911517,109.17514832649391L219.22215267446305,110.68716923672655L219.73750011761982,111.84825875198509L219.87049300617642,112.97451558178456L219.90374122831557,114.1280987048005L220.46896100468106,115.2063317982347L220.51883333788976,116.59853120241935L220.75157089286378,117.9693360866987L220.80144322607254,119.91015835977694L220.98430844783783,121.18161442933263L221.08405311425528,122.41492681680054L221.54952822420333,125.62800701579094L221.59940055741203,126.30012847322213L221.6160246684816,127.01320067359457L221.71576933489905,127.54190939873608L221.7490175570382,128.21772817134206L222.03162744522095,129.40292845576295L222.16462033377755,130.00254519443533L222.3142373334037,130.54343050650405L222.5635989994473,131.49588841164908L222.82958477656047,132.03271635164356L223.47792510827384,132.57381091565938L223.6774144411087,133.0986726427544L223.71066266324786,134.12725866764112L223.87690377394358,134.95183026572798L224.05976899570888,135.7720361780932L224.1761377731959,136.30280806986775L224.2925065506829,127.26347676992263L224.32575477282208,128.23284782683078L224.6083646610048,129.3157375990281L224.92422277132673,130.14205537072957L225.52269076983134,130.67875537750737L225.68893188052706,131.7290104590726L225.9715417687098,132.2181018131995L226.07128643512723,132.7332633511452L226.2209034347534,133.2533415051738L226.71962676684063,133.73744585235985L227.1019813214408,137.1405064581076L227.11860543251038,133.03647680117191L227.4178394317627,133.5067156272564L227.88331454171075,126.89397709645965L227.96643509705862,127.93554714167993L228.18254854096307,128.96624154776464L228.19917265203264,129.9660151216665L228.4152860959371,130.76263864229895L228.5482789844937,124.45630733983248L228.63139953984157,117.91136721255923L228.6646477619807,119.24278701651821L228.68127187305026,104.25752808000028L229.01375409444174,89.98665553190676L229.0968746497896,91.82987445640634L229.32961220476363,93.61779681317043L229.49585331545936,89.9740364546669L229.57897387080723,91.75651995337213L229.69534264829426,93.44478602267303L230.01120075861616,95.51020326232998L230.210690091451,97.51365798479677L230.79253397888607,93.21317979077001L230.94215097851225,94.91886045161216L231.74010830985176,96.94005545839988L231.8232288651996,87.62505398771026L232.0725905312432,89.5696783461423L232.25545575300853,91.36429258810159L232.32195219728683,93.064325478359L232.58793797439998,94.85595722890459L232.80405141830445,96.59384002693346L233.1365336396959,98.54441418423878L233.28615063932207,100.45684257904594L233.41914352787865,102.31189812200857L233.75162574927012,103.98907361390734L234.0176115263833,105.73816222582361L234.35009374777476,107.43477817938209L234.3999660809835,109.0804956543336L234.66595185809666,110.2490424526016L234.9319376352098,111.38253284692134L235.11480285697513,113.45984521905551L236.11224952114952,114.49701153038134L236.2618665207757,115.64566269936324L236.27849063184527,116.82096833138627L236.77721396393244,117.77767241156316L237.09307207425437,112.33961809830552L237.14294440746306,113.45113414769627L237.50867485099369,114.52930471560515L238.24013573805493,115.71773001347263L238.58924207051595,116.68715978096539L238.68898673693337,117.62750665543325L238.72223495907255,118.53964312366699L239.07134129153357,113.54727137737186L239.4370717350642,114.62255782839021L239.9191709560818,116.05264191386966L240.68388006528218,119.35473373735208L240.94986584239535,120.25579631757063L241.14935517523023,121.21131248071454L242.13017772833507,122.44373392662382L242.39616350544821,123.63918272915573L242.911510948605,116.75207157445806L243.04450383716159,117.73121401956334L243.39361016962266,113.2214512978829L243.80921294636198,114.56115465766862L243.89233350170983,115.60602461027757L244.1084469456143,116.66029138875079L244.32456038951875,110.54276004830959L244.42430505593617,111.74892476364197L245.12251772085827,113.87635937638264L245.13914183192782,115.43068633797483L245.2222623872757,116.44947034017443L245.4716240533193,117.63121913058039L245.97034738540648,118.97104337699325L246.43582249535456,115.56488299634456L246.7184323835373,116.92595479089522L247.16728338241575,118.28693696749856L247.18390749348535,111.9983774863685L247.31690038204192,113.12013075411618L247.51638971487682,114.5749161896016L247.56626204808555,115.94531552613309L247.7158790477117,117.00977465079828L247.9652407137553,118.3682422316044L248.0317371580336,119.68595578498625L248.06498538017271,120.9641379317666L248.3143470462163,117.17224287314785L248.61358104546864,118.52583640728334L248.91281504472096,119.43139444518201L249.16217671076456,120.45238558893946L249.3284178214603,121.32051861360965L249.378290154669,122.16260764753973L249.5777794875039,115.42165066784843L249.59440359857348,116.72590504558963L249.66090004285178,117.70583248656031L250.12637515279982,103.65283710137604L250.55860204060875,105.5138697312179L251.10719770590464,106.83015823161985L251.19031826125251,108.1477010014523L251.35655937194824,109.34423163930458L251.95502737045288,110.59653774374043L252.03814792580076,112.10665989586872L252.83610525714028,106.46186487837919L252.90260170141855,108.50345490668099L253.23508392281002,109.73005585181889L254.03304125414954,104.15655895565108L254.0496653652191,105.90062300731128L254.48189225302804,100.26885263898109L254.53176458623673,102.12954788014137L255.2299772511588,103.58810896051808L255.495963028272,105.34922651203223L256.0778069157071,107.05751053700092L256.32716858175064,108.71454604122053L256.46016147030724,93.94327741147599L256.5432820256551,95.97336844724015L256.5599061367247,97.9629282141526L257.1085018020206,89.72748039496315L257.39111169020333,91.57847457356318L257.44098402341206,93.72025261890727L257.4908563566208,95.77740586066966L257.70696980052526,97.77284450517917L258.1558207994037,99.30099230014078L258.455054798656,100.76292419903221L258.57142357614305,102.6087972933908L258.6877923536301,104.41966565713992L258.9537781307432,106.15583650775523L259.05352279716067,107.45286600486074L259.40262912962174,102.2634411085959L259.61874257352616,103.6364995432336L259.8016077952915,105.07022314738533L260.20058646096123,101.16437507064867L260.5829410155614,102.52966295053555L260.6328133487701,96.36750799781599L260.8489267926746,98.08041573499412L260.9154232369529,99.57896493083989L261.01516790337035,101.07330057525284L261.3642742358314,102.52280615033338L261.73000467936197,104.01031201849341L261.74662879043154,105.37170725027671L262.06248690075347,106.71263208732783L262.11235923396214,98.9378779237567L262.24535212251874,100.79775987048414L262.2619762335883,102.21478874226513L262.2786003446579,103.5893067478927L262.37834501107534,105.35038836578532L262.7108272324668,109.03466198809349L262.74407545460593,110.51015456400562L263.0433094538583,111.67655451942355L263.5420327859455,116.42388322681553L263.5919051191542,118.65552585520817L263.8745150073369,105.48056721222017L264.107252562311,106.83859771263424L264.20699722872837,108.07440144915068L264.7722170050939,109.43610238278868L265.4538055589464,110.5939809792005L265.9192806688945,111.75786614216248L266.3681316677729,112.84609182579312L266.45125222312083,113.90167073891476L266.5509968895382,115.35338143707664L266.6507415559557,116.43559858441292" fill="none"></path></g></g></g></g><g opacity="0.2"><g><g><g><path style="fill: none;" stroke="rgb(255, 112, 67)" stroke-width="2px" d="M33.56408024946848,-107.62880446972486L33.96305891513825,148.03205559651303L34.012931248346966,151.08776845381811L34.19579647011227,149.3901530779325L34.44515813615587,162.29202734430754L34.49503046936459,-104.57311751597472L34.82751269075606,150.74825055935196L33.347966805564035,152.7853838297037L33.39783913877275,-99.14072759029686L33.547456138398914,162.29202734430754L34.578151024712454,152.44586593523758L34.66127158006032,149.72967097239865L35.01037791252136,149.3901530779325L35.093498467869225,150.74825055935196L35.20986724535624,-106.61025078632647L35.30961191177368,165.68725809607875L35.89145579920875,162.29202734430754L35.92470402134789,-302.17553690763623L36.05769690990448,149.3901530779325L36.539796130922106,-193.18860905293695L36.87227835231357,148.71110433722276L37.76998035007053,162.29202734430754L37.7866044611401,176.55199909210205L38.11908668253157,186.0586426067059L38.41832068178389,151.42728634828424L38.46819301499261,156.85966332218462L38.48481712606218,-49.57036379514845L38.65105823675792,162.29202734430754L39.68175312307146,148.03205559651303L40.130604121949936,148.03205559651303L40.396589899063116,160.93394281466556L40.51295867655013,154.82251710005542L40.529582787619695,145.99492232616132L41.078178452915616,-85.22028668874597L41.44390889644623,-33.273271728779676L41.52702945179409,161.6129786035978L41.56027767393324,188.09578235294637L41.759767006768115,162.29202734430754L41.92600811746385,200.99766309521013L42.6408448934555,162.97107608501727L42.773837782012095,258.71658263737606L43.33905755837758,304.891722156642L43.488674558003744,144.63682484474185L43.55517100228204,163.650124825727L43.58841922442118,-264.488454840132L43.8211567793952,167.0453555774982L43.85440500153435,153.46443257041344L43.93752555688223,160.93394281466556L43.970773779021364,183.34246059564444L44.10376666757796,152.7853838297037L44.203511333995394,162.29202734430754L44.22013544506497,162.29202734430754L44.66898644394345,154.4829992055893L45.8825465520223,160.25489407395582L46.43114221731822,251.92612113383368L46.481014550526936,162.29202734430754L46.76362443870968,149.3901530779325L46.91324143833584,160.93394281466556L46.92986554940541,162.29202734430754L47.029610215822856,-95.06646104959343L47.04623432689243,171.79867085891138L47.12935488224029,-158.8968095443138L47.628078214327495,192.8491041102483L48.44265965673659,162.29202734430754L48.492531989945306,149.3901530779325L48.59227665636274,149.3901530779325L48.692021322780185,162.29202734430754L48.77514187812805,163.650124825727L48.94138298882379,199.63956561379067L49.041127655241226,171.11963506997913L49.12424821058909,162.29202734430754L49.988701986206905,184.70055160117516L50.071822541554766,148.03205559651303L50.08844665262434,150.06920181864223L50.387680651876664,182.6634118549347L50.60379409578111,-58.0584406745764L50.819907539685566,162.29202734430754L51.451623760329355,149.3901530779325L51.7342336485121,149.3901530779325L52.06671586990356,191.83053747507242L52.282829313808016,160.93394281466556L52.648559757338624,162.29202734430754L52.69843209054735,162.29202734430754L52.93116964552138,203.71384510627158L52.997666089799665,-180.96580943082657L53.79562342113919,148.03205559651303L53.895368087556626,234.27092187221234L53.9119921986262,217.97381685406611L54.27772264215681,162.29202734430754L54.47721197499169,162.29202734430754L54.643453085687426,154.82251710005542L55.14217641777463,148.03205559651303L55.325041639539926,161.6129786035978L55.45803452809651,-50.24942548763562L55.55777919451396,149.3901530779325L56.0897507487403,148.03205559651303L56.1562471930186,154.14348131112317L56.57184996975793,177.91009009763278L56.8378357468711,148.71110433722276L56.854459857940675,151.42728634828424L57.10382152398427,151.42728634828424L57.170317968262566,149.3901530779325L57.452927856445314,162.29202734430754L58.03477174388038,162.29202734430754L58.16776463243696,150.06920181864223L58.50024685382843,165.68725809607875L58.73298440880245,149.3901530779325L58.88260140842861,209.14621560428324L58.98234607484605,149.3901530779325L59.065466630193924,160.59441196842195L59.181835407680936,160.59441196842195L59.3314524073071,-112.72165059738163L59.56418996228113,162.29202734430754L59.59743818442026,163.650124825727L59.64731051762899,-85.22028668874597L59.79692751725515,151.42728634828424L60.279026738272776,148.03205559651303L60.37877140469021,162.29202734430754L60.77775007035997,-229.5176195425766L61.12685640282101,148.03205559651303L61.426090402073335,-176.89154289012313L61.57570740169949,163.98964272019313L61.79182084560394,149.3901530779325L61.84169317881266,171.79867085891138L61.97468606736925,148.71110433722276L62.63965051015219,150.74825055935196L62.92226039833493,160.93394281466556L63.088501509030664,162.29202734430754L63.138373842239375,148.71110433722276L63.47085606363085,-120.19117379341124L63.73684184074402,162.29202734430754L64.03607583999634,162.29202734430754L64.23556517283122,151.42728634828424L64.51817506101396,162.29202734430754L64.6179197274314,-57.37940488564415L65.01689839310116,148.03205559651303L65.23301183700562,151.42728634828424L65.28288417021433,162.29202734430754L65.2995082812839,162.29202734430754L65.43250116984049,152.10633508899397L65.49899761411879,148.71110433722276L65.6153663916058,289.9527061203113L66.4299478340149,178.5891388383425L66.49644427829318,164.32917356643674L66.61281305578021,145.99492232616132L66.76243005540636,194.20720159166777L67.12816049893696,148.03205559651303L67.19465694321526,151.42728634828424L67.32764983177185,150.74825055935196L67.46064272032844,149.3901530779325L67.52713916460672,-364.308270026471L67.8596213859982,149.3901530779325L67.94274194134607,162.97107608501727L67.95936605241565,162.97107608501727L68.04248660776351,163.98964272019313L68.24197594059838,332.05356817081156L68.2918482738071,149.3901530779325L68.37496882915497,162.29202734430754L68.69082693947686,162.29202734430754L68.95681271659004,156.18061458147488L69.12305382728577,323.9050124237941L69.32254316012065,148.03205559651303L69.75477004792955,167.72440431820795L69.90438704755572,154.14348131112317L70.48623093499077,162.29202734430754L70.50285504606035,162.29202734430754L70.5361032681995,153.46443257041344L71.26756415526071,-40.74276902125433L71.4005570438173,149.3901530779325L71.55017404344346,180.62627858458296L71.58342226558261,339.8625995474742L71.66654282093047,158.89679659253636L72.08214559766982,-112.04261480844937L72.09876970873938,158.89679659253636L72.26501081943512,210.504306609814L72.29825904157427,154.82251710005542L72.38137959692213,162.97107608501727L72.61411715189615,162.97107608501727L72.7138618183136,162.29202734430754L72.86347881793975,-177.2310348810343L73.11284048398336,165.68725809607875L73.17933692826165,162.29202734430754L73.2125851504008,160.93394281466556L73.62818792714013,183.34246059564444L73.99391837067074,150.06920181864223L74.09366303708818,162.29202734430754L74.37627292527092,154.14348131112317L74.47601759168836,148.03205559651303L74.90824447949728,148.03205559651303L75.29059903409747,150.06920181864223L75.40696781158448,-57.718922780110276L75.49008836693234,149.3901530779325L75.70620181083679,158.89679659253636L75.8225705883238,159.5758453332461L76.321293920411,150.74825055935196L76.55403147538503,-37.68705616394928L77.13587536282009,175.87295035139232L77.15249947388968,-39.38467153983487L78.51567658159468,314.39836890919025L78.66529358122084,150.06920181864223L78.814910580847,156.85966332218462L78.91465524726445,163.98964272019313L79.3136339129342,148.03205559651303L80.09496713320414,149.3901530779325L80.22796002176074,149.3901530779325L80.82642802026537,148.03205559651303L81.09241379737854,162.29202734430754L81.14228613058727,162.29202734430754L81.27527901914385,148.03205559651303L81.32515135235256,149.3901530779325L81.72413001802234,-167.72437841465302L81.79062646230061,148.03205559651303L82.28934979438782,150.06920181864223L82.671704348988,148.03205559651303L82.9210660150316,227.48046036866992L83.22030001428392,149.3901530779325L83.32004468070136,160.59441196842195L83.58603045781453,149.3901530779325L83.88526445706685,149.3901530779325L83.90188856813643,149.3901530779325L84.46710834450192,149.3901530779325L84.63334945519765,162.29202734430754L84.68322178840637,156.18061458147488L84.69984589947595,151.42728634828424L84.7330941216151,151.42728634828424L84.74971823268466,150.06920181864223L85.16532100942399,162.29202734430754L85.71391667471991,150.74825055935196L86.0962712293201,148.03205559651303L86.37888111750286,-30.896594660406876L86.89422856065961,162.29202734430754L87.3430795595381,152.10633508899397L87.42620011488597,148.03205559651303L87.79193055841657,162.29202734430754L88.10778866873848,148.03205559651303L88.14103689087763,148.03205559651303L88.35715033478206,162.29202734430754L88.62313611189525,240.38233787298935L89.10523533291286,148.03205559651303L89.1551076661216,162.29202734430754L89.57071044286093,148.03205559651303L90.00293733066982,149.3901530779325L90.28554721885257,155.50156584076515L90.61802944024404,163.3105939794834L90.91726343949637,165.68725809607875L90.95051166163552,181.64484521975882L90.98375988377465,162.29202734430754L91.08350455019209,162.29202734430754L91.54897966014015,148.03205559651303L91.78171721511417,147.35301980758078L92.71266743501027,181.9843695901137L92.77916387928856,166.36630683678848L92.91215676784515,-162.63153228699622L92.96202910105387,148.71110433722276L93.47737654421064,-110.34499943256378L93.61036943276724,190.81197083989656L93.82648287667168,149.3901530779325L93.90960343201955,161.6129786035978L94.17558920913272,149.3901530779325L94.25870976448059,149.3901530779325L94.29195798661974,151.08776845381811L94.45819909731547,170.1010554830258L94.52469554159376,152.7853838297037L95.00679476261139,149.3901530779325L95.20628409544626,148.03205559651303L96.07073787106407,-111.70309691398325L96.18710664855108,150.06920181864223L96.25360309282938,162.97107608501727L96.43646831459469,166.36630683678848L96.53621298101214,157.53871206289435L97.00168809096019,148.03205559651303L97.4339149787691,149.3901530779325L97.63340431160397,162.29202734430754L97.81626953336928,160.25489407395582L97.86614186657799,-223.0666500299454L98.81371619754367,151.42728634828424L98.89683675289155,259.3956297591136L98.9134608639611,171.11963506997913L99.07970197465686,-102.87550214008913L100.2932620827357,162.97107608501727L100.476127304501,161.6129786035978L100.49275141557057,162.29202734430754L100.52599963770972,165.00820935536902L100.60912019305758,148.03205559651303L100.62574430412717,148.03205559651303L101.0413470808665,153.46443257041344L101.12446763621436,186.0586426067059L101.17433996942307,162.97107608501727L101.30733285797967,-97.44311221441127L101.63981507937113,149.3901530779325L101.68968741257986,163.98964272019313L101.70631152364943,154.82251710005542L101.95567318969302,-116.11688134915285L102.22165896680619,148.71110433722276L102.32140363322364,159.23632743877997L102.5375170771281,148.03205559651303L102.57076529926724,148.03205559651303L102.7868787431717,165.68725809607875L103.4019708527459,162.29202734430754L103.80094951841566,-60.77463563741533L103.91731829590267,161.6129786035978L104.01706296232011,148.03205559651303L104.41604162798987,150.06920181864223L104.4659139611986,162.29202734430754L105.44673651430341,158.21774785182663L105.72934640248617,-74.01604075003397L105.74597051355573,162.29202734430754L106.0784527349472,149.3901530779325L106.12832506815593,148.03205559651303L106.27794206778209,155.50156584076515L106.87641006628672,160.93394281466556L106.92628239949545,160.93394281466556L107.19226817660862,150.06920181864223L107.22551639874776,166.36630683678848L107.70761561976539,150.74825055935196L108.17309072971344,-87.25741995909769L108.30608361827004,162.29202734430754L108.37258006254832,153.46443257041344L108.50557295110491,163.98964272019313L108.6884381728702,149.3901530779325L109.12066506067912,150.74825055935196L109.20378561602699,156.85966332218462L109.46977139314016,149.3901530779325L109.73575717025334,-176.89154289012313L109.86875005880991,-98.80120969583074L110.01836705843607,151.42728634828424L110.16798405806223,148.03205559651303L110.35084927982754,148.03205559651303L110.36747339089712,149.3901530779325L110.56696272373199,34.970887104665266L110.60021094587114,162.29202734430754L110.65008327907985,177.5705657272779L111.23192716651494,162.29202734430754L111.43141649934981,-13.241405112618637L111.7472746096717,149.3901530779325L112.12962916427189,149.3901530779325L112.46211138566336,-356.83877273399634L113.12707582844628,150.74825055935196L113.26006871700287,163.98964272019313L113.40968571662903,162.29202734430754L113.45955804983774,162.29202734430754L113.49280627197689,152.7853838297037L114.34063593652513,148.03205559651303L114.39050826973386,189.4538733584771L114.75623871326447,-99.14072759029686L114.77286282433403,176.55199909210205L114.88923160182104,149.3901530779325L115.18846560107336,239.02424362951427L115.65394071102142,150.06920181864223L115.98642293241289,151.42728634828424L116.01967115455204,-111.02403522149604L116.11941582096946,157.53871206289435L116.63476326412625,152.7853838297037L116.917373152309,149.3901530779325L117.21660715156132,149.3901530779325L117.34960004011789,148.71110433722276L117.86494748327468,162.29202734430754L118.31379848215316,160.93394281466556L118.69615303675333,162.97107608501727L119.17825225777096,149.3901530779325L119.36111747953628,162.29202734430754L119.62710325664945,149.3901530779325L119.85984081162347,149.3901530779325L120.2089471440845,161.6129786035978L120.87391158686744,162.29202734430754L121.23964203039806,151.42728634828424L121.32276258574592,148.03205559651303L121.93785469532013,149.3901530779325L122.12071991708542,149.3901530779325L122.22046458350287,161.6129786035978L122.4532021384769,149.3901530779325L122.48645036061605,162.29202734430754L123.01842191484239,150.06920181864223L123.41740058051215,151.42728634828424L123.61688991334702,148.03205559651303L123.65013813548617,152.10633508899397L123.74988280190362,151.42728634828424L123.9493721347385,162.29202734430754L124.36497491147783,-230.19665533150885L124.83045002142589,149.3901530779325L124.86369824356504,149.3901530779325L124.93019468784331,156.85966332218462L125.17955635388692,148.03205559651303L125.86114490773943,161.6129786035978L125.91101724094814,148.03205559651303L126.50948523945277,151.08776845381811L126.79209512763553,148.03205559651303L126.84196746084424,156.85966332218462L127.00820857154,-77.75078939627132L127.3074425707923,149.3901530779325L127.32406668186188,153.46443257041344L127.60667657004463,160.59441196842195L127.65654890325334,162.29202734430754L128.22176867961883,162.29202734430754L128.25501690175798,-272.97653171956L128.37138567924498,149.3901530779325L128.82023667812348,-187.75627093436893L128.96985367774963,161.6129786035978L129.31896001021067,-103.55453792902138L129.71793867588042,-97.78265601243235L129.8010592312283,162.29202734430754L129.90080389764574,145.99492232616132L130.3496548965242,163.650124825727L130.6821371179157,165.00820935536902L130.76525767326356,-86.91790206463156L131.01461933930716,162.29202734430754L131.097739894655,162.29202734430754L131.51334267139435,-223.74568581887766L131.81257667064668,150.74825055935196L131.87907311492498,-189.79337830116577L131.96219367027282,154.14348131112317L132.228179447386,148.71110433722276L132.26142766952515,149.3901530779325L132.52741344663832,149.3901530779325L132.56066166877747,149.3901530779325L132.66040633519492,148.03205559651303L132.69365455733404,148.03205559651303L132.9263921123081,149.3901530779325L132.99288855658637,169.76153758855966L133.37524311118656,-2.0371332703517178L133.5248601108127,149.3901530779325L133.8407182211346,162.97107608501727L134.0235834428999,149.3901530779325L134.05683166503906,-80.12744056108916L134.1565763314565,148.03205559651303L134.37268977536095,149.3901530779325L134.67192377461328,161.6129786035978L135.32026410632665,149.3901530779325L135.70261866092682,149.3901530779325L135.76911510520512,149.3901530779325L135.7857392162747,149.3901530779325L135.9021079937617,149.3901530779325L136.18471788194447,-92.3502660867545L136.36758310370973,148.03205559651303L136.55044832547506,162.29202734430754L136.66681710296206,165.68725809607875L136.7665617693795,158.21774785182663L137.16554043504928,148.03205559651303L138.0798665438758,149.3901530779325L138.1463629881541,243.77756862476056L138.74483098665874,150.06920181864223L138.7614550977283,148.03205559651303L138.8279515420066,148.03205559651303L139.16043376339806,195.22576822684363L139.17705787446764,149.3901530779325L139.1936819855372,149.3901530779325L139.32667487409378,163.650124825727L140.05813576115503,165.68725809607875L140.17450453864203,150.06920181864223L140.22437687185075,148.03205559651303L140.54023498217265,148.03205559651303L141.43793697992962,148.03205559651303L141.58755397955576,158.21774785182663L141.62080220169491,-88.61551744051715L141.6872986459732,151.42728634828424L141.78704331239064,148.03205559651303L141.83691564559936,148.71110433722276L141.9532844230864,148.03205559651303L142.08627731164296,162.29202734430754L142.13614964485168,162.29202734430754L142.33563897768656,164.32917356643674L142.78448997656506,149.3901530779325L142.85098642084333,149.3901530779325L143.03385164260862,155.50156584076515L143.21671686437395,156.18061458147488L144.3471564171049,-90.99219450888995L144.57989397207896,148.03205559651303L144.71288686063554,152.7853838297037L144.94562441560956,149.3901530779325L144.96224852667916,152.10633508899397L145.39447541448806,160.25489407395582L145.62721296946208,162.97107608501727L146.04281574620143,149.3901530779325L146.52491496721902,161.6129786035978L146.57478730042774,162.97107608501727L147.00701418823667,162.29202734430754L147.30624818748896,159.5758453332461L147.37274463176726,188.09578235294637L147.7883474085066,245.1356596302913L148.2205742963155,151.76681719452785L148.6528011841244,-230.8756911204411L148.90216285016803,150.06920181864223L149.0351557387246,157.8782299573605L149.05177984979417,161.6129786035978L149.4175102933248,162.29202734430754L149.48400673760307,149.3901530779325L149.7167442925771,148.03205559651303L150.38170873536004,148.03205559651303L150.5313257349862,148.03205559651303L150.68094273461236,-207.7881116469751L150.73081506782106,149.3901530779325L151.04667317814298,162.29202734430754L151.09654551135168,165.68725809607875L151.24616251097785,150.74825055935196L151.86125462055205,162.29202734430754L152.12724039766525,162.29202734430754L152.31010561943054,154.82251710005542L152.60933961868287,150.06920181864223L152.7755807293786,150.74825055935196L152.79220484044816,200.3186143545004L153.0914388397005,158.89679659253636L153.10806295077006,149.3901530779325L153.49041750537023,162.29202734430754L153.55691394964853,152.7853838297037L153.80627561569213,149.3901530779325L154.30499894777935,157.53871206289435L154.4546159474055,162.29202734430754L154.5044882806142,165.68725809607875L154.62085705810122,-17.99473334580928L154.78709816879694,163.98964272019313L154.8369705020057,151.08776845381811L154.92009105735355,152.7853838297037L155.08633216804927,162.29202734430754L155.48531083371904,149.3901530779325L155.6349278333452,149.3901530779325L155.95078594366709,162.29202734430754L156.23339583184983,163.98964272019313L157.04797727425895,149.3901530779325L157.26409071816337,148.03205559651303L157.3139630513721,148.03205559651303L157.84593460559844,148.03205559651303L158.12854449378122,-320.1702702534455L158.29478560447694,148.03205559651303L158.3779061598248,148.03205559651303L158.5607713815901,148.03205559651303L158.66051604800757,150.06920181864223L158.77688482549456,149.3901530779325L159.07611882474689,162.97107608501727L159.15923938009473,-297.4222345780005L159.2423599354426,149.3901530779325L159.54159393469493,149.3901530779325L159.72445915646023,162.29202734430754L159.77433148966895,160.93394281466556L160.1068137110604,162.97107608501727L160.239806599617,156.18061458147488L160.40604771031272,149.3901530779325L160.60553704314762,170.78010422373552L160.98789159774782,-188.09576292528018L161.07101215309567,149.3901530779325L162.08508292833963,-84.88076879427985L162.1017070394092,-93.3688456737078L162.63367859363555,161.6129786035978L163.3485153696272,161.6129786035978L163.4815082581838,-63.830348494720425L163.6145011467404,149.3901530779325L163.63112525780994,149.3901530779325L164.19634503417544,162.29202734430754L164.37921025594076,154.82251710005542L164.57869958877563,145.99492232616132L164.86130947695838,165.68725809607875L165.85875614113277,152.10633508899397L166.25773480680252,149.3901530779325L166.75645813888974,149.3901530779325L166.82295458316804,204.3928938469813L166.32423125108082,152.7853838297037L166.6068411392636,162.29202734430754L166.70658580568102,-70.96032789272891L167.40479847060308,149.3901530779325L167.67078424771628,151.42728634828424L167.85364946948158,149.3901530779325L168.00326646910773,157.53871206289435L168.13625935766433,149.3901530779325L168.46874157905577,153.46443257041344L168.50198980119492,150.06920181864223L168.55186213440365,151.42728634828424L168.58511035654283,149.3901530779325L168.68485502296025,-199.97907055647931L169.0173372443517,163.650124825727L169.06720957756042,162.29202734430754L169.1503301329083,-93.02932777924167L169.2666989103953,156.18061458147488L169.29994713253447,149.3901530779325L170.14777679708268,160.93394281466556L170.46363490740458,157.53871206289435L170.79611712879606,148.03205559651303L170.8127412398656,149.3901530779325L170.84598946200478,151.42728634828424L171.0787270169788,162.97107608501727L171.1452234612571,-133.772096800496L171.29484046088325,151.42728634828424L171.31146457195283,154.82251710005542L171.3945851273007,152.10633508899397L171.47770568264855,151.42728634828424L171.72706734869215,149.3901530779325L172.24241479184892,148.03205559651303L172.44190412468382,163.98964272019313L172.5582729021708,162.29202734430754L172.6413934575187,162.29202734430754L172.8741310124927,150.06920181864223L173.02374801211886,158.21774785182663L173.27310967816246,158.89679659253636L173.45597489992778,162.29202734430754L173.57234367741478,148.71110433722276L173.58896778848438,149.3901530779325L173.7385847881105,164.32917356643674L174.37030100875432,151.42728634828424L174.5032938973109,151.08776845381811L174.51991800838047,149.3901530779325L174.58641445265874,167.38487347196434L175.1183860068851,149.3901530779325L175.89971922715503,162.97107608501727L175.96621567143333,-110.68451732702991L176.26544967068565,152.10633508899397L176.34857022603353,-89.63409702747049L176.64780422528585,162.29202734430754L176.69767655849458,182.6634118549347L177.0467828909556,162.29202734430754L177.22964811272092,149.3901530779325L177.62862677839067,158.89679659253636L177.74499555587767,148.03205559651303L178.02760544406044,148.03205559651303L178.0608536661996,296.74316802859676L178.1107259994083,160.93394281466556L178.45983233186934,149.3901530779325L178.4930805540085,148.71110433722276L178.57620110935633,149.3901530779325L178.75906633112166,158.89679659253636L178.95855566395653,165.00820935536902L179.24116555213928,-87.25741995909769L179.5403995513916,173.15676834033084L179.64014421780905,150.06920181864223L179.7232647731569,148.03205559651303L179.80638532850477,149.3901530779325L180.1056193277571,149.3901530779325L180.12224343882664,-25.12471274381781L180.57109443770514,162.29202734430754L180.70408732626174,162.97107608501727L180.87032843695746,149.3901530779325L181.05319365872276,194.20720159166777L181.4022999911838,148.03205559651303L181.70153399043613,149.3901530779325L182.23350554466248,152.7853838297037L182.25012965573205,149.3901530779325L182.34987432214947,-76.05317402038573L183.21432809776732,162.29202734430754L183.24757631990644,153.12490172416983L183.41381743060217,151.42728634828424L183.5301862080892,151.08776845381811L183.97903720696766,162.29202734430754L184.3281435394287,149.72967097239865L184.49438465012443,165.68725809607875L184.76037042723763,150.06920181864223L184.79361864937675,148.03205559651303L184.90998742686378,162.29202734430754L185.4419589810901,149.3901530779325L185.525079536438,150.06920181864223L185.7079447582033,-84.20173300534755L185.79106531355117,148.03205559651303L186.50590208954281,149.3901530779325L186.55577442275154,149.3901530779325L186.88825664414298,-122.22830706376295L187.00462542163,-76.39269191485185L187.4368523094389,151.42728634828424L187.55322108692593,162.29202734430754L188.58391597323947,147.35301980758078L188.60054008430907,-578.8868431769885L188.7501570839352,148.03205559651303L188.86652586142222,-78.7693430796697L188.91639819463094,162.29202734430754L189.03276697211794,160.93394281466556L189.0826393053267,149.3901530779325L189.44836974885726,150.74825055935196L189.6312349706226,149.3901530779325L189.81410019238788,154.82251710005542L189.9803413030836,-194.2071886398903L190.01358952522278,-97.78265601243235L190.03021363629236,152.10633508899397L190.08008596950108,160.25489407395582L190.47906463517083,148.71110433722276L190.57880930158825,-194.54673243791137L190.96116385618845,162.29202734430754L191.12740496688417,163.3105939794834L191.26039785544077,149.3901530779325L191.45988718827567,151.42728634828424L192.27446863068474,-148.3715734909792L192.29109274175434,196.92338360272922L192.4240856303109,160.93394281466556L192.57370262993706,162.29202734430754L193.15554651737213,159.5758453332461L193.6210216273202,-109.66596364363153L193.6708939605289,160.93394281466556L194.33585840331185,162.29202734430754L194.7348370689816,162.29202734430754L194.9010781796773,162.29202734430754L195.81540428850386,150.74825055935196L196.0315177324083,200.3186143545004L196.2143829541736,161.6129786035978L196.51361695342592,-74.01604075003397L197.19520550727844,250.90755126071343L197.211829618348,167.72440431820795L197.24507784048717,149.3901530779325L197.4778153954612,149.3901530779325L197.6773047282961,-77.41127150180519L198.05965928289623,170.4405863292694L198.1594039493137,151.42728634828424L198.40876561535728,162.63155819055115L198.50851028177473,-85.22028668874597L198.67475139247045,150.06920181864223L199.07373005814023,162.29202734430754L199.35633994632298,162.97107608501727L199.72207038985357,149.3901530779325L200.23741783301037,162.29202734430754L200.35378661049737,151.42728634828424L200.4036589437061,149.3901530779325L200.5366518322627,148.03205559651303L200.80263760937584,149.3901530779325L200.86913405365414,150.06920181864223L200.952254609002,149.3901530779325L200.98550283114113,148.03205559651303L201.0187510532803,-105.59167119937314L201.06862338648904,148.03205559651303L201.65046727392408,162.29202734430754L201.7668360514111,152.10633508899397L202.03282182852428,149.3901530779325L202.36530404991572,-56.70034319315694L202.83077915986377,152.7853838297037L202.86402738200294,148.03205559651303L202.88065149307252,148.03205559651303L202.91389971521164,232.57330649632675L203.0136443816291,234.27092187221234L203.16326138125527,162.29202734430754L203.2630060476727,-103.55453792902138L203.34612660302056,148.03205559651303L203.82822582403819,162.29202734430754L204.0609633790122,149.3901530779325L204.24382860077753,-226.12238879080542L204.41006971147326,162.29202734430754L204.47656615575156,162.97107608501727L204.49319026682113,153.46443257041344L204.95866537676918,150.06920181864223L205.10828237639532,149.3901530779325L205.24127526495192,149.3901530779325L205.49063693099552,148.03205559651303L205.5072610420651,148.03205559651303L205.70675037489997,148.03205559651303L206.22209781805677,-97.44311221441127L206.37171481768289,207.78812459875252L206.58782826158736,161.6129786035978L206.6377005947961,162.29202734430754L206.65432470586563,167.0453555774982L206.7374452612135,149.3901530779325L206.88706226083968,162.29202734430754L207.02005514939626,158.21774785182663L207.13642392688325,150.40871971310838L207.15304803795286,148.03205559651303L207.43565792613558,150.74825055935196L207.9343812582228,148.03205559651303L208.10062236891852,-227.820004166691L208.71571447849274,150.74825055935196L208.8653314781189,148.03205559651303L208.88195558918846,149.3901530779325L208.9817002556059,162.29202734430754L209.2476860327191,162.97107608501727L209.36405481020608,158.21774785182663L209.82952992015413,148.03205559651303L209.84615403122373,148.71110433722276L209.99577103084985,162.29202734430754L210.07889158619776,148.03205559651303L210.26175680796305,-28.180425601122863L210.41137380758923,160.93394281466556L210.64411136256325,148.03205559651303L210.82697658432855,149.3901530779325L211.27582758320702,154.4829992055893L211.32569991641574,150.74825055935196L211.47531691604192,165.00820935536902L211.89091969278124,150.74825055935196L211.95741613705954,150.06920181864223L212.1070331366857,-80.80650225357637L212.43951535807716,-85.89934838123318L212.4727635802163,150.74825055935196L213.0379833565818,149.3901530779325L213.13772802299923,-371.0987315300134L213.23747268941668,151.42728634828424L213.27072091155583,148.03205559651303L213.28734502262537,148.03205559651303L213.45358613332115,150.06920181864223L213.53670668866897,149.3901530779325L213.769444243643,158.21774785182663L213.9190612432692,149.3901530779325L214.18504702038234,150.06920181864223L214.60064979712166,-359.2154238988142L214.91650790744356,162.29202734430754L215.06612490706974,148.03205559651303L215.36535890632206,157.53871206289435L215.81420990520053,-173.83580412926312L216.19656445980073,252.60516663659902L216.22981268193985,149.3901530779325L216.24643679300945,150.74825055935196L217.0942664575577,162.29202734430754L217.22725934611424,162.29202734430754L217.277131679323,152.10633508899397L217.42674867894914,149.3901530779325L217.7093585671319,150.06920181864223L218.05846489959293,149.3901530779325L218.3078265656365,162.29202734430754L218.5738123427497,149.3901530779325L218.90629456414115,-185.04007597153L219.02266334162817,149.3901530779325L219.13903211911517,152.7853838297037L219.22215267446305,159.5758453332461L219.73750011761982,149.3901530779325L219.87049300617642,149.3901530779325L219.90374122831557,151.42728634828424L220.46896100468106,150.06920181864223L220.51883333788976,161.6129786035978L220.75157089286378,162.29202734430754L220.80144322607254,182.6634118549347L220.98430844783783,162.29202734430754L221.08405311425528,162.29202734430754L221.54952822420333,229.5176001149104L221.59940055741203,148.03205559651303L221.6160246684816,150.06920181864223L221.71576933489905,144.63682484474185L221.7490175570382,150.06920181864223L222.03162744522095,167.72440431820795L222.16462033377755,149.3901530779325L222.3142373334037,148.03205559651303L222.5635989994473,162.29202734430754L222.82958477656047,149.3901530779325L223.47792510827384,150.06920181864223L223.6774144411087,150.06920181864223L223.71066266324786,167.38487347196434L223.87690377394358,161.6129786035978L224.05976899570888,162.29202734430754L224.1761377731959,153.46443257041344L224.2925065506829,-165.00823525892392L224.32575477282208,159.5758453332461L224.6083646610048,164.32917356643674L224.92422277132673,156.85966332218462L225.52269076983134,148.03205559651303L225.68893188052706,165.68725809607875L225.9715417687098,148.03205559651303L226.07128643512723,149.3901530779325L226.2209034347534,150.06920181864223L226.71962676684063,149.3901530779325L227.1019813214408,247.17279937653177L227.11860543251038,0.33951789446612735L227.4178394317627,148.71110433722276L227.88331454171075,-86.91790206463156L227.96643509705862,161.6129786035978L228.18254854096307,162.29202734430754L228.19917265203264,162.29202734430754L228.4152860959371,156.52013247594104L228.5482789844937,-79.4484047721569L228.63139953984157,-93.70836356817397L228.6646477619807,162.29202734430754L228.68127187305026,-380.26584419837366L229.01375409444174,-371.4382235209246L229.0968746497896,151.42728634828424L229.32961220476363,151.42728634828424L229.49585331545936,-27.840881803101823L229.57897387080723,149.3901530779325L229.69534264829426,148.03205559651303L230.01120075861616,162.29202734430754L230.210690091451,162.29202734430754L230.79253397888607,-45.8356151489111L230.94215097851225,150.06920181864223L231.74010830985176,162.29202734430754L231.8232288651996,-213.55999356356412L232.0725905312432,152.44586593523758L232.25545575300853,149.3901530779325L232.32195219728683,148.03205559651303L232.58793797439998,152.7853838297037L232.80405141830445,152.7853838297037L233.1365336396959,161.6129786035978L233.28615063932207,162.29202734430754L233.41914352787865,162.29202734430754L233.75162574927012,158.21774785182663L234.0176115263833,162.29202734430754L234.35009374777476,162.29202734430754L234.3999660809835,162.29202734430754L234.66595185809666,148.03205559651303L234.9319376352098,148.03205559651303L235.11480285697513,180.62627858458296L236.11224952114952,148.03205559651303L236.2618665207757,152.7853838297037L236.27849063184527,154.82251710005542L236.77721396393244,148.71110433722276L237.09307207425437,-63.49080469669934L237.14294440746306,149.3901530779325L237.50867485099369,149.3901530779325L238.24013573805493,154.14348131112317L238.58924207051595,148.03205559651303L238.68898673693337,148.03205559651303L238.72223495907255,148.03205559651303L239.07134129153357,-47.87274841926282L239.4370717350642,149.3901530779325L239.9191709560818,162.29202734430754L240.68388006528218,226.1223693631392L240.94986584239535,149.3901530779325L241.14935517523023,152.10633508899397L242.13017772833507,162.29202734430754L242.39616350544821,162.29202734430754L242.911510948605,-105.93118909383927L243.04450383716159,149.3901530779325L243.39361016962266,-32.594210036292466L243.80921294636198,157.8782299573605L243.89233350170983,149.3901530779325L244.1084469456143,150.74825055935196L244.32456038951875,-87.25741995909769L244.42430505593617,150.74825055935196L245.12251772085827,182.6634118549347L245.13914183192782,165.68725809607875L245.2222623872757,149.3901530779325L245.4716240533193,155.84109668700876L245.97034738540648,162.29202734430754L246.43582249535456,5.432364022122918L246.7184323835373,160.93394281466556L247.16728338241575,162.29202734430754L247.18390749348535,-91.33171240335608L247.31690038204192,149.3901530779325L247.51638971487682,161.6129786035978L247.56626204808555,160.25489407395582L247.7158790477117,151.42728634828424L247.9652407137553,162.29202734430754L248.0317371580336,162.29202734430754L248.06498538017271,162.29202734430754L248.3143470462163,-5.432364022122939L248.61358104546864,162.29202734430754L248.91281504472096,148.71110433722276L249.16217671076456,153.46443257041344L249.3284178214603,149.3901530779325L249.378290154669,149.3901530779325L249.5777794875039,-102.53595834206808L249.59440359857348,158.89679659253636L249.66090004285178,149.3901530779325L250.12637515279982,-350.72734701938623L250.55860204060875,165.68725809607875L251.10719770590464,149.3901530779325L251.19031826125251,150.74825055935196L251.35655937194824,148.03205559651303L251.95502737045288,151.08776845381811L252.03814792580076,160.93394281466556L252.83610525714028,-76.05317402038573L252.90260170141855,174.5148658217503L253.23508392281002,149.3901530779325L254.03304125414954,-76.05317402038573L254.0496653652191,162.29202734430754L254.48189225302804,-81.82505593697479L254.53176458623673,162.29202734430754L255.2299772511588,150.74825055935196L255.495963028272,162.29202734430754L256.0778069157071,162.29202734430754L256.32716858175064,162.29202734430754L256.46016147030724,-383.66107495014484L256.5432820256551,161.6129786035978L256.5599061367247,162.29202734430754L257.1085018020206,-176.55199909210205L257.39111169020333,151.42728634828424L257.44098402341206,162.97107608501727L257.4908563566208,162.29202734430754L257.70696980052526,162.29202734430754L258.1558207994037,148.71110433722276L258.455054798656,148.03205559651303L258.57142357614305,162.29202734430754L258.6877923536301,162.97107608501727L258.9537781307432,162.29202734430754L259.05352279716067,149.3901530779325L259.40262912962174,-65.52796387060602L259.61874257352616,148.03205559651303L259.8016077952915,151.42728634828424L260.20058646096123,-25.12471274381781L260.5829410155614,146.67397106687105L260.6328133487701,-102.87550214008913L260.8489267926746,153.46443257041344L260.9154232369529,148.03205559651303L261.01516790337035,149.3901530779325L261.3642742358314,149.3901530779325L261.73000467936197,152.10633508899397L261.74662879043154,149.3901530779325L262.06248690075347,150.06920181864223L262.11235923396214,-152.44584003168262L262.24535212251874,160.93394281466556L262.2619762335883,148.03205559651303L262.2786003446579,148.03205559651303L262.37834501107534,162.29202734430754L262.7108272324668,228.15950910937966L262.74407545460593,158.21774785182663L263.0433094538583,149.3901530779325L263.5420327859455,269.9208447658099L263.8745150073369,-320.5097622443567L264.107252562311,150.74825055935196L264.20699722872837,148.03205559651303L264.7722170050939,153.46443257041344L265.4538055589464,148.03205559651303L265.9192806688945,149.3901530779325L266.3681316677729,148.03205559651303L266.45125222312083,148.03205559651303L266.5509968895382,162.29202734430754L266.6507415559557,151.42728634828424" fill="none"></path></g></g></g></g></g></g><g transform="translate(30, 176)" clip-path="url(#clip_1)"><clipPath id="clip_1"><rect width="299" height="23"></rect></clipPath><g><g><line x1="0" y1="0" x2="0" y2="5" style="visibility: inherit;" fill="rgb(0, 0, 0)" stroke="rgb(204, 204, 204)" stroke-width="1px"></line><line x1="33.24822213914659" y1="0" x2="33.24822213914659" y2="5" style="visibility: inherit;" fill="rgb(0, 0, 0)" stroke="rgb(204, 204, 204)" stroke-width="1px"></line><line x1="66.49644427829318" y1="0" x2="66.49644427829318" y2="5" style="visibility: inherit;" fill="rgb(0, 0, 0)" stroke="rgb(204, 204, 204)" stroke-width="1px"></line><line x1="99.74466641743977" y1="0" x2="99.74466641743977" y2="5" style="visibility: inherit;" fill="rgb(0, 0, 0)" stroke="rgb(204, 204, 204)" stroke-width="1px"></line><line x1="132.99288855658637" y1="0" x2="132.99288855658637" y2="5" style="visibility: inherit;" fill="rgb(0, 0, 0)" stroke="rgb(204, 204, 204)" stroke-width="1px"></line><line x1="166.24111069573297" y1="0" x2="166.24111069573297" y2="5" style="visibility: inherit;" fill="rgb(0, 0, 0)" stroke="rgb(204, 204, 204)" stroke-width="1px"></line><line x1="199.48933283487955" y1="0" x2="199.48933283487955" y2="5" style="visibility: inherit;" fill="rgb(0, 0, 0)" stroke="rgb(204, 204, 204)" stroke-width="1px"></line><line x1="232.73755497402615" y1="0" x2="232.73755497402615" y2="5" style="visibility: inherit;" fill="rgb(0, 0, 0)" stroke="rgb(204, 204, 204)" stroke-width="1px"></line><line x1="265.98577711317273" y1="0" x2="265.98577711317273" y2="5" style="visibility: inherit;" fill="rgb(0, 0, 0)" stroke="rgb(204, 204, 204)" stroke-width="1px"></line><line x1="299.23399925231934" y1="0" x2="299.23399925231934" y2="5" style="visibility: inherit;" fill="rgb(0, 0, 0)" stroke="rgb(204, 204, 204)" stroke-width="1px"></line></g><g transform="translate(0, 8)"><text style="text-anchor: middle; visibility: hidden; font-family: Roboto, sans-serif; font-size: 12px; font-weight: 200;" x="0" y="0" dx="0em" dy="0.95em" fill="rgb(33, 33, 33)" stroke="none" stroke-width="1px">-2k</text><text style="text-anchor: middle; visibility: inherit; font-family: Roboto, sans-serif; font-size: 12px; font-weight: 200;" x="33.24822213914659" y="0" dx="0em" dy="0.95em" fill="rgb(33, 33, 33)" stroke="none" stroke-width="1px">0</text><text style="text-anchor: middle; visibility: inherit; font-family: Roboto, sans-serif; font-size: 12px; font-weight: 200;" x="66.49644427829318" y="0" dx="0em" dy="0.95em" fill="rgb(33, 33, 33)" stroke="none" stroke-width="1px">2k</text><text style="text-anchor: middle; visibility: inherit; font-family: Roboto, sans-serif; font-size: 12px; font-weight: 200;" x="99.74466641743977" y="0" dx="0em" dy="0.95em" fill="rgb(33, 33, 33)" stroke="none" stroke-width="1px">4k</text><text style="text-anchor: middle; visibility: inherit; font-family: Roboto, sans-serif; font-size: 12px; font-weight: 200;" x="132.99288855658637" y="0" dx="0em" dy="0.95em" fill="rgb(33, 33, 33)" stroke="none" stroke-width="1px">6k</text><text style="text-anchor: middle; visibility: inherit; font-family: Roboto, sans-serif; font-size: 12px; font-weight: 200;" x="166.24111069573297" y="0" dx="0em" dy="0.95em" fill="rgb(33, 33, 33)" stroke="none" stroke-width="1px">8k</text><text style="text-anchor: middle; visibility: inherit; font-family: Roboto, sans-serif; font-size: 12px; font-weight: 200;" x="199.48933283487955" y="0" dx="0em" dy="0.95em" fill="rgb(33, 33, 33)" stroke="none" stroke-width="1px">10k</text><text style="text-anchor: middle; visibility: inherit; font-family: Roboto, sans-serif; font-size: 12px; font-weight: 200;" x="232.73755497402615" y="0" dx="0em" dy="0.95em" fill="rgb(33, 33, 33)" stroke="none" stroke-width="1px">12k</text><text style="text-anchor: middle; visibility: inherit; font-family: Roboto, sans-serif; font-size: 12px; font-weight: 200;" x="265.98577711317273" y="0" dx="0em" dy="0.95em" fill="rgb(33, 33, 33)" stroke="none" stroke-width="1px">14k</text><text style="text-anchor: middle; visibility: hidden; font-family: Roboto, sans-serif; font-size: 12px; font-weight: 200;" x="299.23399925231934" y="0" dx="0em" dy="0.95em" fill="rgb(33, 33, 33)" stroke="none" stroke-width="1px">16k</text></g><line x1="0" y1="0" x2="299.23399925231934" y2="0" fill="rgb(0, 0, 0)" stroke="rgb(204, 204, 204)" stroke-width="1px"></line></g></g></g></g></svg>