<svg viewBox="0 0 330 200" xmlns="http://www.w3.org/2000/svg"><g><g><g><g><g><line x1="51.53200149536133" y1="176.55199909210205" x2="46.53200149536133" y2="176.55199909210205" style="visibility: inherit;" fill="rgb(0, 0, 0)" stroke="rgb(204, 204, 204)" stroke-width="1px"></line><line x1="51.53200149536133" y1="162.97107608501722" x2="46.53200149536133" y2="162.97107608501722" style="visibility: inherit;" fill="rgb(0, 0, 0)" stroke="rgb(204, 204, 204)" stroke-width="1px"></line><line x1="51.53200149536133" y1="149.3901530779325" x2="46.53200149536133" y2="149.3901530779325" style="visibility: inherit;" fill="rgb(0, 0, 0)" stroke="rgb(204, 204, 204)" stroke-width="1px"></line><line x1="51.53200149536133" y1="135.80923007084763" x2="46.53200149536133" y2="135.80923007084763" style="visibility: inherit;" fill="rgb(0, 0, 0)" stroke="rgb(204, 204, 204)" stroke-width="1px"></line><line x1="51.53200149536133" y1="122.22830706376291" x2="46.53200149536133" y2="122.22830706376291" style="visibility: inherit;" fill="rgb(0, 0, 0)" stroke="rgb(204, 204, 204)" stroke-width="1px"></line><line x1="51.53200149536133" y1="108.64738405667815" x2="46.53200149536133" y2="108.64738405667815" style="visibility: inherit;" fill="rgb(0, 0, 0)" stroke="rgb(204, 204, 204)" stroke-width="1px"></line><line x1="51.53200149536133" y1="95.06646104959334" x2="46.53200149536133" y2="95.06646104959334" style="visibility: inherit;" fill="rgb(0, 0, 0)" stroke="rgb(204, 204, 204)" stroke-width="1px"></line><line x1="51.53200149536133" y1="81.48553804250864" x2="46.53200149536133" y2="81.48553804250864" style="visibility: inherit;" fill="rgb(0, 0, 0)" stroke="rgb(204, 204, 204)" stroke-width="1px"></line><line x1="51.53200149536133" y1="67.90461503542386" x2="46.53200149536133" y2="67.90461503542386" style="visibility: inherit;" fill="rgb(0, 0, 0)" stroke="rgb(204, 204, 204)" stroke-width="1px"></line><line x1="51.53200149536133" y1="54.323692028339075" x2="46.53200149536133" y2="54.323692028339075" style="visibility: inherit;" fill="rgb(0, 0, 0)" stroke="rgb(204, 204, 204)" stroke-width="1px"></line><line x1="51.53200149536133" y1="40.74276902125429" x2="46.53200149536133" y2="40.74276902125429" style="visibility: inherit;" fill="rgb(0, 0, 0)" stroke="rgb(204, 204, 204)" stroke-width="1px"></line><line x1="51.53200149536133" y1="27.16184601416951" x2="46.53200149536133" y2="27.16184601416951" style="visibility: inherit;" fill="rgb(0, 0, 0)" stroke="rgb(204, 204, 204)" stroke-width="1px"></line><line x1="51.53200149536133" y1="13.580923007084783" x2="46.53200149536133" y2="13.580923007084783" style="visibility: inherit;" fill="rgb(0, 0, 0)" stroke="rgb(204, 204, 204)" stroke-width="1px"></line><line x1="51.53200149536133" y1="0" x2="46.53200149536133" y2="0" style="visibility: inherit;" fill="rgb(0, 0, 0)" stroke="rgb(204, 204, 204)" stroke-width="1px"></line></g><g transform="translate(41.53200149536133, 0)"><text style="text-anchor: end; visibility: hidden; font-family: Roboto, sans-serif; font-size: 12px; font-weight: 200;" x="0" y="176.55199909210205" dx="0em" dy="0.3em" fill="rgb(33, 33, 33)" stroke="none" stroke-width="1px">-4.4</text><text style="text-anchor: end; visibility: inherit; font-family: Roboto, sans-serif; font-size: 12px; font-weight: 200;" x="0" y="162.97107608501722" dx="0em" dy="0.3em" fill="rgb(33, 33, 33)" stroke="none" stroke-width="1px">-4.3</text><text style="text-anchor: end; visibility: hidden; font-family: Roboto, sans-serif; font-size: 12px; font-weight: 200;" x="0" y="149.3901530779325" dx="0em" dy="0.3em" fill="rgb(33, 33, 33)" stroke="none" stroke-width="1px">-4.2</text><text style="text-anchor: end; visibility: inherit; font-family: Roboto, sans-serif; font-size: 12px; font-weight: 200;" x="0" y="135.80923007084763" dx="0em" dy="0.3em" fill="rgb(33, 33, 33)" stroke="none" stroke-width="1px">-4.1</text><text style="text-anchor: end; visibility: hidden; font-family: Roboto, sans-serif; font-size: 12px; font-weight: 200;" x="0" y="122.22830706376291" dx="0em" dy="0.3em" fill="rgb(33, 33, 33)" stroke="none" stroke-width="1px">-4</text><text style="text-anchor: end; visibility: inherit; font-family: Roboto, sans-serif; font-size: 12px; font-weight: 200;" x="0" y="108.64738405667815" dx="0em" dy="0.3em" fill="rgb(33, 33, 33)" stroke="none" stroke-width="1px">-3.9</text><text style="text-anchor: end; visibility: hidden; font-family: Roboto, sans-serif; font-size: 12px; font-weight: 200;" x="0" y="95.06646104959334" dx="0em" dy="0.3em" fill="rgb(33, 33, 33)" stroke="none" stroke-width="1px">-3.8</text><text style="text-anchor: end; visibility: inherit; font-family: Roboto, sans-serif; font-size: 12px; font-weight: 200;" x="0" y="81.48553804250864" dx="0em" dy="0.3em" fill="rgb(33, 33, 33)" stroke="none" stroke-width="1px">-3.7</text><text style="text-anchor: end; visibility: hidden; font-family: Roboto, sans-serif; font-size: 12px; font-weight: 200;" x="0" y="67.90461503542386" dx="0em" dy="0.3em" fill="rgb(33, 33, 33)" stroke="none" stroke-width="1px">-3.6</text><text style="text-anchor: end; visibility: inherit; font-family: Roboto, sans-serif; font-size: 12px; font-weight: 200;" x="0" y="54.323692028339075" dx="0em" dy="0.3em" fill="rgb(33, 33, 33)" stroke="none" stroke-width="1px">-3.5</text><text style="text-anchor: end; visibility: hidden; font-family: Roboto, sans-serif; font-size: 12px; font-weight: 200;" x="0" y="40.74276902125429" dx="0em" dy="0.3em" fill="rgb(33, 33, 33)" stroke="none" stroke-width="1px">-3.4</text><text style="text-anchor: end; visibility: inherit; font-family: Roboto, sans-serif; font-size: 12px; font-weight: 200;" x="0" y="27.16184601416951" dx="0em" dy="0.3em" fill="rgb(33, 33, 33)" stroke="none" stroke-width="1px">-3.3</text><text style="text-anchor: end; visibility: hidden; font-family: Roboto, sans-serif; font-size: 12px; font-weight: 200;" x="0" y="13.580923007084783" dx="0em" dy="0.3em" fill="rgb(33, 33, 33)" stroke="none" stroke-width="1px">-3.2</text><text style="text-anchor: end; visibility: hidden; font-family: Roboto, sans-serif; font-size: 12px; font-weight: 200;" x="0" y="0" dx="0em" dy="0.3em" fill="rgb(33, 33, 33)" stroke="none" stroke-width="1px">-3.1</text></g><line x1="51.53200149536133" y1="0" x2="51.53200149536133" y2="176.55199909210205" fill="rgb(0, 0, 0)" stroke="rgb(204, 204, 204)" stroke-width="1px"></line></g></g><g transform="translate(51, 0)" clip-path="url(#clip_0)"><clipPath id="clip_0"><rect width="278" height="176"></rect></clipPath><g><g><g><line x1="0" y1="0" x2="0" y2="176.55199909210205" fill="rgb(0, 0, 0)" stroke="rgb(66, 66, 66)" stroke-width="1px" opacity="0.25"></line><line x1="23.205666542053223" y1="0" x2="23.205666542053223" y2="176.55199909210205" fill="rgb(0, 0, 0)" stroke="rgb(66, 66, 66)" stroke-width="1px" opacity="0.25"></line><line x1="46.411333084106445" y1="0" x2="46.411333084106445" y2="176.55199909210205" fill="rgb(0, 0, 0)" stroke="rgb(66, 66, 66)" stroke-width="1px" opacity="0.25"></line><line x1="69.61699962615967" y1="0" x2="69.61699962615967" y2="176.55199909210205" fill="rgb(0, 0, 0)" stroke="rgb(66, 66, 66)" stroke-width="1px" opacity="0.25"></line><line x1="92.82266616821289" y1="0" x2="92.82266616821289" y2="176.55199909210205" fill="rgb(0, 0, 0)" stroke="rgb(66, 66, 66)" stroke-width="1px" opacity="0.25"></line><line x1="116.02833271026611" y1="0" x2="116.02833271026611" y2="176.55199909210205" fill="rgb(0, 0, 0)" stroke="rgb(66, 66, 66)" stroke-width="1px" opacity="0.25"></line><line x1="139.23399925231934" y1="0" x2="139.23399925231934" y2="176.55199909210205" fill="rgb(0, 0, 0)" stroke="rgb(66, 66, 66)" stroke-width="1px" opacity="0.25"></line><line x1="162.43966579437256" y1="0" x2="162.43966579437256" y2="176.55199909210205" fill="rgb(0, 0, 0)" stroke="rgb(66, 66, 66)" stroke-width="1px" opacity="0.25"></line><line x1="185.64533233642578" y1="0" x2="185.64533233642578" y2="176.55199909210205" fill="rgb(0, 0, 0)" stroke="rgb(66, 66, 66)" stroke-width="1px" opacity="0.25"></line><line x1="208.850998878479" y1="0" x2="208.850998878479" y2="176.55199909210205" fill="rgb(0, 0, 0)" stroke="rgb(66, 66, 66)" stroke-width="1px" opacity="0.25"></line><line x1="232.05666542053223" y1="0" x2="232.05666542053223" y2="176.55199909210205" fill="rgb(0, 0, 0)" stroke="rgb(66, 66, 66)" stroke-width="1px" opacity="0.25"></line><line x1="255.26233196258545" y1="0" x2="255.26233196258545" y2="176.55199909210205" fill="rgb(0, 0, 0)" stroke="rgb(66, 66, 66)" stroke-width="1px" opacity="0.25"></line><line x1="278.4679985046387" y1="0" x2="278.4679985046387" y2="176.55199909210205" fill="rgb(0, 0, 0)" stroke="rgb(66, 66, 66)" stroke-width="1px" opacity="0.25"></line></g><g><line x1="0" y1="176.55199909210205" x2="278.4679985046387" y2="176.55199909210205" fill="rgb(0, 0, 0)" stroke="rgb(66, 66, 66)" stroke-width="1px" opacity="0.25"></line><line x1="0" y1="162.97107608501722" x2="278.4679985046387" y2="162.97107608501722" fill="rgb(0, 0, 0)" stroke="rgb(66, 66, 66)" stroke-width="1px" opacity="0.25"></line><line x1="0" y1="149.3901530779325" x2="278.4679985046387" y2="149.3901530779325" fill="rgb(0, 0, 0)" stroke="rgb(66, 66, 66)" stroke-width="1px" opacity="0.25"></line><line x1="0" y1="135.80923007084763" x2="278.4679985046387" y2="135.80923007084763" fill="rgb(0, 0, 0)" stroke="rgb(66, 66, 66)" stroke-width="1px" opacity="0.25"></line><line x1="0" y1="122.22830706376291" x2="278.4679985046387" y2="122.22830706376291" fill="rgb(0, 0, 0)" stroke="rgb(66, 66, 66)" stroke-width="1px" opacity="0.25"></line><line x1="0" y1="108.64738405667815" x2="278.4679985046387" y2="108.64738405667815" fill="rgb(0, 0, 0)" stroke="rgb(66, 66, 66)" stroke-width="1px" opacity="0.25"></line><line x1="0" y1="95.06646104959334" x2="278.4679985046387" y2="95.06646104959334" fill="rgb(0, 0, 0)" stroke="rgb(66, 66, 66)" stroke-width="1px" opacity="0.25"></line><line x1="0" y1="81.48553804250864" x2="278.4679985046387" y2="81.48553804250864" fill="rgb(0, 0, 0)" stroke="rgb(66, 66, 66)" stroke-width="1px" opacity="0.25"></line><line x1="0" y1="67.90461503542386" x2="278.4679985046387" y2="67.90461503542386" fill="rgb(0, 0, 0)" stroke="rgb(66, 66, 66)" stroke-width="1px" opacity="0.25"></line><line x1="0" y1="54.323692028339075" x2="278.4679985046387" y2="54.323692028339075" fill="rgb(0, 0, 0)" stroke="rgb(66, 66, 66)" stroke-width="1px" opacity="0.25"></line><line x1="0" y1="40.74276902125429" x2="278.4679985046387" y2="40.74276902125429" fill="rgb(0, 0, 0)" stroke="rgb(66, 66, 66)" stroke-width="1px" opacity="0.25"></line><line x1="0" y1="27.16184601416951" x2="278.4679985046387" y2="27.16184601416951" fill="rgb(0, 0, 0)" stroke="rgb(66, 66, 66)" stroke-width="1px" opacity="0.25"></line><line x1="0" y1="13.580923007084783" x2="278.4679985046387" y2="13.580923007084783" fill="rgb(0, 0, 0)" stroke="rgb(66, 66, 66)" stroke-width="1px" opacity="0.25"></line><line x1="0" y1="0" x2="278.4679985046387" y2="0" fill="rgb(0, 0, 0)" stroke="rgb(66, 66, 66)" stroke-width="1px" opacity="0.25"></line></g></g></g><g><g><line x1="0" y1="-421.0086132196279" x2="278.4679985046387" y2="-421.0086132196279" fill="rgb(0, 0, 0)" stroke="rgb(153, 153, 153)" stroke-width="1.5px"></line></g></g><g><g><line x1="23.205666542053223" y1="0" x2="23.205666542053223" y2="176.55199909210205" fill="rgb(0, 0, 0)" stroke="rgb(153, 153, 153)" stroke-width="1.5px"></line></g></g><g><g><g><g><g><path style="fill: none;" stroke="rgb(255, 112, 67)" stroke-width="2px" d="M34.56484031438828,-0.9382597877381602L34.63445731401443,1.4980588541607593L34.84330831289291,3.830686461546553L34.878116812706,6.066103724240627L34.98254231214523,8.210262296162037L35.55108114242554,10.268637698920767L35.58588964223862,12.246276001454271L35.89916614055634,14.147835113554487L35.9687831401825,15.97762140465632L36.026797306537624,17.739622253865967L36.63014463663101,19.437535049087565L36.688158802986145,21.07479307909264L36.69976163625717,22.65458870010661L36.908612635135654,24.179894105864584L37.05944946765899,25.653479985440836L37.65119396448136,27.07793231530895L37.848442130088806,28.455667499715933L38.486597959995265,29.788946045867082L38.521406459808354,31.0798849366985L38.68384612560272,32.33046884371838L38.73025745868683,33.54256030480714L39.287193455696105,34.71790897676043L39.368413288593295,37.11495164088878L39.62367562055588,39.441467046567126L39.7629096198082,41.70052159668292L39.87893795251846,43.895006471106704L40.22702295064926,46.027649966340974L40.354654116630556,48.10102880686452L40.51709378242492,50.117578526780626L40.88838444709778,52.07960300970306L41.224866611957545,53.98928326545865L41.41051194429397,55.848685513887695L41.59615727663041,57.659768638739166L41.6425686097145,59.42439106819058L41.83981677532196,61.144317132794185L42.245915939807894,62.82122294657909L42.73323493719101,64.45670185251532L42.837660436630244,66.05226946953005L43.04651143550873,67.60936837467875L43.15093693494797,69.12937245087613L43.31337660074234,70.61359092772602L43.3365822672844,72.0632721404383L43.37139076709747,73.47960702950247L43.88191543102264,74.86373240175452L44.40404292821884,76.21673397159235L44.612893927097325,77.53964919944384L44.717319426536555,78.83346994308594L44.8681562590599,80.09914493604714L44.90296475887299,81.33758210611657L44.9957874250412,82.54965074586241L45.459900755882266,83.73618354606455L45.65714892148972,84.897978502056L45.77317725419998,86.03580070215136L45.80798575401306,87.15038400657336L46.4345387506485,88.24243262462977L46.57377274990082,89.31262259725942L46.84063791513443,90.36160319150792L47.304751245975496,91.38999821296957L47.31635407924652,92.39840724178302L47.40917674541474,93.38740679731578L47.45558807849884,94.35755143629548L47.536807911396025,95.3093747887849L48.15175807476044,96.24339053606215L48.23297790765762,97.16009333417709L48.59266573905945,98.05995968666555L48.63907707214356,98.94344876966645L48.73189973831177,99.81100321243427L48.824722404479985,100.66304983603722L48.87113373756409,101.50000035283891L49.10319040298462,102.32225202915627L49.16120456933976,103.13018831335054L49.17280740261078,103.92417943142921L49.40486406803131,104.70458295210386L49.462878234386444,105.47174432311476L49.86897739887238,106.22599738051667L49.98500573158264,106.9676648324993L50.12423973083496,107.69705871921516L50.42591339588166,108.41448084999631L50.530338895320895,109.12022321923817L50.936438059806825,109.81456840216686L50.94804089307785,110.49778993160251L50.9712465596199,111.17015265678722L51.481771223545074,111.8319130852575L51.57459388971329,112.48331970869162L51.67901938915252,113.1246133136031L51.70222505569458,113.75602727769162L51.76023922204972,114.37778785262287L52.05031005382538,114.99011443395509L52.061912887096405,115.59321981888496L52.17794121980668,116.18731045245818L52.201146886348724,116.7725866628315L52.25916105270386,117.34924288616119L52.42160071849823,117.91746788163617L52.49121771812439,118.47744493716915L52.59564321756363,118.61093827228834L52.76968571662903,119.15814966677517L52.83930271625519,119.69758660202119L54.3708767080307,120.22941332751769L54.57972770690918,120.75378949836501L55.009032537937166,121.16965217211238L55.17147220373153,121.5797689596147L55.57757136821747,121.98425792731047L56.54060652971268,121.7874465003285L56.81907452821732,121.59329944693096L57.6428756904602,121.40176312187317L57.73569835662842,121.21278531044791L58.153400354385376,121.02631518111964L58.466676852703095,121.13110120142152L58.50148535251618,121.23451484836703L59.17444968223572,121.33658285658053L59.89382534503937,121.2482495698911L60.079470677375795,121.34901222212723L60.28832167625427,121.44848868573791L60.2999245095253,121.54670338210671L60.69442084074021,121.64368011824334L60.81044917345047,121.73944210598295L60.845257673263546,121.83401198046921L60.856860506534574,121.9274118179538L60.880066173076635,122.01966315294071L60.89166900634766,122.11078699470238L61.564633336067196,122.557782612036L62.02874666690826,122.99938058925547L62.38843449831009,123.43567789035599L62.7017109966278,123.86676917066771L62.75972516298294,124.29274684516109L63.01498749494553,124.71370115433847L63.23544132709503,125.12972022781628L63.40948382616043,125.5408901456868L63.59512915849685,125.9472949977536L63.93161132335663,126.34901694072366L63.9664198231697,126.74613625343845L64.98746915102005,127.13873139022341L65.19632014989853,127.52687903242571L65.21952581644058,127.91065413821981L65.24273148298263,128.29012999073888L65.3123484826088,128.6653782446032L65.63722781419754,129.03646897091028L65.79966747999191,129.4034707007325L66.4494261431694,129.76645046720063L66.49583747625351,130.1254738462033L66.6234686422348,130.48060499577502L67.22681597232818,130.8319066942101L67.47047547101974,131.17944037695366L67.52848963737488,131.5232661723159L67.55169530391693,131.8634429360515L67.6677236366272,132.2000282848495L68.05061713457108,132.53307862876898L68.1898511338234,132.47411754009437L68.79319846391678,132.33842824007812L69.11807779550553,132.2041421200702L69.44295712709427,132.07123759251942L69.88386479139328,131.93969351043597L70.01149595737458,131.80948915620976L70.04630445718765,131.68060423076778L70.70766595363617,131.55301884305655L70.7656801199913,131.42671349984465L70.89331128597259,131.30166909582326L71.74031811475754,131.17786690400655L71.87955211400985,131.05528856641234L71.90275778055191,130.93391608501793L71.96077194690704,130.81373181298108L71.97237478017807,130.69471844611493L72.26244561195374,130.57685901461343L72.32045977830886,130.4601368750117L72.35526827812195,130.34453570237935L72.44809094429016,130.23003948273566L72.6801476097107,130.11663250568253L72.71495610952377,130.00429935724318L72.90060144186019,129.89302491290442L73.15586377382279,129.7827943308542L73.30670060634613,129.67359304540503L73.32990627288818,129.56540676060487L73.91004793643953,129.45822144402052L74.18851593494416,129.3520233206932L74.26973576784134,129.2467988672612L74.3393527674675,129.14253480624188L74.65262926578522,129.0392181004675L75.3371964287758,128.93683594767379L75.53444459438323,128.83537577523288L75.7781040930748,128.734825235027L76.33504009008408,128.63517219846037L76.36984858989716,128.53640475160154L76.91518175363541,128.4385111904553L77.24006108522414,128.34148001635887L77.33288375139236,128.24529993149932L77.37929508447647,128.14995983454608L77.47211775064468,128.05544881639923L77.90142258167266,127.96175615604577L77.9594367480278,127.86887131652364L78.33072741270065,127.77678394098939L78.42355007886887,127.68548384888526L78.77163507699966,127.59496103220499L78.91086907625198,127.50520565185259L78.93407474279402,127.41620803409458L79.37498240709306,127.32795866710043L79.51421640634537,127.2404481975692L80.00153540372848,127.153667427441L80.7905280661583,127.0676073106896L80.89495356559753,126.98225895019269L80.92976206541061,126.89761359468314L81.81157739400864,126.81366263576975L81.83478306055069,126.7303976050358L81.84638589382172,126.64781017120319L82.46133605718613,126.56589213736915L82.78621538877488,126.48463543830698L83.55200238466263,126.40403213783307L84.00451288223267,126.3240744262368L85.04876787662506,126.24475461777013L85.23441320896148,126.16606514819743L85.39685287475585,126.08799857240562L86.10462570428848,126.010547562066L86.35988803625106,125.933704903355L87.206894865036,125.85746349472537L87.23010053157806,125.78181634473088L87.60139119625092,125.70675656990105L87.87985919475555,125.63227739266371L88.04229886054992,125.55837213931702L88.54122069120407,125.48503423804756L88.8661000227928,125.41225721699223L88.88930568933486,125.3400347023462L88.93571702241898,125.2683604165124L89.10975952148438,125.1972281762927L89.58547568559646,125.12663189112112L89.62028418540956,125.05656556133475L90.23523434877396,124.98702327648397L90.60652501344681,124.91799921368171L90.80377317905426,124.84948763598643L90.83858167886734,124.78148289082246L91.23307801008224,124.71397940843529L91.25628367662429,124.64697170038089L91.33750350952148,124.58045435804556L91.75520550727845,124.51442205120121L91.99886500596999,124.44886952658972L92.27733300447463,124.38379160653906L92.33534717082978,124.31918318760829L92.40496417045593,124.25503923926242L92.71824066877366,124.19135480257455L92.95029733419418,124.12812498895678L93.00831150054933,124.0653449789175L93.18235399961472,124.00301002084421L93.24036816596984,123.94111542981354L93.739289996624,123.8796565864247L94.02936082839966,123.81862893565872L94.05256649494171,123.7580279857594L94.23821182727814,123.69784930714015L94.3542401599884,123.63808853131144L94.93438182353972,123.57874134983099L95.15483565568924,123.51980351327639L95.30567248821258,123.46127083023629L95.37528948783876,123.4031391663253L95.5261263203621,123.34540444321716L96.1874878168106,123.2880626376971L96.45435298204421,123.23110978073471L96.51236714839936,123.1745419565747L96.790835146904,123.11835530184551L96.91846631288529,123.0625460046876L97.04609747886657,123.00711030389589L97.19693431138991,122.95204448808245L97.47540230989455,122.89734489485359L98.57767147064209,122.84300791000499L98.58927430391311,122.78902996673152L98.63568563699722,122.73540754485134L98.86774230241775,122.68213717004865L99.49429529905319,122.62921541312741L99.61032363176346,122.57663888928238L99.83077746391297,122.52440425738286L100.4573304605484,122.4725082192694L100.56175595998764,122.42094751906721L100.6313729596138,122.3697189425092L100.70098995923995,122.31881931627355L100.73579845905304,122.26824550733441L100.81701829195022,122.21799442232401L100.90984095811844,122.16806300690713L100.94464945793152,122.11844824516683L101.08388345718383,122.0691471590035L101.39715995550155,122.02015680754278L101.44357128858567,121.97147428655677L101.57120245456696,121.92309672789341L102.48782628297805,121.87502129892022L102.65026594877243,121.82724520197405L102.74308861494065,121.77976567382477L102.91713111400604,121.73257998514576L103.67131527662278,121.6856854399967L104.00779744148254,121.63907937531381L104.04260594129562,121.59275916041047L104.34427960634231,121.54672219648693L104.5995419383049,121.50096591614806L105.66700259923935,121.45548778293096L105.75982526540757,121.41028529084035L106.02669043064117,121.3653559638919L106.23554142951966,121.32069735566532L106.94331425905227,121.27630704886387L107.30300209045411,121.23218265488151L107.91795225381851,121.18832181338037L108.04558341979981,121.14472219187188L108.25443441867827,121.10138148530817L108.37046275138854,121.05829741568009L108.38206558465957,121.0154677316209L108.60251941680909,120.97289020801843L108.8693845820427,120.93056264563344L109.0898384141922,120.88848287072484L109.54234891176223,120.84664873468117L109.57715741157533,120.80505811365772L109.6583772444725,120.7637089082221L109.77440557718276,120.72259904300304L109.80921407699584,120.68172646634764L109.98325657606125,120.64108914998349L110.36615007400512,120.60068508868572L110.58660390615464,120.56051229995154L111.50322773456573,120.52056882367839L111.90932689905166,120.48085272184967L112.10657506465913,120.44136207822288L112.28061756372452,120.40209499802644L112.40824872970582,120.36304960765824L112.47786572933197,120.32422405439192L112.76793656110763,120.28561650608631L112.8839648938179,120.24722515090095L113.09281589269638,120.20904819701465L113.22044705867768,120.17108387235102L113.25525555849076,120.13333042430583L113.48731222391129,120.09578611948173L113.58013489007949,120.05844924342472L113.69616322278976,120.02131810036674L114.1022623872757,119.9843910129714L114.16027655363082,119.9476663220847L114.86804938316345,119.91114238648879L114.87965221643447,119.87481758266028L115.25094288110733,119.83869030453276L115.84268737792968,119.80275896326268L115.9355100440979,119.76702198699888L116.34160920858383,119.73147782065628L116.46924037456513,119.69612492569304L116.60847437381744,119.66096177989067L116.80572253942489,119.62598687713846L118.12844553232193,119.59119872722086L118.17485686540604,119.55659585560828L118.33729653120041,119.52217680325174L118.53454469680787,119.48794012637953L118.60416169643402,119.45388439629816L119.09148069381713,119.42000819919573L119.27712602615357,119.3863101359492L119.40475719213487,119.3527888219339L119.60200535774231,119.31944288683545L119.83406202316284,119.28627097446677L119.89207618951797,119.2532717425853L119.91528185606002,119.22044386271473L119.9848988556862,119.18778601996907L120.21695552110673,119.15529691287875L120.25176402091981,119.1229752532208L120.30977818727493,119.09081976584989L120.41420368671417,119.05882918853331L121.45845868110656,119.0270022717877L121.49326718091966,118.99533777871851L121.81814651250839,118.96383448486205L121.87616067886351,118.93249117802947L121.93417484521866,118.90130665815325L122.60713917493821,118.87027973713656L122.9088128399849,118.83940923870388L123.01323833942412,118.80869399825423L123.396131837368,118.7781328627173L123.40773467063903,118.74772469041072L123.51216017007827,118.71746835089938L123.9530678343773,118.68736272485845L124.04589050054551,118.65740670393573L124.10390466690063,118.62759919061881L124.47519533157349,118.59793909810224L125.02052849531174,118.56842535015689L125.06693982839585,118.53905688100272L125.33380499362946,118.50983263518116L125.54265599250793,118.48075156743143L125.57746449232101,118.45181264256641L125.82112399101257,118.42301483535321L125.94875515699385,118.39435713039195L126.22722315549849,118.36583852200015L126.3084429883957,118.33745801409515L126.50569115400315,118.30921462008033L126.52889682054519,118.28110736273273L126.56370532035828,118.2531352740919L126.80736481904982,118.2252973953501L126.88858465194703,118.19759277674464L127.15544981718064,118.17002047745127L127.35269798278809,118.1425795654799L127.56154898166656,118.11526911757005L127.63116598129272,118.08808821908984L127.74719431400298,118.06103596393476L127.9676481461525,118.03411145442924L128.28092464447022,118.00731380122807L128.37374731063844,117.98064212322026L128.61740680933,117.95409554743459L129.44120797157288,117.92767320894508L130.26500913381577,117.90137425077826L130.34622896671294,117.875197823823L130.65950546503066,117.84914308673963L130.90316496372225,117.823209205872L131.20483862876893,117.79739535515918L131.30926412820816,117.7717007160496L131.680554792881,117.74612447741599L131.92421429157258,117.72066583547115L132.4231361222267,117.69532399368511L132.4579446220398,117.67009816270384L132.69000128746032,117.64498756026772L132.77122112035752,117.61999141113297L133.0728947854042,117.59510894699262L133.88509311437608,117.57033940639927L133.9895186138153,117.54568203468882L134.07073844671248,117.52113608390454L134.22157527923582,117.49670081272365L134.47683761119842,117.4723754863828L134.6044687771797,117.44815937660678L134.91774527549742,117.42405176153635L135.19621327400208,117.40005192565778L135.26583027362824,117.3761591597339L135.53269543886185,117.35237276073462L135.7415464377403,117.32869203176932L136.44931926727295,117.30511628202048L136.55374476671219,117.28164482667742L137.06426943063735,117.2582769868709L137.3891487622261,117.23501208960904L137.42395726203918,117.21184946771366L137.88807059288024,117.18878845975796L138.1665385913849,117.16582841000454L138.92072275400162,117.14296866834407L139.8257437491417,117.12020859023562L139.88375791549683,117.09754753664646L139.9185664153099,117.07498487399418L140.0810060811043,117.05251997408763L140.2202400803566,117.03015221407064L140.4871052455902,117.00788097636519L140.55672224521638,116.98570564861541L140.73076474428177,116.96362562363271L140.91641007661818,116.9416402993414L141.19487807512283,116.91974907872502L141.3921262407303,116.8979513697728L142.08829623699188,116.8762465854284L142.21592740297316,116.85463414353666L142.4479840683937,116.83311346679412L142.5292039012909,116.81168398269723L142.587218067646,116.79034512349415L143.8403240609169,116.76909632613338L143.87513256073,116.74793703221715L144.11879205942154,116.7268666879528L144.1768062257767,116.70588474410484L144.6757280564308,116.68499065594895L144.80335922241213,116.66418388322535L144.91938755512237,116.64346389009327L144.96579888820648,116.62283014508603L145.30228105306625,116.60228212106587L145.40670655250548,116.58181929518085L145.6735717177391,116.56144114882059L145.68517455101014,116.54114716757374L145.82440855026243,116.52093684118556L146.18409638166426,116.50080966351616L146.28852188110352,116.48076513249838L146.48577004671097,116.46080275009781L146.5437842130661,116.44092202227206L146.64820971250535,116.62813761735981L146.74103237867354,116.81459035536541L146.83385504484178,117.00028479673718L147.03110321044923,117.18522546566041L147.37918820858002,117.36941685041691L147.49521654129026,117.5528634037411L147.92452137231825,117.73556954317L148.02894687175748,117.91753965139186L148.04054970502852,118.0987780765881L148.29581203699112,118.27928913277256L148.37703186988833,118.45907710012668L148.70191120147706,118.63814622533036L148.8179395341873,118.816500721889L148.87595370054245,118.99414477045694L149.00358486652374,119.17108251915751L149.108010365963,119.34731808389785L149.27045003175735,119.5228555486821L149.71135769605638,119.69769896591913L149.74616619586942,119.87185235672803L150.14066252708434,120.04531971123949L150.18707386016845,120.2181049888934L150.45393902540206,120.39021211873397L150.52355602502823,120.56164499970035L150.54676169157028,120.73240750091473L151.01087502241134,120.90250346196679L151.0804920220375,120.90574820889515L151.10369768857956,120.90898033656947L151.23132885456087,120.91219991685566L151.28934302091596,120.91540702107493L151.45178268671035,120.91860172000953L151.5562081861496,120.92178408390758L151.74185351848604,120.92495418248775L152.03192435026168,120.92811208494503L152.25237818241118,120.93125785995464L152.35680368185044,120.93439157567806L152.56565468072893,120.93751329976651L152.87893117904665,120.94062309936714L153.14579634428023,120.94372104112634L153.16900201082228,120.94680719119532L153.18060484409332,120.94988161523445L153.8651720070839,120.88787189265653L153.89998050689695,120.82609694986736L154.0044060063362,120.76455548675317L154.44531367063524,120.70324621277587L155.03705816745756,120.64216784688608L155.6171998310089,120.58131911743543L155.71002249717714,120.52069876209065L156.12772449493409,120.68586207575939L156.32497266054153,120.85040766127307L156.55702932596205,121.01433889582087L156.8819086575508,121.17765913203338L156.9167171573639,121.34037169820556L156.99793699026108,121.50247989851646L157.02114265680314,121.6639870132485L157.21839082241058,121.82489629900222L157.31121348857877,121.98521098890969L157.41563898801803,122.14493429284597L157.58968148708342,122.30406939763766L157.77532681941986,122.46261946726943L158.2278373169899,122.62058764308836L158.36707131624223,122.77797704400558L158.50630531549453,122.77669731917194L158.6339364814758,122.77542226723959L158.79637614727022,122.93182668249624L158.81958181381225,123.08766191113472L159.2372838115692,123.24293097701471L159.65498580932618,123.39763688262849L159.96826230764387,123.55178260928953L160.14230480670926,123.70537111731838L160.4903898048401,123.85840534622812L160.76885780334473,124.01088821490586L160.9777088022232,124.16282262179416L161.36060230016707,124.1583832767535L161.6738787984848,124.30958650807193L161.82471563100816,124.4602485738337L161.8479212975502,124.61037229914263L162.09158079624174,124.75996048948662L162.1495949625969,124.90901593090746L162.31203462839127,125.05754139016891L162.42806296110152,125.20553961492315L162.48607712745667,125.35301333387565L162.56729696035387,125.49996525694829L162.78775079250337,125.64639807544079L162.92698479175567,125.79231446218996L164.05245961904527,125.93771707172806L164.22650211811066,126.08260854043957L164.35413328409194,126.22699148671555L164.40054461717605,126.37086851110719L164.5861899495125,126.30047822500451L164.96908344745637,126.44383120135484L165.0735089468956,126.58668427786408L165.58403361082077,126.72903999372855L165.81609027624128,126.87090087099031L165.85089877605438,127.01226941468192L166.03654410839079,127.15314811296928L166.22218944072722,127.29353943729392L167.04599060297014,127.43344584251294L167.15041610240934,127.57286976703784L167.5101039338112,127.71181363297262L167.7305577659607,127.85027984624874L167.76536626577376,127.98827079676157L168.02062859773636,128.12578885850183L168.7748127603531,128.26283638968965L168.8676354265213,128.39941573290352L169.11129492521286,128.5355292152114L169.36655725717546,128.67117914829757L169.70303942203523,128.80636782859045L170.23676975250243,128.94109753738772L170.5616490840912,129.0753705409813L171.24621624708178,129.20918909078003L171.43186157941818,129.34255542343163L171.79154941082,129.4754717609443L172.12803157567978,129.6079403108053L172.41810240745545,129.73996326609964L172.47611657381057,129.87154280562817L172.6269534063339,130.00268109402276L172.77779023885728,130.1333802818616L172.8474072384834,130.26364250578305L173.33472623586655,130.39346988859876L173.3463290691376,130.52286453940513L173.57838573455808,130.65182855369338L174.25135006427766,130.78036401346006L174.4485982298851,130.90847298731515L174.76187472820283,131.0361575305889L174.77347756147384,131.16341968543898L174.86630022764206,131.29026148095613L175.00553422689438,131.4166849332669L175.14476822614668,131.54269204563934L175.3188107252121,131.66828480858317L175.3652220582962,131.79346519995298L175.56247022390366,131.91823518504756L175.77132122278215,132.0425967167095L175.9801722216606,132.16655173542475L176.15421472072603,132.29010216941842L176.27024305343627,132.41324993475325L176.30505155324937,132.53599693542418L176.44428555250167,132.6583450634539L176.4558883857727,132.78029619898655L176.50229971885682,132.9018522103806L176.82717905044555,133.0230149543016L177.12885271549226,133.143786275813L177.51174621343614,133.26416800846727L177.68578871250153,133.38416197439471L178.10349071025846,133.50376998439296L178.71844087362288,133.62299383801465L178.764852206707,133.74183532365473L178.99690887212753,133.86029621863688L179.56544770240785,133.9783782892987L179.9019298672676,134.09608329107684L180.3892488646507,134.21341296859092L180.98099336147308,134.33036905572686L181.15503586053848,134.44695327571867L181.2478585267067,134.5631673412309L181.31747552633286,134.67901295443954L181.89761718988416,134.79449180711137L181.93242568969725,134.90960558068448L181.96723418951035,135.0243559463464L182.1180710220337,135.13874456511198L182.4313475203514,135.2527730879012L182.72141835212707,135.3664431556156L182.80263818502428,135.47975639921367L183.05790051698685,135.59271443978656L183.45239684820174,135.70531888863277L183.85849601268768,135.81757134733172L184.1253611779213,135.92947340781635L184.1601696777344,136.04102665244707L184.31100651025773,136.15223265408244L184.3574178433418,136.26309297615038L184.92595667362212,136.37360917271997L184.93755950689314,136.48378278856984L185.15801333904267,136.59361535925856L185.19282183885574,136.7031084111927L185.29724733829497,136.8122634616957L185.308850171566,136.92108201907456L185.37846717119217,137.0295655826872L185.6105238366127,137.13771564300836L185.63372950315477,137.24553368169572L186.58516183137894,137.35302117165506L186.65477883100507,137.4601795771041L187.5249913263321,137.56701035363722L188.2211613225937,137.67351494828844L188.29077832221986,137.77969479959472L188.55764348745345,137.8855513376578L188.98694831848144,137.99108598420597L188.99855115175248,138.09630015265577L189.06816815137864,138.20119524817187L189.17259365081787,138.305772667728L189.36984181642532,138.41003380016605L189.50907581567765,138.51398002625558L189.5786928153038,138.61761271875167L189.81074948072435,138.72093324245395L189.85716081380843,138.82394295426354L190.26325997829437,138.92664320324008L190.8434016418457,139.02903533065867L191.12186964035035,139.13112067006574L191.38873480558394,139.23290054733488L191.80643680334092,139.33437628072133L192.08490480184557,139.43554918091758L192.1197133016586,139.5364205511068L192.81588329792024,139.63699168701672L192.98992579698563,139.73726387697286L193.05954279661177,139.8372384019517L193.40762779474258,139.9369165356326L193.5120532941818,140.0362995444498L193.55846462726595,140.13538868764374L193.62808162689208,140.2341852173129L194.31264878988267,140.33269037846267L194.45188278913497,140.4309054090579L194.69554228782656,140.52883154007012L194.70714512109757,140.62646999552862L194.75355645418165,140.72382199256853L194.79996778726576,140.8208887414797L194.8463791203499,140.9176714457546L195.04362728595734,141.01417130213542L195.1132442855835,141.1103895006629L195.15965561866759,141.2063272247214L195.47293211698533,141.30198565108637L195.78620861530302,141.39736594997038L196.00666244745256,141.49246928506813L196.3779531121254,141.58729681360336L196.38955594539644,141.68184968637183L196.40115877866745,141.776129047787L196.67962677717207,141.8701360359244L197.4338109397888,141.9638717825647L197.57304493904115,142.05733741323795L198.30402343511582,142.15053404726572L198.79134243249894,142.2434627978053L198.83775376558305,142.33612477189044L199.3482784295082,142.42852107047472L199.56873226165771,142.52065278847263L199.9980370926857,142.612521014801L200.3461220908165,142.70412683242L200.4273419237137,142.79547131837424L200.54337025642394,142.8865555438324L200.75222125530243,142.9773805741276L201.01908642053604,143.0679474687976L201.2163345861435,143.15825728162307L201.28595158576965,143.24831106066787L201.36717141866686,143.33810984831678L201.9125045824051,143.42765468131452L201.9705187487602,143.51694659080366L202.15616408109665,143.60598660236238L202.2257810807228,143.69477573604212L202.34180941343305,143.78331500640422L202.55066041231154,143.8716054225582L202.747908577919,143.9596479881963L202.77111424446105,144.0474437016318L203.14240490913392,144.13499355583338L203.37446157455443,144.22229853846216L203.50209274053572,144.3093596319064L204.04742590427398,144.39617781331646L204.1866599035263,144.48275405464062L204.3142910695076,144.5690893226585L205.0568723988533,144.65518457901626L205.41656023025513,144.7410407802605L205.84586506128312,144.8266588778712L206.12433305978774,144.9120398182966L206.228758559227,144.99718454298514L206.29837555885317,145.0820939884193L206.47241805791856,145.1667690861485L206.669666223526,145.2512107628201L206.8321058893204,145.33541994021297L206.86691438913343,145.41939753526933L207.08736822128296,145.50314446012615L207.30782205343246,145.58666162214644L208.61894221305846,145.66994992395044L208.7117648792267,145.75301026344712L208.78138187885284,145.8358435338643L209.0598498773575,145.91845062377948L209.0714527106285,146.00083241714992L209.51236037492754,146.08298979334265L209.82563687324523,146.16492362716426L209.96487087249756,146.2466347888906L210.2085303711891,146.32812414429546L210.89309753417967,146.40939255468078L211.043934366703,146.49044087690424L211.1599626994133,146.57126996340878L211.20637403249742,146.6518806622509L211.75170719623566,146.73227381712812L212.58711119174956,146.8124502674078L212.84237352371215,146.89241084815492L212.88878485679626,146.9721563901588L212.9119905233383,147.05168771996125L212.92359335660933,147.13100565988324L213.0396216893196,147.21011102805167L213.27167835474015,147.2890046384272L213.57335201978682,147.3676873008289L213.96784835100175,147.4461598209625L214.07227385044098,147.52442300044484L214.72203251361847,147.60247763683134L215.3485855102539,147.6803245236398L215.6502591753006,147.75796445037776L215.70827334165574,147.83539820256703L215.94033000707628,147.9126265617685L216.5320745038986,147.98965030560774L216.57848583698274,148.06647020779923L216.94977650165558,148.14308703817125L217.51831533193587,148.21950156269023L217.7503719973564,148.29571454348448L218.12166266202928,148.37172673886894L218.23769099473952,148.4475389033686L218.24929382801054,148.5231517877422L218.53936465978623,148.5985661390055L218.64379015922546,148.67378270045515L218.8062298250198,148.74880221169133L219.29354882240295,148.82362540864082L219.58361965417862,148.89825302357997L220.45383214950562,148.97268578515684L221.23122197866442,149.04692441841408L221.59090981006622,149.1209696448116L221.98540614128115,149.19482218224752L221.99700897455213,149.26848274508149L222.25227130651473,149.34195204415488L222.69317897081376,149.41523078681413L222.7511931371689,149.48831967693098L222.809207303524,149.56121941492452L222.9252356362343,149.63393069778198L223.238512134552,149.7064542190796L223.25011496782304,149.77879066900366L223.3313348007202,149.8509407343714L223.4937744665146,149.92290509865137L223.62140563249588,149.99468444198365L223.83025663137437,150.06627944120027L223.85346229791642,150.13769076984536L224.12032746315,150.20891909819497L224.13193029642105,150.27996509327707L224.14353312969206,150.35082941889078L224.17834162950516,150.42151273562655L224.39879546165466,150.49201570088476L224.8048946261406,150.56233896889572L225.00214279174807,150.63248319073833L225.1529796242714,150.70244901435888L225.16458245754242,150.77223708459059L225.2806107902527,150.84184804317127L225.40824195623395,150.91128252876297L225.52427028894425,150.98054117696935L225.61709295511244,151.04962462035485L225.73312128782274,151.11853348846216L226.30166011810303,151.18726840783103L226.39448278427122,151.2558300020153L226.44089411735536,151.32421889160116L226.7657734489441,151.3924356942246L226.92821311473844,151.4604810245893L226.99783011436463,151.52835549448358L227.16026978015898,151.59605971279743L227.18347544670104,151.66359428554114L227.26469527959824,151.73095981586022L227.34591511249542,151.79815690405394L227.35751794576643,151.86518614759092L227.40392927885057,151.93204814112727L227.6940001106262,151.99874347652118L227.8100284433365,152.06527274285133L227.85643977642061,152.13163652643163L228.04208510875702,152.19783541082901L228.2045247745514,152.26386997687726L228.62222677230832,152.3297408026956L228.63382960557936,152.39544846370242L228.71504943847657,152.4609935326324L228.84268060445785,152.52637657955117L229.41121943473814,152.5915981718719L229.42282226800918,152.65665887436973L229.4808364343643,152.7215592491976L229.79411293268203,152.78629985590138L230.00296393156052,152.85088125143466L230.23502059698106,152.91530399017466L231.522935090065,152.9795686239356L231.62736058950426,153.0436757019854L231.81300592184067,153.10762577105868L231.84781442165374,153.1714193753722L231.952239921093,153.235057056639L232.27711925268173,153.29853935408335L232.67161558389662,153.36186680445442L232.68321841716767,153.42503994204083L232.7876439166069,153.48805929868433L232.82245241641996,153.55092540379437L233.27496291399004,153.6136387843615L233.44900541305543,153.67619996497146L233.56503374576567,153.7386094678189L233.73907624483107,153.8008678127209L233.76228191137312,153.8629755171303L233.85510457754137,153.92493309614935L234.04074990987777,153.98674106254356L234.27280657529832,154.04839992675355L234.55127457380294,154.10991019690982L234.80653690576554,154.17127237884472L235.13141623735427,154.23248697610586L235.2706502366066,154.2935544899688L235.7579692339897,154.35447541945032L235.7927777338028,154.41525026132047L236.26849389791488,154.47587951011565L236.36131656408313,154.53636365815112L237.30114605903626,154.5967031955335L237.3127488923073,154.65689861017262L238.3221953868866,154.71695038779487L238.4150180530548,154.77685901195386L238.92554271697998,154.83662496404463L238.93714555025102,154.89624872331365L239.52889004707336,154.95573076687205L239.6333155465126,155.015071569707L240.22506004333496,155.07427160469382L240.34108837604524,155.13333134260756L240.4223082089424,155.19225125213438L240.48032237529756,155.25103179988378L240.75879037380219,155.3096734503995L241.18809520483018,155.36817666617114L241.38534337043762,155.42654190764586L241.87266236782074,155.48476963323873L242.42959836483004,155.54286029934516L242.89371169567107,155.60081436035094L243.18378252744677,155.6586322686438L243.40423635959624,155.7163144746245L243.4622505259514,155.77386142671753L243.52026469230654,155.83127357138198L243.729115691185,155.88855135312207L243.78712985754012,155.94569521449822L243.84514402389527,156.00270559613762L243.98437802314757,156.05958293674456L244.22803752183916,156.11632767311133L244.7733706855774,156.17294024012745L245.01703018426895,156.229421070792L245.44633501529694,156.2857705962225L245.63198034763337,156.3419892456647L246.02647667884824,156.39807744650452L246.15410784482955,156.4540356242763L246.3049446773529,156.50986420267398L246.73424950838088,156.5655636035603L246.81546934127806,156.62113424697742L246.86188067436217,156.67657655115616L247.15195150613786,156.73189093252589L247.45362517118454,156.78707780572427L248.3934546661377,156.8421375836072L248.42826316595077,156.89707067725766L248.4862773323059,156.9518774959959L249.06641899585722,157.0065584473886L249.29847566127776,157.06111393725828L249.47251816034316,157.1155443696926L249.50732666015625,157.1698501470537L249.5305323266983,157.2240316699872L249.76258899211885,157.27808933743174L249.83220599174498,157.33202354662794L250.0990711569786,157.3858346931268L250.38914198875426,157.4395231707997L250.41234765529632,157.4930893718467L250.56318448781965,157.54653368680545L250.8068439865112,157.59985650456034L251.02729781866074,157.6530582123505L251.0969148182869,157.70613919577943L251.25935448408129,157.75909983882272L251.38698565006257,157.81194052383765L251.4914111495018,157.86466163157064L251.5378224825859,157.91726354116673L252.02514147996902,157.96974663017681L252.1063613128662,158.02211127456752L252.1527726459503,158.07435784872825L252.21078681230546,158.1264867254799L252.2223896455765,158.17849827608313L252.68650297641753,158.23039287024656L252.90695680856703,158.28217087613478L253.22023330688475,158.3338326603762L253.4870984721184,158.38537858807166L253.82358063697814,158.43680902280158L254.29929680109024,158.48812432663462L254.4153251338005,158.53932486013488L254.5545591330528,158.59041098237054L254.75180729866028,158.6413830509206L254.9374526309967,158.69224142188352L255.03027529716493,158.7429864498838L255.13470079660414,158.7936184880812L255.21592062950134,158.84413788817653L255.6800339603424,158.89454500042083L255.7612537932396,158.94484017362123L255.83087079286577,158.99502375514984L255.8888849592209,159.04509609094993L255.95850195884705,159.0950575255444L255.99331045866012,159.144908402042L256.8751257872582,159.19464906214526L256.8867286205292,159.2442798461578L256.9099342870712,159.2938010929905L256.9911541199684,159.34321314016995L257.1303881192207,159.39251632384466L257.39725328445434,159.4417109787923L257.43206178426743,159.49079743842665L257.79174961566923,159.53977603480462L258.0470119476318,159.58864709863334L258.105026113987,159.63741095927654L258.1398346138001,159.68606794476148L258.1978487801552,159.73461838178648L258.67356494426724,159.78306259572628L258.84760744333266,159.83140091064018L259.0216499423981,159.87963364927768L259.1260754418373,159.92776113308534L259.1492811083794,159.97578368221366L259.3697349405289,160.02370161552352L259.6017916059494,160.07151525059191L259.71781993865966,160.1192249037197L259.88025960445407,160.16683088993713L259.8918624377251,160.21433352301045L260.3559757685661,160.2617331154479L260.3791814351082,160.30902997850706L260.63444376707076,160.3562244221996L260.8548975992203,160.40331675529922" fill="none"></path></g></g></g></g><g opacity="0.2"><g><g><g><path style="fill: none;" stroke="rgb(255, 112, 67)" stroke-width="2px" d="M26.384842858314514,-421.0086132196279L26.790942022800447,108.64739700845563L26.814147689342498,108.64739700845563L26.906970355510712,108.64739700845563L27.243452520370482,108.64739700845563L27.475509185791015,108.64739700845563L28.102062182426454,108.64739700845563L28.55457267999649,108.64739700845563L28.717012345790863,108.64739700845563L29.436388008594513,108.64739700845563L29.749664506912232,108.64739700845563L29.935309839248657,108.64739700845563L30.016529672145843,108.64739700845563L30.02813250541687,108.64739700845563L30.41102600336075,108.64739700845563L30.57346566915512,108.64739700845563L30.72430250167847,108.64739700845563L30.88674216747284,108.64739700845563L31.002770500183107,108.64739700845563L31.50169233083725,108.64739700845563L31.59451499700546,108.64739700845563L32.09343682765961,108.64739700845563L32.13984816074371,108.64739700845563L32.163053827285765,108.64739700845563L32.32549349308014,108.64739700845563L32.34869915962219,108.64739700845563L32.429918992519376,108.64739700845563L32.52274165868759,108.64739700845563L32.59235865831375,108.64739700845563L32.917237989902496,108.64739700845563L34.181946816444395,108.64739700845563L34.48362048149109,108.64739700845563L34.495223314762114,108.64739700845563L34.56484031438828,108.64739700845563L34.63445731401443,108.64739700845563L34.84330831289291,108.64739700845563L34.878116812706,108.64739700845563L34.98254231214523,108.64739700845563L35.55108114242554,108.64739700845563L35.58588964223862,108.64739700845563L35.89916614055634,108.64739700845563L35.9687831401825,108.64739700845563L36.026797306537624,108.64739700845563L36.63014463663101,108.64739700845563L36.688158802986145,108.64739700845563L36.69976163625717,108.64739700845563L36.908612635135654,108.64739700845563L37.05944946765899,108.64739700845563L37.65119396448136,108.64739700845563L37.848442130088806,108.64739700845563L38.486597959995265,108.64739700845563L38.521406459808354,108.64739700845563L38.68384612560272,108.64739700845563L38.73025745868683,108.64739700845563L39.287193455696105,108.64739700845563L39.368413288593295,190.13292209918677L52.49121771812439,190.13292209918677L52.59564321756363,135.8092171190702L52.76968571662903,190.13292209918677L55.57757136821747,176.55201204387944L56.54060652971268,95.06645457370465L56.81907452821732,95.06645457370465L57.6428756904602,95.06645457370465L57.73569835662842,95.06645457370465L58.153400354385376,95.06645457370465L58.466676852703095,135.8092171190702L58.50148535251618,135.8092171190702L59.17444968223572,135.8092171190702L59.89382534503937,108.64739700845563L60.079470677375795,135.8092171190702L60.28832167625427,135.8092171190702L60.2999245095253,135.8092171190702L60.69442084074021,135.8092171190702L60.81044917345047,135.8092171190702L60.845257673263546,135.8092171190702L60.856860506534574,135.8092171190702L60.880066173076635,135.8092171190702L60.89166900634766,135.8092171190702L61.564633336067196,190.13292209918677L68.05061713457108,190.13292209918677L68.1898511338234,122.22830706376291L68.79319846391678,108.64739700845563L69.11807779550553,108.64739700845563L69.44295712709427,108.64739700845563L69.88386479139328,108.64739700845563L70.01149595737458,108.64739700845563L70.04630445718765,108.64739700845563L70.70766595363617,108.64739700845563L70.7656801199913,108.64739700845563L70.89331128597259,108.64739700845563L71.74031811475754,108.64739700845563L71.87955211400985,108.64739700845563L71.90275778055191,108.64739700845563L71.96077194690704,108.64739700845563L71.97237478017807,108.64739700845563L72.26244561195374,108.64739700845563L72.32045977830886,108.64739700845563L72.35526827812195,108.64739700845563L72.44809094429016,108.64739700845563L72.6801476097107,108.64739700845563L72.71495610952377,108.64739700845563L72.90060144186019,108.64739700845563L73.15586377382279,108.64739700845563L73.30670060634613,108.64739700845563L73.32990627288818,108.64739700845563L73.91004793643953,108.64739700845563L74.18851593494416,108.64739700845563L74.26973576784134,108.64739700845563L74.3393527674675,108.64739700845563L74.65262926578522,108.64739700845563L75.3371964287758,108.64739700845563L75.53444459438323,108.64739700845563L75.7781040930748,108.64739700845563L76.33504009008408,108.64739700845563L76.36984858989716,108.64739700845563L76.91518175363541,108.64739700845563L77.24006108522414,108.64739700845563L77.33288375139236,108.64739700845563L77.37929508447647,108.64739700845563L77.47211775064468,108.64739700845563L77.90142258167266,108.64739700845563L77.9594367480278,108.64739700845563L78.33072741270065,108.64739700845563L78.42355007886887,108.64739700845563L78.77163507699966,108.64739700845563L78.91086907625198,108.64739700845563L78.93407474279402,108.64739700845563L79.37498240709306,108.64739700845563L79.51421640634537,108.64739700845563L80.00153540372848,108.64739700845563L80.7905280661583,108.64739700845563L80.89495356559753,108.64739700845563L80.92976206541061,108.64739700845563L81.81157739400864,108.64739700845563L81.83478306055069,108.64739700845563L81.84638589382172,108.64739700845563L82.46133605718613,108.64739700845563L82.78621538877488,108.64739700845563L83.55200238466263,108.64739700845563L84.00451288223267,108.64739700845563L85.04876787662506,108.64739700845563L85.23441320896148,108.64739700845563L85.39685287475585,108.64739700845563L86.10462570428848,108.64739700845563L86.35988803625106,108.64739700845563L87.206894865036,108.64739700845563L87.23010053157806,108.64739700845563L87.60139119625092,108.64739700845563L87.87985919475555,108.64739700845563L88.04229886054992,108.64739700845563L88.54122069120407,108.64739700845563L88.8661000227928,108.64739700845563L88.88930568933486,108.64739700845563L88.93571702241898,108.64739700845563L89.10975952148438,108.64739700845563L89.58547568559646,108.64739700845563L89.62028418540956,108.64739700845563L90.23523434877396,108.64739700845563L90.60652501344681,108.64739700845563L90.80377317905426,108.64739700845563L90.83858167886734,108.64739700845563L91.23307801008224,108.64739700845563L91.25628367662429,108.64739700845563L91.33750350952148,108.64739700845563L91.75520550727845,108.64739700845563L91.99886500596999,108.64739700845563L92.27733300447463,108.64739700845563L92.33534717082978,108.64739700845563L92.40496417045593,108.64739700845563L92.71824066877366,108.64739700845563L92.95029733419418,108.64739700845563L93.00831150054933,108.64739700845563L93.18235399961472,108.64739700845563L93.24036816596984,108.64739700845563L93.739289996624,108.64739700845563L94.02936082839966,108.64739700845563L94.05256649494171,108.64739700845563L94.23821182727814,108.64739700845563L94.3542401599884,108.64739700845563L94.93438182353972,108.64739700845563L95.15483565568924,108.64739700845563L95.30567248821258,108.64739700845563L95.37528948783876,108.64739700845563L95.5261263203621,108.64739700845563L96.1874878168106,108.64739700845563L96.45435298204421,108.64739700845563L96.51236714839936,108.64739700845563L96.790835146904,108.64739700845563L96.91846631288529,108.64739700845563L97.04609747886657,108.64739700845563L97.19693431138991,108.64739700845563L97.47540230989455,108.64739700845563L98.57767147064209,108.64739700845563L98.58927430391311,108.64739700845563L98.63568563699722,108.64739700845563L98.86774230241775,108.64739700845563L99.49429529905319,108.64739700845563L99.61032363176346,108.64739700845563L99.83077746391297,108.64739700845563L100.4573304605484,108.64739700845563L100.56175595998764,108.64739700845563L100.6313729596138,108.64739700845563L100.70098995923995,108.64739700845563L100.73579845905304,108.64739700845563L100.81701829195022,108.64739700845563L100.90984095811844,108.64739700845563L100.94464945793152,108.64739700845563L101.08388345718383,108.64739700845563L101.39715995550155,108.64739700845563L101.44357128858567,108.64739700845563L101.57120245456696,108.64739700845563L102.48782628297805,108.64739700845563L102.65026594877243,108.64739700845563L102.74308861494065,108.64739700845563L102.91713111400604,108.64739700845563L103.67131527662278,108.64739700845563L104.00779744148254,108.64739700845563L104.04260594129562,108.64739700845563L104.34427960634231,108.64739700845563L104.5995419383049,108.64739700845563L105.66700259923935,108.64739700845563L105.75982526540757,108.64739700845563L106.02669043064117,108.64739700845563L106.23554142951966,108.64739700845563L106.94331425905227,108.64739700845563L107.30300209045411,108.64739700845563L107.91795225381851,108.64739700845563L108.04558341979981,108.64739700845563L108.25443441867827,108.64739700845563L108.37046275138854,108.64739700845563L108.38206558465957,108.64739700845563L108.60251941680909,108.64739700845563L108.8693845820427,108.64739700845563L109.0898384141922,108.64739700845563L109.54234891176223,108.64739700845563L109.57715741157533,108.64739700845563L109.6583772444725,108.64739700845563L109.77440557718276,108.64739700845563L109.80921407699584,108.64739700845563L109.98325657606125,108.64739700845563L110.36615007400512,108.64739700845563L110.58660390615464,108.64739700845563L111.50322773456573,108.64739700845563L111.90932689905166,108.64739700845563L112.10657506465913,108.64739700845563L112.28061756372452,108.64739700845563L112.40824872970582,108.64739700845563L112.47786572933197,108.64739700845563L112.76793656110763,108.64739700845563L112.8839648938179,108.64739700845563L113.09281589269638,108.64739700845563L113.22044705867768,108.64739700845563L113.25525555849076,108.64739700845563L113.48731222391129,108.64739700845563L113.58013489007949,108.64739700845563L113.69616322278976,108.64739700845563L114.1022623872757,108.64739700845563L114.16027655363082,108.64739700845563L114.86804938316345,108.64739700845563L114.87965221643447,108.64739700845563L115.25094288110733,108.64739700845563L115.84268737792968,108.64739700845563L115.9355100440979,108.64739700845563L116.34160920858383,108.64739700845563L116.46924037456513,108.64739700845563L116.60847437381744,108.64739700845563L116.80572253942489,108.64739700845563L118.12844553232193,108.64739700845563L118.17485686540604,108.64739700845563L118.33729653120041,108.64739700845563L118.53454469680787,108.64739700845563L118.60416169643402,108.64739700845563L119.09148069381713,108.64739700845563L119.27712602615357,108.64739700845563L119.40475719213487,108.64739700845563L119.60200535774231,108.64739700845563L119.83406202316284,108.64739700845563L119.89207618951797,108.64739700845563L119.91528185606002,108.64739700845563L119.9848988556862,108.64739700845563L120.21695552110673,108.64739700845563L120.25176402091981,108.64739700845563L120.30977818727493,108.64739700845563L120.41420368671417,108.64739700845563L121.45845868110656,108.64739700845563L121.49326718091966,108.64739700845563L121.81814651250839,108.64739700845563L121.87616067886351,108.64739700845563L121.93417484521866,108.64739700845563L122.60713917493821,108.64739700845563L122.9088128399849,108.64739700845563L123.01323833942412,108.64739700845563L123.396131837368,108.64739700845563L123.40773467063903,108.64739700845563L123.51216017007827,108.64739700845563L123.9530678343773,108.64739700845563L124.04589050054551,108.64739700845563L124.10390466690063,108.64739700845563L124.47519533157349,108.64739700845563L125.02052849531174,108.64739700845563L125.06693982839585,108.64739700845563L125.33380499362946,108.64739700845563L125.54265599250793,108.64739700845563L125.57746449232101,108.64739700845563L125.82112399101257,108.64739700845563L125.94875515699385,108.64739700845563L126.22722315549849,108.64739700845563L126.3084429883957,108.64739700845563L126.50569115400315,108.64739700845563L126.52889682054519,108.64739700845563L126.56370532035828,108.64739700845563L126.80736481904982,108.64739700845563L126.88858465194703,108.64739700845563L127.15544981718064,108.64739700845563L127.35269798278809,108.64739700845563L127.56154898166656,108.64739700845563L127.63116598129272,108.64739700845563L127.74719431400298,108.64739700845563L127.9676481461525,108.64739700845563L128.28092464447022,108.64739700845563L128.37374731063844,108.64739700845563L128.61740680933,108.64739700845563L129.44120797157288,108.64739700845563L130.26500913381577,108.64739700845563L130.34622896671294,108.64739700845563L130.65950546503066,108.64739700845563L130.90316496372225,108.64739700845563L131.20483862876893,108.64739700845563L131.30926412820816,108.64739700845563L131.680554792881,108.64739700845563L131.92421429157258,108.64739700845563L132.4231361222267,108.64739700845563L132.4579446220398,108.64739700845563L132.69000128746032,108.64739700845563L132.77122112035752,108.64739700845563L133.0728947854042,108.64739700845563L133.88509311437608,108.64739700845563L133.9895186138153,108.64739700845563L134.07073844671248,108.64739700845563L134.22157527923582,108.64739700845563L134.47683761119842,108.64739700845563L134.6044687771797,108.64739700845563L134.91774527549742,108.64739700845563L135.19621327400208,108.64739700845563L135.26583027362824,108.64739700845563L135.53269543886185,108.64739700845563L135.7415464377403,108.64739700845563L136.44931926727295,108.64739700845563L136.55374476671219,108.64739700845563L137.06426943063735,108.64739700845563L137.3891487622261,108.64739700845563L137.42395726203918,108.64739700845563L137.88807059288024,108.64739700845563L138.1665385913849,108.64739700845563L138.92072275400162,108.64739700845563L139.8257437491417,108.64739700845563L139.88375791549683,108.64739700845563L139.9185664153099,108.64739700845563L140.0810060811043,108.64739700845563L140.2202400803566,108.64739700845563L140.4871052455902,108.64739700845563L140.55672224521638,108.64739700845563L140.73076474428177,108.64739700845563L140.91641007661818,108.64739700845563L141.19487807512283,108.64739700845563L141.3921262407303,108.64739700845563L142.08829623699188,108.64739700845563L142.21592740297316,108.64739700845563L142.4479840683937,108.64739700845563L142.5292039012909,108.64739700845563L142.587218067646,108.64739700845563L143.8403240609169,108.64739700845563L143.87513256073,108.64739700845563L144.11879205942154,108.64739700845563L144.1768062257767,108.64739700845563L144.6757280564308,108.64739700845563L144.80335922241213,108.64739700845563L144.91938755512237,108.64739700845563L144.96579888820648,108.64739700845563L145.30228105306625,108.64739700845563L145.40670655250548,108.64739700845563L145.6735717177391,108.64739700845563L145.68517455101014,108.64739700845563L145.82440855026243,108.64739700845563L146.18409638166426,108.64739700845563L146.28852188110352,108.64739700845563L146.48577004671097,108.64739700845563L146.5437842130661,108.64739700845563L146.64820971250535,190.13292209918677L151.01087502241134,190.13292209918677L151.0804920220375,122.22830706376291L151.10369768857956,122.22830706376291L151.23132885456087,122.22830706376291L151.28934302091596,122.22830706376291L151.45178268671035,122.22830706376291L151.5562081861496,122.22830706376291L151.74185351848604,122.22830706376291L152.03192435026168,122.22830706376291L152.25237818241118,122.22830706376291L152.35680368185044,122.22830706376291L152.56565468072893,122.22830706376291L152.87893117904665,122.22830706376291L153.14579634428023,122.22830706376291L153.16900201082228,122.22830706376291L153.18060484409332,122.22830706376291L153.8651720070839,95.06645457370465L153.89998050689695,95.06645457370465L154.0044060063362,95.06645457370465L154.44531367063524,95.06645457370465L155.03705816745756,95.06645457370465L155.6171998310089,95.06645457370465L155.71002249717714,95.06645457370465L156.12772449493409,190.13292209918677L158.36707131624223,190.13292209918677L158.50630531549453,122.22830706376291L158.6339364814758,122.22830706376291L158.79637614727022,190.13292209918677L160.9777088022232,190.13292209918677L161.36060230016707,122.22830706376291L161.6738787984848,190.13292209918677L164.40054461717605,190.13292209918677L164.5861899495125,95.06645457370465L164.96908344745637,190.13292209918677" fill="none"></path></g></g></g></g></g></g><g transform="translate(51, 176)" clip-path="url(#clip_1)"><clipPath id="clip_1"><rect width="278" height="23"></rect></clipPath><g><g><line x1="0" y1="0" x2="0" y2="5" style="visibility: inherit;" fill="rgb(0, 0, 0)" stroke="rgb(204, 204, 204)" stroke-width="1px"></line><line x1="23.205666542053223" y1="0" x2="23.205666542053223" y2="5" style="visibility: inherit;" fill="rgb(0, 0, 0)" stroke="rgb(204, 204, 204)" stroke-width="1px"></line><line x1="46.411333084106445" y1="0" x2="46.411333084106445" y2="5" style="visibility: inherit;" fill="rgb(0, 0, 0)" stroke="rgb(204, 204, 204)" stroke-width="1px"></line><line x1="69.61699962615967" y1="0" x2="69.61699962615967" y2="5" style="visibility: inherit;" fill="rgb(0, 0, 0)" stroke="rgb(204, 204, 204)" stroke-width="1px"></line><line x1="92.82266616821289" y1="0" x2="92.82266616821289" y2="5" style="visibility: inherit;" fill="rgb(0, 0, 0)" stroke="rgb(204, 204, 204)" stroke-width="1px"></line><line x1="116.02833271026611" y1="0" x2="116.02833271026611" y2="5" style="visibility: inherit;" fill="rgb(0, 0, 0)" stroke="rgb(204, 204, 204)" stroke-width="1px"></line><line x1="139.23399925231934" y1="0" x2="139.23399925231934" y2="5" style="visibility: inherit;" fill="rgb(0, 0, 0)" stroke="rgb(204, 204, 204)" stroke-width="1px"></line><line x1="162.43966579437256" y1="0" x2="162.43966579437256" y2="5" style="visibility: inherit;" fill="rgb(0, 0, 0)" stroke="rgb(204, 204, 204)" stroke-width="1px"></line><line x1="185.64533233642578" y1="0" x2="185.64533233642578" y2="5" style="visibility: inherit;" fill="rgb(0, 0, 0)" stroke="rgb(204, 204, 204)" stroke-width="1px"></line><line x1="208.850998878479" y1="0" x2="208.850998878479" y2="5" style="visibility: inherit;" fill="rgb(0, 0, 0)" stroke="rgb(204, 204, 204)" stroke-width="1px"></line><line x1="232.05666542053223" y1="0" x2="232.05666542053223" y2="5" style="visibility: inherit;" fill="rgb(0, 0, 0)" stroke="rgb(204, 204, 204)" stroke-width="1px"></line><line x1="255.26233196258545" y1="0" x2="255.26233196258545" y2="5" style="visibility: inherit;" fill="rgb(0, 0, 0)" stroke="rgb(204, 204, 204)" stroke-width="1px"></line><line x1="278.4679985046387" y1="0" x2="278.4679985046387" y2="5" style="visibility: inherit;" fill="rgb(0, 0, 0)" stroke="rgb(204, 204, 204)" stroke-width="1px"></line></g><g transform="translate(0, 8)"><text style="text-anchor: middle; visibility: hidden; font-family: Roboto, sans-serif; font-size: 12px; font-weight: 200;" x="0" y="0" dx="0em" dy="0.95em" fill="rgb(33, 33, 33)" stroke="none" stroke-width="1px">-2k</text><text style="text-anchor: middle; visibility: inherit; font-family: Roboto, sans-serif; font-size: 12px; font-weight: 200;" x="23.205666542053223" y="0" dx="0em" dy="0.95em" fill="rgb(33, 33, 33)" stroke="none" stroke-width="1px">0</text><text style="text-anchor: middle; visibility: hidden; font-family: Roboto, sans-serif; font-size: 12px; font-weight: 200;" x="46.411333084106445" y="0" dx="0em" dy="0.95em" fill="rgb(33, 33, 33)" stroke="none" stroke-width="1px">2k</text><text style="text-anchor: middle; visibility: inherit; font-family: Roboto, sans-serif; font-size: 12px; font-weight: 200;" x="69.61699962615967" y="0" dx="0em" dy="0.95em" fill="rgb(33, 33, 33)" stroke="none" stroke-width="1px">4k</text><text style="text-anchor: middle; visibility: hidden; font-family: Roboto, sans-serif; font-size: 12px; font-weight: 200;" x="92.82266616821289" y="0" dx="0em" dy="0.95em" fill="rgb(33, 33, 33)" stroke="none" stroke-width="1px">6k</text><text style="text-anchor: middle; visibility: inherit; font-family: Roboto, sans-serif; font-size: 12px; font-weight: 200;" x="116.02833271026611" y="0" dx="0em" dy="0.95em" fill="rgb(33, 33, 33)" stroke="none" stroke-width="1px">8k</text><text style="text-anchor: middle; visibility: hidden; font-family: Roboto, sans-serif; font-size: 12px; font-weight: 200;" x="139.23399925231934" y="0" dx="0em" dy="0.95em" fill="rgb(33, 33, 33)" stroke="none" stroke-width="1px">10k</text><text style="text-anchor: middle; visibility: inherit; font-family: Roboto, sans-serif; font-size: 12px; font-weight: 200;" x="162.43966579437256" y="0" dx="0em" dy="0.95em" fill="rgb(33, 33, 33)" stroke="none" stroke-width="1px">12k</text><text style="text-anchor: middle; visibility: hidden; font-family: Roboto, sans-serif; font-size: 12px; font-weight: 200;" x="185.64533233642578" y="0" dx="0em" dy="0.95em" fill="rgb(33, 33, 33)" stroke="none" stroke-width="1px">14k</text><text style="text-anchor: middle; visibility: inherit; font-family: Roboto, sans-serif; font-size: 12px; font-weight: 200;" x="208.850998878479" y="0" dx="0em" dy="0.95em" fill="rgb(33, 33, 33)" stroke="none" stroke-width="1px">16k</text><text style="text-anchor: middle; visibility: hidden; font-family: Roboto, sans-serif; font-size: 12px; font-weight: 200;" x="232.05666542053223" y="0" dx="0em" dy="0.95em" fill="rgb(33, 33, 33)" stroke="none" stroke-width="1px">18k</text><text style="text-anchor: middle; visibility: inherit; font-family: Roboto, sans-serif; font-size: 12px; font-weight: 200;" x="255.26233196258545" y="0" dx="0em" dy="0.95em" fill="rgb(33, 33, 33)" stroke="none" stroke-width="1px">20k</text><text style="text-anchor: middle; visibility: hidden; font-family: Roboto, sans-serif; font-size: 12px; font-weight: 200;" x="278.4679985046387" y="0" dx="0em" dy="0.95em" fill="rgb(33, 33, 33)" stroke="none" stroke-width="1px">22k</text></g><line x1="0" y1="0" x2="278.4679985046387" y2="0" fill="rgb(0, 0, 0)" stroke="rgb(204, 204, 204)" stroke-width="1px"></line></g></g></g></g></svg>